<?xml version="1.0" encoding="utf-8"?>
<!-- Generator: Adobe Illustrator 16.0.0, SVG Export Plug-In . SVG Version: 6.00 Build 0)  -->
<!DOCTYPE svg PUBLIC "-//W3C//DTD SVG 1.1//EN" "http://www.w3.org/Graphics/SVG/1.1/DTD/svg11.dtd">
<svg version="1.1" id="Layer_1" xmlns="http://www.w3.org/2000/svg" xmlns:xlink="http://www.w3.org/1999/xlink" x="0px" y="0px"
	 width="100px" height="100px" viewBox="0 0 100 100" enable-background="new 0 0 100 100" xml:space="preserve">
<g>
	<path fill="#EDC89F" d="M44.098,68.689c-12.15-1.768-16.316-7.893-16.316-7.893l16.816-6.6H31.237c-2.747,0-4.972,1.74-4.972,3.887
		v10.014c0,2.143,2.226,3.883,4.972,3.883h15.905c2.745,0,4.971-1.74,4.971-3.883v-0.219C50.253,68.798,47.654,69.201,44.098,68.689
		z"/>
	<path fill="#C9AA85" d="M47.142,54.197h-2.544l-18.151,4.375c0,0,2.212,8.063,17.685,10.177c3.561,0.487,6.121,0.049,7.981-0.87
		v-9.795C52.113,55.938,49.887,54.197,47.142,54.197z"/>
	
		<radialGradient id="SVGID_1_" cx="40.1851" cy="-1843.6343" r="21.5343" gradientTransform="matrix(1 0 0 1.2981 0 2426.832)" gradientUnits="userSpaceOnUse">
		<stop  offset="0" style="stop-color:#FFE2C2"/>
		<stop  offset="1" style="stop-color:#E6BE8C"/>
	</radialGradient>
	<path fill="url(#SVGID_1_)" d="M62.534,35.761c-0.624-0.173-1.332,0.218-2.014,1.01c0.016-0.392,0.025-0.775,0.025-1.156
		c0-12.531-9.56-22.688-21.357-22.688c-11.796,0-21.356,10.158-21.356,22.688c0,0.381,0.006,0.764,0.024,1.156
		c-0.68-0.792-1.388-1.183-2.012-1.01c-1.501,0.411-1.952,3.906-1.005,7.803c0.946,3.899,2.933,6.726,4.434,6.314
		c0.533-0.145,0.929-0.685,1.183-1.487c3.629,9.376,10.659,17.866,18.733,17.866c8.075,0,15.104-8.49,18.734-17.866
		c0.251,0.802,0.649,1.342,1.181,1.487c1.503,0.412,3.487-2.415,4.435-6.314C64.484,39.667,64.035,36.172,62.534,35.761z"/>
	<g>
		<path fill="#9B9B9B" d="M76.967,82.477c0-8.969-11.158-14.71-24.897-16.976c-0.437,2.251-2.266,3.94-4.457,3.94H30.818
			c-2.27,0-4.147-1.817-4.493-4.188C12.578,67.272,1.41,72.928,1.41,82.477L0.415,94.074h77.549L76.967,82.477z"/>
		<path fill="#9B9B9B" d="M78.324,94.407H0.052l1.025-11.958c-0.001-8.642,9.42-15.206,25.199-17.524l0.33-0.049l0.048,0.329
			c0.329,2.263,2.08,3.904,4.164,3.904h16.794c1.981,0,3.719-1.545,4.131-3.671l0.062-0.317l0.318,0.051
			C67.888,67.772,77.3,74.241,77.3,82.477L78.324,94.407z M0.777,93.741h76.823l-0.964-11.237
			c-0.003-7.856-9.083-14.049-24.311-16.622c-0.58,2.273-2.515,3.891-4.714,3.891H30.818c-2.314,0-4.27-1.723-4.764-4.145
			C10.823,67.937,1.742,74.224,1.742,82.477L0.777,93.741z"/>
	</g>
	<path d="M61.736,29.453c0-13.177-10.095-23.86-22.548-23.86c-12.454,0-22.549,10.683-22.549,23.86c0,4.21,1.037,8.165,2.846,11.6
		c0.645-3.001,25.171-5.867,36.112-8.194c1.509,2.428,2.651,5.192,3.297,8.194C60.703,37.618,61.736,33.663,61.736,29.453z"/>
	<g>
		<path fill="#07A3B2" d="M99.854,55.998l0.094-8.007l-3.999-0.411c-0.199-0.629-0.443-1.239-0.729-1.822l2.611-3.061l-5.597-5.73
			l-3.119,2.537c-0.575-0.298-1.178-0.556-1.798-0.771l-0.323-4.01l-4.21-0.05l-3.799-0.046l-0.415,3.999
			c-0.625,0.201-1.229,0.444-1.813,0.728l-3.065-2.608l-5.73,5.595l2.534,3.123c-0.297,0.574-0.555,1.174-0.77,1.795l-4.01,0.324
			l-0.095,8.008l4.001,0.415c0.197,0.623,0.441,1.231,0.726,1.813l-2.607,3.066l5.595,5.73l3.121-2.536
			c0.579,0.297,1.179,0.556,1.8,0.772l0.32,4.009l4.207,0.05l3.8,0.042l0.413-3.996c0.628-0.199,1.233-0.444,1.819-0.728
			l3.061,2.606l5.731-5.594l-2.537-3.119c0.298-0.58,0.557-1.18,0.774-1.804L99.854,55.998z M82.784,59.793
			c-0.032,0-0.062,0.005-0.095,0.005c-4.421-0.053-7.965-3.683-7.914-8.106c0.055-4.389,3.631-7.906,8.009-7.907
			c0.032,0,0.065-0.004,0.098-0.004c4.421,0.053,7.964,3.683,7.911,8.104C90.742,56.274,87.163,59.793,82.784,59.793z"/>
		<path fill="#07A3B2" d="M82.784,42.245c-5.258,0-9.521,4.262-9.521,9.521c0,5.26,4.264,9.523,9.521,9.523
			c5.26,0,9.522-4.264,9.522-9.523C92.307,46.507,88.044,42.245,82.784,42.245z M82.784,59.793c-0.032,0-0.062,0.005-0.095,0.005
			c-4.421-0.053-7.965-3.683-7.914-8.106c0.055-4.389,3.631-7.906,8.009-7.907c0.032,0,0.065-0.004,0.098-0.004
			c4.421,0.053,7.964,3.683,7.911,8.104C90.742,56.274,87.163,59.793,82.784,59.793z"/>
	</g>
</g>
</svg>
