<?xml version="1.0" encoding="utf-8"?>
<!-- Generator: Adobe Illustrator 16.0.0, SVG Export Plug-In . SVG Version: 6.00 Build 0)  -->
<!DOCTYPE svg PUBLIC "-//W3C//DTD SVG 1.1//EN" "http://www.w3.org/Graphics/SVG/1.1/DTD/svg11.dtd">
<svg version="1.1" id="Layer_1" xmlns="http://www.w3.org/2000/svg" xmlns:xlink="http://www.w3.org/1999/xlink" x="0px" y="0px"
	 width="20px" height="20px" viewBox="199.75 185.5 20 20" enable-background="new 199.75 185.5 20 20" xml:space="preserve">
<path fill="#9B9B9B" d="M218.754,186.162h-18.009c-0.552,0-1,0.448-1,1v12.673c0,0.553,0.448,1,1,1h5.959l-0.25,2.001h-0.373
	c-0.184,0-0.333,0.148-0.333,0.333v1h-1.334v0.667h10.672v-0.667h-1.335v-1c0-0.185-0.149-0.333-0.333-0.333h-0.371l-0.251-2.001
	h5.959c0.552,0,1-0.448,1-1v-12.673C219.755,186.61,219.307,186.162,218.754,186.162z M200.746,186.829h18.009
	c0.185,0,0.333,0.149,0.333,0.333V197.5h-18.676v-10.338C200.412,186.979,200.562,186.829,200.746,186.829z M213.084,204.171h-6.669
	v-0.667h6.669V204.171z M212.373,202.837h-5.247l0.25-2.001h4.746L212.373,202.837z M218.754,200.169h-18.009
	c-0.184,0-0.333-0.15-0.333-0.333v-1.667h18.676v1.667C219.088,200.019,218.939,200.169,218.754,200.169z"/>
</svg>
