<?xml version="1.0" encoding="utf-8"?>
<!-- Generator: Adobe Illustrator 16.0.0, SVG Export Plug-In . SVG Version: 6.00 Build 0)  -->
<!DOCTYPE svg PUBLIC "-//W3C//DTD SVG 1.1//EN" "http://www.w3.org/Graphics/SVG/1.1/DTD/svg11.dtd">
<svg version="1.1" id="Layer_1" xmlns="http://www.w3.org/2000/svg" xmlns:xlink="http://www.w3.org/1999/xlink" x="0px" y="0px"
	 width="300px" height="53.886px" viewBox="0 0 300 53.886" enable-background="new 0 0 300 53.886" xml:space="preserve">
<g>
	<path fill="#010101" d="M77.603,24.586h-8.847c-1.128-0.128-2.071,0.812-1.946,1.938v0.883c-0.125,1.136,0.875,2.075,1.946,1.945
		h4.83v4.326c-1.504,0.764-3.201,1.126-4.894,1.126c-5.021,0.251-9.158-3.885-8.975-8.9c-0.121-4.897,3.829-8.914,8.724-8.914
		c1.819-0.058,3.64,0.317,5.269,1.133c1.128,0.502,1.947,0.439,2.699-0.563l1.006-1.256c0.749-0.819,0.563-2.199-0.504-2.701
		c-2.572-1.505-5.522-2.259-8.469-2.13c-8.724,0-15.056,6.525-15.056,14.495c0,7.837,6.211,14.364,15.243,14.364
		c3.512,0,6.899-1.121,9.726-3.257c0.815-0.568,1.315-1.442,1.252-2.451v-8.1C79.67,25.398,78.669,24.458,77.603,24.586
		L77.603,24.586z M93.849,18.815c-6.523,0-11.416,4.769-11.416,10.728c0,5.96,4.892,10.733,11.416,10.733
		c6.525,0,11.419-4.773,11.419-10.733C105.208,23.649,100.374,18.815,93.849,18.815L93.849,18.815z M93.849,35.251
		c-5.145,0.187-7.84-5.964-4.264-9.663c3.577-3.706,9.788-1.131,9.788,4.02C99.436,32.674,96.926,35.251,93.849,35.251
		L93.849,35.251z M124.029,15.237v-1.505c0.122-1.13-0.814-2.075-1.947-1.945h-19.134c-1.128-0.13-2.069,0.815-1.947,1.945v1.505
		c-0.122,1.131,0.819,2.071,1.947,1.945h6.398V37.89c-0.122,1.131,0.816,2.069,1.947,1.939h2.387
		c1.128,0.13,2.067-0.809,1.942-1.939V17.182h6.46C123.151,17.308,124.151,16.368,124.029,15.237L124.029,15.237z M131.244,18.815
		c-6.522,0-11.419,4.769-11.419,10.728c0,5.96,4.897,10.733,11.419,10.733c6.525,0,11.417-4.773,11.417-10.733
		C142.598,23.649,137.706,18.815,131.244,18.815L131.244,18.815z M131.244,35.251c-5.146,0.187-7.842-5.964-4.269-9.663
		c3.578-3.706,9.791-1.131,9.791,4.02C136.83,32.674,134.318,35.251,131.244,35.251L131.244,35.251z M175.038,11.848h-1.769
		c-0.549-0.061-1.062,0.316-1.247,0.819l-9.789,22.65l-9.782-22.65c-0.188-0.568-0.694-0.88-1.257-0.819h-1.757
		c-0.563-0.061-1.069,0.44-1.069,1.005l-2.442,25.846c-0.127,0.629,0.376,1.191,1.069,1.131h0.998
		c0.63,0.061,1.128-0.377,1.195-1.004l1.945-22.398l9.537,22.211c0.186,0.502,0.688,0.879,1.247,0.813h0.754
		c0.567,0,1.069-0.312,1.189-0.813l9.604-22.211l1.944,22.398c0,0.627,0.568,1.064,1.136,1.004h1.005
		c0.614,0.061,1.191-0.502,1.06-1.131l-2.446-25.846C176.107,12.225,175.597,11.787,175.038,11.848L175.038,11.848z M192.791,19.44
		c-2.829-0.065-5.526,1.003-7.537,3.018c-2.001,2-3.126,4.701-3.126,7.528c0,5.647,4.317,10.291,11.165,10.291
		c2.755,0.056,5.454-0.884,7.527-2.577c0.624-0.382,0.754-1.192,0.253-1.704l-0.317-0.307c-0.371-0.438-1.005-0.502-1.508-0.12
		c-1.693,1.312-3.824,2-6.021,2c-4.894,0-8.41-3.257-8.095-7.714h16.507c0.688,0,1.127-0.372,1.062-1.061
		C202.198,22.328,197.62,19.44,192.791,19.44L192.791,19.44z M185.449,27.471c0.94-3.266,4.012-5.458,7.397-5.334
		c2.765,0,5.9,1.191,6.774,5.334H185.449z M216.51,19.44c-2.839-0.065-5.528,1.003-7.603,3.018c-2.001,2-3.126,4.701-3.126,7.528
		c0,5.647,4.316,10.291,11.165,10.291c2.755,0.056,5.396-0.884,7.519-2.577c0.643-0.382,0.763-1.192,0.26-1.704l-0.315-0.307
		c-0.373-0.438-1.005-0.502-1.498-0.12c-1.693,1.312-3.834,2-5.965,2c-4.894,0-8.402-3.257-8.095-7.714h16.497
		c0.763,0,1.126-0.372,1.069-1.061C225.972,22.328,221.394,19.44,216.51,19.44L216.51,19.44z M209.223,27.471
		c0.939-3.266,4.02-5.458,7.407-5.334c2.763,0,5.898,1.191,6.774,5.334H209.223z M247.242,19.88h-0.939
		c-0.624-0.063-1.125,0.5-1.061,1.068v17.75c-0.064,0.629,0.437,1.131,1.061,1.066h0.939c0.633,0.064,1.136-0.503,1.006-1.066
		V20.883C248.378,20.32,247.875,19.817,247.242,19.88L247.242,19.88z M246.806,10.973c-2.011-0.065-3.07,2.383-1.693,3.827
		c1.386,1.442,3.89,0.499,3.89-1.57C249.002,11.976,247.996,10.973,246.806,10.973L246.806,10.973z M264.065,19.44
		c-3.08-0.123-5.898,1.759-6.969,4.643v-3.135c0.064-0.628-0.437-1.131-1.061-1.068h-0.949c-0.623,0-1.062,0.5-1.062,1.068v17.75
		c-0.064,0.629,0.438,1.131,1.062,1.066h0.949c0.624,0.064,1.125-0.438,1.061-1.066v-8.592c0.064-6.458,4.577-7.97,6.773-7.97
		c2.513,0,5.024,1.512,5.024,6.341v10.221c-0.065,0.629,0.438,1.131,1.062,1.066h0.939c0.633,0.064,1.136-0.438,1.069-1.066V28.478
		C271.965,21.883,268.338,19.44,264.065,19.44L264.065,19.44z M295.553,19.88h-0.938c-0.624-0.063-1.135,0.5-1.071,1.068v2.882
		c-1.628-2.822-4.568-4.513-7.834-4.39c-6.151,0-9.984,4.704-9.984,10.415c0,5.714,3.898,10.422,9.984,10.422
		c3.2,0.121,6.206-1.578,7.834-4.336v3.452c0,4.582-2.939,7.215-7.276,7.215c-2.251,0.061-4.447-0.562-6.336-1.753
		c-0.623-0.446-1.127-0.381-1.433,0.315l-0.261,0.493c-0.317,0.508-0.187,1.192,0.316,1.508c2.261,1.508,4.959,2.257,7.713,2.126
		c5.648,0,10.301-3.251,10.301-9.658V21.008C296.745,20.32,296.187,19.817,295.553,19.88L295.553,19.88z M286.146,37.508
		c-4.588,0-7.277-3.447-7.277-7.653c0-4.204,2.634-7.718,7.222-7.718c4.513,0,7.519,3.324,7.519,7.718
		C293.86,34.125,290.417,37.634,286.146,37.508L286.146,37.508z M240.785,19.88h-5.769V14.8c0.056-0.565-0.447-1.007-0.95-0.944
		h-0.501c-0.494-0.063-0.997,0.379-0.997,0.879l-0.566,5.146h-2.699c-0.381-0.063-0.688,0.253-0.624,0.63v1.126
		c-0.064,0.377,0.243,0.691,0.624,0.628h2.699v11.796c0,4.513,2.567,5.769,5.145,5.769h2.765c0.623,0.061,1.117-0.437,1.069-1.061
		v-0.567c0.048-0.633-0.446-1.126-1.069-1.07h-2.765c-1.06,0-2.074-0.624-2.074-2.688V22.328h5.769
		c0.382,0.063,0.698-0.254,0.633-0.626v-1.191C241.474,20.134,241.158,19.817,240.785,19.88L240.785,19.88z"/>
	<path fill="#F78E2E" d="M42.404,29.288c-2.007-1.251-4.578-1.126-6.525,0.256c-0.375,0.246-0.879,0.312-1.251,0.065l-5.9-3.394
		c-0.125-0.056-0.125-0.184,0-0.247l5.833-3.387c0.381-0.253,0.879-0.19,1.258,0.059c1.94,1.381,4.512,1.505,6.525,0.253
		c2.696-1.63,3.635-5.083,2.13-7.906c-3.076-5.648-11.668-3.078-11.105,3.326c0.065,0.442-0.188,0.877-0.563,1.128l-5.899,3.39
		c-0.126,0.063-0.251,0-0.251-0.128v-6.837c0-0.437,0.251-0.879,0.691-1.065c5.771-2.636,3.892-11.293-2.51-11.293
		c-6.336,0-8.283,8.658-2.444,11.293c0.437,0.187,0.688,0.628,0.688,1.065v6.837c0,0.128-0.124,0.19-0.251,0.128l-5.899-3.39
		c-0.377-0.25-0.628-0.686-0.563-1.128c0.563-6.336-7.904-8.975-11.042-3.45c-3.136,5.518,3.452,11.479,8.598,7.777
		c0.375-0.249,0.876-0.312,1.314-0.059l5.837,3.387c0.123,0.063,0.123,0.191,0,0.247l-5.897,3.394
		c-0.377,0.246-0.879,0.181-1.253-0.065c-1.945-1.382-4.458-1.444-6.527-0.256c-2.699,1.633-3.578,5.09-2.135,7.904
		c3.078,5.714,11.735,3.085,11.107-3.387c-0.065-0.433,0.187-0.94,0.563-1.131l5.899-3.387c0.128-0.056,0.251,0,0.251,0.13v6.774
		c0,0.442-0.251,0.884-0.688,1.061c-5.774,2.638-3.892,11.306,2.507,11.306c6.339,0,8.281-8.668,2.447-11.306
		c-0.439-0.177-0.691-0.618-0.691-1.061v-6.774c0-0.13,0.125-0.186,0.251-0.13l5.899,3.387c0.374,0.256,0.628,0.698,0.563,1.131
		c-0.563,6.406,8.03,9.036,11.105,3.387C46.04,34.377,45.101,30.92,42.404,29.288L42.404,29.288z"/>
</g>
</svg>
