<?xml version="1.0" encoding="utf-8"?>
<!-- Generator: Adobe Illustrator 16.0.0, SVG Export Plug-In . SVG Version: 6.00 Build 0)  -->
<!DOCTYPE svg PUBLIC "-//W3C//DTD SVG 1.1//EN" "http://www.w3.org/Graphics/SVG/1.1/DTD/svg11.dtd">
<svg version="1.1" id="Layer_1" xmlns="http://www.w3.org/2000/svg" xmlns:xlink="http://www.w3.org/1999/xlink" x="0px" y="0px"
	 width="512px" height="512px" viewBox="0 0 512 512" enable-background="new 0 0 512 512" xml:space="preserve">
<rect display="none" fill="#D81A1A" width="512" height="512"/>
<path fill="#9B9B9B" d="M30.664,32.901H7.875c-0.69,0-1.25-0.56-1.25-1.25V17.735c0-0.361,0.156-0.705,0.428-0.942l11.56-10.084
	C19.09,6.294,19.801,6.3,20.27,6.721L31.5,16.805c0.264,0.237,0.414,0.575,0.414,0.93v13.916
	C31.914,32.341,31.355,32.901,30.664,32.901z M9.125,30.401h20.289V18.292L19.423,9.32L9.125,18.303V30.401z"/>
<g id="social" transform="translate(-0.05 0)">
	<g id="Group_864" transform="translate(10.005 0)">
		<g id="Group_863" transform="translate(0 0)">
			<path id="Path_5276" fill="#9B9B9B" d="M53.582,11.135c0.797-1.756,0.021-3.825-1.735-4.622
				c-1.756-0.798-3.825-0.021-4.622,1.734c-0.797,1.756-0.021,3.825,1.735,4.622c0.917,0.417,1.97,0.417,2.887,0l4.08,4.08
				c0.215-0.354,0.471-0.683,0.763-0.977c0.292-0.291,0.619-0.546,0.973-0.759L53.582,11.135z M51.391,10.667
				c-0.543,0.543-1.423,0.543-1.966,0s-0.543-1.423,0-1.966s1.423-0.543,1.966,0c0.543,0.542,0.544,1.422,0.002,1.965
				C51.392,10.666,51.392,10.667,51.391,10.667L51.391,10.667z"/>
		</g>
	</g>
	<g id="Group_866" transform="translate(6.244 16.154)">
		<g id="Group_865">
			<path id="Path_5277" fill="#9B9B9B" d="M56.635,10.992c-1.028-1.028-2.587-1.311-3.91-0.708l-4.08-4.08
				c-0.425,0.711-1.02,1.305-1.73,1.729l4.08,4.08c-0.799,1.753-0.025,3.822,1.728,4.621c1.753,0.799,3.821,0.025,4.62-1.728
				C57.947,13.581,57.663,12.021,56.635,10.992L56.635,10.992z M55.152,14.446c-0.543,0.542-1.423,0.542-1.966-0.001
				c-0.543-0.542-0.543-1.423,0-1.965c0.543-0.543,1.423-0.543,1.966,0c0.543,0.542,0.544,1.421,0.002,1.964
				C55.153,14.445,55.153,14.445,55.152,14.446z"/>
		</g>
	</g>
	<g id="Group_868" transform="translate(16.204 9.954)">
		<g id="Group_867">
			<path id="Path_5278" fill="#9B9B9B" d="M56.635,7.215C55.27,5.856,53.061,5.86,51.7,7.225c-1.024,1.028-1.306,2.584-0.705,3.905
				l-4.08,4.08c0.711,0.425,1.306,1.02,1.73,1.73l4.08-4.08c1.754,0.798,3.822,0.023,4.621-1.73
				C57.95,9.805,57.666,8.244,56.635,7.215L56.635,7.215z M55.152,10.674c-0.543,0.543-1.423,0.543-1.966,0s-0.542-1.423,0-1.966
				c0.543-0.542,1.423-0.542,1.966,0c0.544,0.541,0.547,1.421,0.006,1.965c-0.002,0.002-0.004,0.004-0.006,0.006V10.674z"/>
		</g>
	</g>
	<g id="Group_870" transform="translate(0.05 6.199)">
		<g id="Group_869" transform="translate(0)">
			<path id="Path_5279" fill="#9B9B9B" d="M57.656,7.933c-0.711-0.425-1.306-1.019-1.73-1.729l-4.08,4.08
				c-1.753-0.798-3.82-0.023-4.618,1.729c-0.797,1.753-0.022,3.821,1.73,4.618c1.753,0.798,3.82,0.023,4.618-1.729
				c0.417-0.918,0.417-1.971,0-2.889L57.656,7.933z M51.385,14.433c-0.543,0.543-1.423,0.543-1.966,0s-0.543-1.423,0-1.966
				c0.543-0.542,1.423-0.542,1.966,0c0.544,0.542,0.545,1.421,0.004,1.965C51.388,14.433,51.387,14.434,51.385,14.433L51.385,14.433
				z"/>
		</g>
	</g>
</g>
<g id="suitcase" transform="translate(0.125 -28.319)">
	<g id="Group_13" transform="translate(0 32.316)">
		<g id="Group_12" transform="translate(0 0)">
			<g>
				<path id="Path_45_1_" fill="#9B9B9B" d="M113.149,7.972H90.837c-1.001-0.018-1.826,0.779-1.844,1.78c0,0.013,0,0.025,0,0.038
					v15.6c-0.003,1.001,0.805,1.815,1.806,1.818c0.013,0,0.025,0,0.039,0h22.312c1,0.018,1.826-0.779,1.844-1.78
					c0-0.012,0-0.023,0-0.035v-15.6c0.006-1.001-0.802-1.816-1.803-1.821C113.177,7.972,113.163,7.972,113.149,7.972z
					 M113.149,25.393H90.837l-0.014-15.6h22.326V25.393z"/>
				<path fill="#9B9B9B" d="M113.182,27.333L113.182,27.333H90.799c-0.518-0.002-1.003-0.205-1.368-0.572
					c-0.364-0.367-0.564-0.854-0.563-1.371V9.747c0.019-1.047,0.887-1.901,1.936-1.901h0.035h22.351
					c0.519,0.002,1.004,0.207,1.368,0.574c0.363,0.368,0.563,0.855,0.56,1.373v15.634C115.1,26.48,114.231,27.333,113.182,27.333z
					 M90.805,8.096c-0.914,0-1.67,0.744-1.686,1.658V9.79v15.6c-0.001,0.451,0.172,0.876,0.49,1.195
					c0.317,0.32,0.74,0.497,1.191,0.498h22.382c0.914,0,1.671-0.743,1.687-1.657V9.793c0.003-0.451-0.171-0.876-0.487-1.196
					c-0.317-0.32-0.74-0.498-1.191-0.5L90.805,8.096z M113.274,25.518H90.712l-0.014-15.85h22.576V25.518z M90.962,25.268h22.062
					V9.918H90.948L90.962,25.268z"/>
			</g>
		</g>
	</g>
	<g id="Group_15" transform="translate(0.993 38.457)">
		<g id="Group_14" transform="translate(0 0)">
			<g>
				<rect id="Rectangle_28_1_" x="88.993" y="7.972" fill="#9B9B9B" width="24.014" height="1.985"/>
				<path fill="#9B9B9B" d="M113.132,10.083H88.868V7.847h24.264V10.083L113.132,10.083z M89.118,9.833h23.764V8.097H89.118V9.833z"
					/>
			</g>
		</g>
	</g>
	<g id="Group_19" transform="translate(6.943 28.444)">
		<g id="Group_18" transform="translate(0 0)">
			<g>
				<path id="Path_47_1_" fill="#9B9B9B" d="M98.79,7.972h-7.48c-1.279,0.001-2.315,1.038-2.317,2.317v2.548h1.986v-2.548
					c0.002-0.182,0.149-0.329,0.331-0.331h7.48c0.182,0.002,0.328,0.149,0.33,0.331v2.548h1.986v-2.548
					C101.105,9.01,100.07,7.974,98.79,7.972z"/>
				<path fill="#9B9B9B" d="M101.232,12.962h-2.236v-2.673c-0.001-0.112-0.094-0.205-0.206-0.206h-7.48
					c-0.111,0.001-0.205,0.094-0.206,0.208v2.671h-2.236v-2.673c0.001-1.346,1.097-2.441,2.442-2.442h7.48
					c1.344,0.002,2.439,1.098,2.441,2.442L101.232,12.962L101.232,12.962z M99.245,12.712h1.736v-2.423
					c-0.002-1.207-0.985-2.19-2.191-2.192h-7.48c-1.207,0.001-2.19,0.984-2.192,2.192v2.423h1.736v-2.423
					c0.002-0.25,0.207-0.454,0.454-0.456h7.482c0.249,0.002,0.452,0.207,0.455,0.455V12.712z"/>
			</g>
		</g>
	</g>
</g>
<g id="open-book" transform="translate(0.125 -19.823)">
	<g id="Group_11" transform="translate(0 20.114)">
		<g>
			<path id="Path_44_1_" fill="#9B9B9B" d="M155.798,9.524c-3.771-2.521-8.653-2.652-12.555-0.339
				c-3.901-2.313-8.784-2.182-12.555,0.339c-0.278,0.187-0.445,0.499-0.445,0.834v19.816c0,0.553,0.447,1.001,0.999,1.001
				c0.198,0,0.391-0.058,0.556-0.168c3.295-2.205,7.595-2.205,10.89,0c0.013,0.009,0.028,0.011,0.041,0.019
				c0.013,0.009,0.027,0.022,0.042,0.031c0.035,0.016,0.071,0.028,0.107,0.039c0.037,0.017,0.074,0.03,0.112,0.042
				c0.055,0.013,0.111,0.021,0.168,0.025c0.029,0,0.056,0.012,0.085,0.012h0.025c0.034-0.002,0.067-0.007,0.1-0.013
				c0.051-0.005,0.101-0.015,0.15-0.027c0.034-0.011,0.067-0.024,0.1-0.039c0.031-0.013,0.064-0.02,0.094-0.036
				c0.014-0.008,0.025-0.02,0.039-0.028c0.014-0.01,0.03-0.013,0.044-0.021c3.296-2.205,7.595-2.205,10.89,0
				c0.459,0.309,1.08,0.188,1.389-0.271c0.111-0.167,0.171-0.363,0.17-0.563V10.358C156.243,10.023,156.077,9.711,155.798,9.524z
				 M142.243,28.467c-3.168-1.485-6.832-1.485-10,0V10.91c3.082-1.831,6.918-1.831,10,0V28.467z M154.243,28.467
				c-3.168-1.485-6.832-1.485-10,0V10.91c3.082-1.831,6.918-1.831,10,0V28.467z"/>
			<path fill="#9B9B9B" d="M155.242,31.307L155.242,31.307c-0.224,0-0.44-0.066-0.627-0.192c-1.597-1.067-3.455-1.633-5.375-1.633
				c-1.921,0-3.779,0.565-5.376,1.633l-0.09,0.055c-0.027,0.016-0.054,0.024-0.081,0.033c-0.061,0.025-0.099,0.041-0.138,0.053
				c-0.062,0.017-0.118,0.027-0.176,0.032c-0.028,0.006-0.066,0.012-0.104,0.014h-0.032c-0.027,0-0.051-0.005-0.068-0.009
				c-0.089-0.008-0.151-0.018-0.213-0.031c-0.052-0.016-0.095-0.031-0.136-0.05c-0.025-0.007-0.066-0.021-0.106-0.039l-0.052-0.034
				c-0.012-0.006-0.03-0.013-0.05-0.025c-1.596-1.068-3.455-1.634-5.375-1.634s-3.779,0.565-5.375,1.633
				c-0.433,0.29-1.05,0.231-1.421-0.141c-0.212-0.213-0.329-0.495-0.329-0.796V10.358c0-0.377,0.187-0.728,0.5-0.938
				c1.965-1.313,4.253-2.007,6.617-2.007c2.111,0,4.187,0.563,6.008,1.627c1.821-1.065,3.897-1.627,6.008-1.627
				c2.364,0,4.651,0.694,6.616,2.007c0.313,0.209,0.501,0.56,0.501,0.938v19.817c0.001,0.225-0.064,0.443-0.19,0.633
				C155.967,31.12,155.618,31.307,155.242,31.307z M143.168,31.039c0.019,0,0.041,0.005,0.058,0.009l0.042,0.128l-0.007-0.125
				c0.029-0.001,0.057-0.006,0.085-0.011c0.054-0.006,0.098-0.015,0.141-0.025c0.023-0.008,0.052-0.02,0.08-0.032
				c0.018-0.007,0.033-0.013,0.048-0.018c0.012-0.004,0.025-0.008,0.037-0.014c0.012-0.011,0.021-0.018,0.031-0.024l0.044-0.022
				c1.635-1.093,3.542-1.673,5.512-1.673c1.97,0,3.877,0.58,5.514,1.676c0.39,0.262,0.956,0.149,1.216-0.238
				c0.098-0.146,0.149-0.317,0.148-0.492v-19.82c0-0.294-0.146-0.567-0.39-0.73c-1.924-1.286-4.163-1.965-6.478-1.965
				c-2.09,0-4.146,0.563-5.944,1.63l-0.064,0.038l-0.064-0.038c-1.798-1.066-3.854-1.63-5.944-1.63c-2.314,0-4.554,0.68-6.478,1.965
				c-0.244,0.164-0.39,0.437-0.389,0.73v19.816c0,0.234,0.091,0.454,0.256,0.619c0.289,0.29,0.768,0.334,1.105,0.11
				c1.637-1.096,3.544-1.676,5.514-1.676c1.97,0,3.877,0.58,5.514,1.676c0.005,0,0.021,0.005,0.037,0.016l0.031,0.022
				c0.027,0.015,0.057,0.025,0.088,0.034c0.048,0.021,0.081,0.032,0.113,0.043c0.04,0.009,0.09,0.017,0.14,0.02
				C143.167,31.039,143.168,31.039,143.168,31.039z M154.368,28.663l-0.178-0.083c-1.538-0.721-3.249-1.103-4.947-1.103
				c-1.698,0-3.409,0.382-4.947,1.103l-0.178,0.083V10.839l0.062-0.036c1.531-0.91,3.282-1.391,5.063-1.391
				c1.781,0,3.532,0.481,5.063,1.391l0.062,0.036V28.663z M149.243,27.228c1.67,0,3.351,0.36,4.875,1.044v-17.29
				c-1.479-0.863-3.162-1.32-4.875-1.32c-1.713,0-3.396,0.457-4.875,1.32v17.29C145.893,27.588,147.573,27.228,149.243,27.228z
				 M142.368,28.663l-0.178-0.083c-1.538-0.721-3.249-1.103-4.947-1.103c-1.698,0-3.409,0.382-4.947,1.103l-0.178,0.083V10.839
				l0.061-0.036c1.532-0.91,3.283-1.391,5.064-1.391c1.781,0,3.532,0.481,5.064,1.391l0.061,0.036V28.663z M132.368,10.981v17.29
				c1.524-0.684,3.206-1.044,4.875-1.044s3.351,0.36,4.875,1.044v-17.29c-1.479-0.863-3.162-1.32-4.875-1.32
				C135.53,9.661,133.847,10.118,132.368,10.981z"/>
		</g>
	</g>
</g>
<g id="chat" transform="translate(0.14 0.125)">
	<g id="Group_879" transform="translate(0 0)">
		<g id="Group_878">
			<g>
				<path id="Path_5280_1_" fill="#9B9B9B" d="M195.27,22.096c-0.227-0.514-0.826-0.746-1.34-0.519
					c-0.49,0.216-0.728,0.776-0.543,1.28l1.2,2.959l-3.553-1.566c-0.257-0.111-0.55-0.111-0.808,0
					c-1.222,0.52-2.537,0.785-3.865,0.781c-5.437,0-9.089-4.258-9.089-8.233c0-4.54,4.077-8.233,9.089-8.233
					c5.013,0,9.089,3.693,9.089,8.233c-0.002,0.389-0.032,0.778-0.09,1.163c-0.098,0.552,0.271,1.08,0.824,1.177
					c0.553,0.097,1.079-0.271,1.177-0.824c0.004-0.018,0.006-0.036,0.009-0.054c0.07-0.486,0.106-0.977,0.107-1.469
					c-0.013-2.787-1.208-5.437-3.29-7.289c-2.146-1.938-4.94-2.999-7.831-2.975c-2.891-0.024-5.686,1.038-7.831,2.975
					c-1.851,1.654-3.01,3.944-3.248,6.415c-2.34,1.49-3.77,4.061-3.8,6.835c-0.001,1.696,0.545,3.347,1.557,4.708l-1.482,3.667
					c-0.21,0.521,0.042,1.112,0.563,1.321c0.254,0.104,0.538,0.099,0.788-0.012l4.275-1.883c1.084,0.4,2.231,0.604,3.387,0.6
					c0.025,0,0.05,0,0.075,0c1.679-0.008,3.326-0.457,4.778-1.299c1.256-0.728,2.312-1.756,3.071-2.992
					c0.721-0.129,1.427-0.326,2.11-0.588l5.449,2.4c0.514,0.226,1.113-0.008,1.339-0.521c0.109-0.25,0.114-0.535,0.012-0.789
					L195.27,22.096z M180.568,29.128h-0.041c-1.02-0.002-2.028-0.208-2.967-0.606c-0.258-0.112-0.55-0.112-0.808,0l-2.379,1.051
					l0.767-1.899c0.142-0.351,0.076-0.751-0.169-1.039c-0.939-1.075-1.458-2.454-1.462-3.883c0.015-1.636,0.692-3.196,1.878-4.323
					c0.403,2.098,1.452,4.018,3,5.49c2.001,1.906,4.629,3.018,7.391,3.125C184.379,28.389,182.51,29.137,180.568,29.128z"/>
				<path fill="#9B9B9B" d="M172.495,32.649c-0.147,0-0.291-0.028-0.427-0.083c-0.282-0.113-0.503-0.33-0.623-0.61
					c-0.12-0.281-0.123-0.591-0.008-0.874l1.456-3.603c-0.994-1.363-1.541-3.038-1.54-4.726c0.031-2.808,1.452-5.385,3.807-6.908
					c0.255-2.486,1.419-4.77,3.283-6.436c2.147-1.939,4.924-3.007,7.819-3.007h0.097h0.095c2.895,0,5.671,1.068,7.819,3.008
					c2.104,1.872,3.318,4.563,3.331,7.381c-0.001,0.495-0.037,0.995-0.108,1.487l-0.011,0.062c-0.106,0.606-0.689,1.033-1.32,0.92
					c-0.301-0.053-0.563-0.22-0.737-0.47c-0.175-0.25-0.241-0.552-0.188-0.853c0.057-0.376,0.086-0.762,0.088-1.142
					c0-4.47-4.021-8.107-8.964-8.107s-8.964,3.637-8.964,8.108c0,3.916,3.602,8.108,8.964,8.108l0,0c1.339,0,2.613-0.26,3.816-0.771
					c0.287-0.123,0.619-0.124,0.906,0.001l3.271,1.441l-1.085-2.673c-0.208-0.568,0.06-1.2,0.608-1.441
					c0.147-0.065,0.303-0.098,0.462-0.098c0.451,0,0.86,0.267,1.043,0.68l2.132,5.273c0.114,0.283,0.109,0.605-0.014,0.886
					c-0.182,0.415-0.592,0.683-1.045,0.683l0,0c-0.158,0-0.313-0.032-0.458-0.097l-5.403-2.38c-0.659,0.249-1.341,0.439-2.029,0.566
					c-0.767,1.229-1.832,2.261-3.086,2.987c-1.471,0.853-3.145,1.308-4.84,1.315h-0.108c-1.146,0-2.273-0.198-3.35-0.59
					l-4.229,1.862C172.808,32.617,172.653,32.649,172.495,32.649z M186.261,6.653c-2.833,0-5.55,1.045-7.651,2.943
					c-1.833,1.638-2.972,3.887-3.208,6.334l-0.006,0.061l-0.052,0.033c-2.313,1.473-3.712,3.989-3.742,6.73
					c-0.001,1.656,0.543,3.302,1.532,4.633l0.042,0.056l-1.509,3.732c-0.089,0.221-0.086,0.463,0.007,0.682
					c0.093,0.219,0.266,0.389,0.486,0.477c0.222,0.091,0.472,0.086,0.691-0.01l4.322-1.903l0.047,0.018
					c1.063,0.393,2.177,0.592,3.311,0.592h0.108c1.651-0.008,3.282-0.451,4.716-1.282c1.234-0.715,2.281-1.734,3.027-2.949
					l0.029-0.048l0.055-0.01c0.709-0.127,1.411-0.322,2.088-0.582l0.048-0.018l0.048,0.021l5.449,2.4
					c0.113,0.05,0.233,0.075,0.357,0.075l0,0c0.354,0,0.674-0.209,0.816-0.532c0.096-0.219,0.1-0.472,0.01-0.692l-2.13-5.27
					c-0.141-0.319-0.46-0.527-0.813-0.527c-0.125,0-0.246,0.025-0.36,0.076c-0.429,0.188-0.638,0.682-0.477,1.123l1.314,3.241
					l-3.835-1.691c-0.223-0.096-0.482-0.097-0.707,0.001c-1.235,0.524-2.543,0.791-3.886,0.791c-5.541,0-9.243-4.322-9.243-8.358
					c0-4.608,4.133-8.358,9.214-8.358c5.08,0,9.214,3.75,9.214,8.358c-0.002,0.393-0.032,0.79-0.091,1.182
					c-0.042,0.237,0.01,0.474,0.146,0.669c0.137,0.195,0.341,0.325,0.575,0.367c0.503,0.087,0.948-0.246,1.032-0.723l0.006-0.032
					c0.071-0.498,0.107-0.986,0.108-1.469c-0.013-2.747-1.196-5.37-3.248-7.195c-2.103-1.898-4.82-2.944-7.652-2.944h-0.095
					L186.261,6.653z M174.143,29.811l0.882-2.185c0.125-0.309,0.067-0.657-0.148-0.911c-0.958-1.096-1.488-2.504-1.492-3.964
					c0.015-1.661,0.713-3.27,1.917-4.414l0.166-0.157l0.043,0.225c0.401,2.085,1.426,3.96,2.963,5.423
					c1.981,1.887,4.577,2.984,7.31,3.091l0.294,0.012l-0.212,0.203c-1.422,1.367-3.291,2.12-5.263,2.12h-0.075
					c-1.042-0.002-2.057-0.209-3.016-0.616c-0.228-0.1-0.483-0.099-0.709-0.001L174.143,29.811z M175.311,18.68
					c-1.055,1.085-1.663,2.556-1.677,4.073c0.004,1.397,0.512,2.748,1.431,3.8c0.277,0.326,0.35,0.773,0.19,1.168l-0.651,1.614
					l2.098-0.927c0.289-0.127,0.62-0.127,0.908,0c0.927,0.394,1.909,0.594,2.917,0.596h0.075c1.809,0,3.528-0.655,4.874-1.851
					c-2.684-0.174-5.222-1.284-7.174-3.144C176.781,22.563,175.751,20.725,175.311,18.68z"/>
			</g>
			<g>
				<circle id="Ellipse_159_1_" fill="#9B9B9B" cx="186.145" cy="16.86" r="1"/>
				<path fill="#9B9B9B" d="M186.145,17.985c-0.62,0-1.125-0.505-1.125-1.125c0-0.62,0.505-1.125,1.125-1.125
					c0.62,0,1.125,0.505,1.125,1.125C187.27,17.48,186.765,17.985,186.145,17.985z M186.145,15.985
					c-0.482,0-0.875,0.393-0.875,0.875s0.393,0.875,0.875,0.875s0.875-0.393,0.875-0.875S186.628,15.985,186.145,15.985z"/>
			</g>
			<g>
				<circle id="Ellipse_160_1_" fill="#9B9B9B" cx="191.145" cy="16.86" r="1"/>
				<path fill="#9B9B9B" d="M191.145,17.985c-0.62,0-1.125-0.505-1.125-1.125c0-0.62,0.505-1.125,1.125-1.125
					c0.62,0,1.125,0.505,1.125,1.125C192.27,17.48,191.765,17.985,191.145,17.985z M191.145,15.985
					c-0.482,0-0.875,0.393-0.875,0.875s0.393,0.875,0.875,0.875s0.875-0.393,0.875-0.875S191.628,15.985,191.145,15.985z"/>
			</g>
			<g>
				<circle id="Ellipse_161_1_" fill="#9B9B9B" cx="182.145" cy="16.86" r="1"/>
				<path fill="#9B9B9B" d="M182.145,17.985c-0.62,0-1.125-0.505-1.125-1.125c0-0.62,0.505-1.125,1.125-1.125
					c0.62,0,1.125,0.505,1.125,1.125C183.27,17.48,182.765,17.985,182.145,17.985z M182.145,15.985
					c-0.482,0-0.875,0.393-0.875,0.875s0.393,0.875,0.875,0.875s0.875-0.393,0.875-0.875S182.628,15.985,182.145,15.985z"/>
			</g>
		</g>
	</g>
</g>
<g id="notification" transform="translate(-23.272)">
	<g id="Group_1" transform="translate(23.272)">
		<path id="Path_2" fill="#9B9B9B" d="M235.198,25.511h-1.182v-9.454c-0.054-5.222-4.33-9.411-9.552-9.357
			c-5.146,0.053-9.305,4.211-9.357,9.357v9.455h-1.182c-0.653,0-1.183,0.529-1.183,1.182c0,0.653,0.529,1.182,1.183,1.182h5.908
			c0,2.611,2.117,4.729,4.728,4.729s4.728-2.117,4.728-4.729h5.909c0.653,0,1.183-0.529,1.183-1.182
			C236.381,26.041,235.852,25.512,235.198,25.511L235.198,25.511L235.198,25.511z M224.562,30.237
			c-1.306-0.001-2.363-1.059-2.364-2.364h4.728C226.923,29.178,225.866,30.236,224.562,30.237z M231.652,25.511h-14.181v-9.454
			c-0.002-3.917,3.172-7.092,7.088-7.094s7.092,3.172,7.094,7.088c0,0.002,0,0.004,0,0.006L231.652,25.511z"/>
	</g>
</g>
<g id="Group_23" transform="translate(0.25 0.25)">
	<g id="Group_16">
		<g>
			<path id="Path_15_1_" fill="#9B9B9B" d="M262.139,28.725c-5.795,0-10.508-5.007-10.508-11.162
				c0-6.156,4.713-11.162,10.508-11.162c5.793,0,10.506,5.008,10.506,11.162C272.645,23.716,267.932,28.725,262.139,28.725
				L262.139,28.725z M262.139,8.519c-4.996-0.303-9.292,3.501-9.594,8.497c-0.303,4.995,3.502,9.291,8.498,9.594
				c4.995,0.303,9.29-3.502,9.593-8.498c0.013-0.183,0.019-0.366,0.019-0.549C270.789,12.717,266.982,8.674,262.139,8.519z"/>
			<path fill="#9B9B9B" d="M262.139,28.975c-5.932,0-10.758-5.119-10.758-11.412c0-6.292,4.826-11.412,10.758-11.412
				s10.756,5.12,10.756,11.412S268.068,28.975,262.139,28.975z M262.139,6.65c-5.656,0-10.258,4.895-10.258,10.912
				s4.602,10.912,10.258,10.912c5.654,0,10.256-4.896,10.256-10.912C272.395,11.545,267.793,6.65,262.139,6.65z M261.6,26.876
				L261.6,26.876c-0.188,0-0.381-0.006-0.572-0.017c-2.48-0.151-4.758-1.26-6.405-3.121c-1.649-1.862-2.475-4.255-2.324-6.738
				c0.309-5.095,4.688-9.048,9.854-8.731c4.965,0.159,8.893,4.331,8.75,9.3c0,0.182-0.006,0.37-0.019,0.559
				C270.587,23.033,266.509,26.876,261.6,26.876z M261.581,8.751c-4.646,0-8.506,3.637-8.787,8.279
				c-0.143,2.349,0.639,4.614,2.2,6.375c1.561,1.763,3.713,2.812,6.063,2.953c4.881,0.31,9.036-3.44,9.328-8.263
				c0.012-0.179,0.018-0.356,0.018-0.534c0.136-4.702-3.575-8.644-8.271-8.794C261.941,8.757,261.76,8.751,261.581,8.751z"/>
		</g>
	</g>
	<g>
		<path id="Path_16_1_" fill="#9B9B9B" d="M268.43,24.568c-0.404,0.417-0.395,1.083,0.021,1.487
			c0.001,0.001,0.002,0.002,0.003,0.003l6.137,6.045c0.418,0.405,1.085,0.396,1.491-0.023c0.404-0.418,0.395-1.085-0.023-1.491
			l-4.8-4.644c-0.633-0.642-1.334-1.212-2.091-1.7C268.889,24.251,268.623,24.367,268.43,24.568z"/>
		<path fill="#9B9B9B" d="M275.324,32.651c-0.34,0-0.663-0.131-0.907-0.368l-6.14-6.047c-0.518-0.501-0.526-1.327-0.027-1.842
			c0.24-0.25,0.564-0.392,0.913-0.399l0.075-0.002l0.063,0.042c0.771,0.497,1.488,1.081,2.135,1.734l4.797,4.64
			c0.517,0.502,0.526,1.329,0.026,1.845C276.014,32.51,275.682,32.651,275.324,32.651z M269.102,24.5
			c-0.188,0.021-0.357,0.104-0.49,0.241c-0.309,0.318-0.303,0.827,0.017,1.135l6.144,6.05c0.307,0.296,0.836,0.289,1.137-0.02
			c0.309-0.318,0.301-0.829-0.018-1.138l-4.803-4.644C270.48,25.513,269.814,24.968,269.102,24.5z"/>
	</g>
</g>
<path fill="#FFFFFF" d="M32.281,71.846H9.492c-0.69,0-1.25-0.56-1.25-1.25V56.68c0-0.361,0.156-0.705,0.428-0.942l11.56-10.084
	c0.477-0.415,1.188-0.409,1.656,0.012l11.23,10.084c0.264,0.237,0.414,0.575,0.414,0.93v13.916
	C33.531,71.286,32.972,71.846,32.281,71.846z M10.742,69.346h20.289V57.237l-9.991-8.972l-10.298,8.983V69.346z"/>
<g id="social_1_" transform="translate(-0.05 0)">
	<g id="Group_864_1_" transform="translate(10.005 0)">
		<g id="Group_863_1_" transform="translate(0 0)">
			<path id="Path_5276_1_" fill="#FFFFFF" d="M55.199,50.08c0.797-1.756,0.021-3.825-1.735-4.622
				c-1.756-0.798-3.825-0.021-4.622,1.734c-0.797,1.756-0.021,3.825,1.735,4.622c0.917,0.417,1.97,0.417,2.887,0l4.08,4.08
				c0.215-0.354,0.471-0.683,0.763-0.977c0.292-0.291,0.619-0.546,0.973-0.759L55.199,50.08z M53.007,49.612
				c-0.543,0.543-1.423,0.543-1.966,0s-0.543-1.423,0-1.966s1.423-0.543,1.966,0c0.543,0.542,0.544,1.422,0.002,1.965
				C53.008,49.611,53.008,49.612,53.007,49.612L53.007,49.612z"/>
		</g>
	</g>
	<g id="Group_866_1_" transform="translate(6.244 16.154)">
		<g id="Group_865_1_">
			<path id="Path_5277_1_" fill="#FFFFFF" d="M58.252,49.936c-1.028-1.028-2.587-1.311-3.91-0.708l-4.08-4.08
				c-0.425,0.711-1.02,1.305-1.73,1.729l4.08,4.08c-0.799,1.753-0.025,3.822,1.728,4.621c1.753,0.799,3.821,0.025,4.62-1.728
				C59.563,52.526,59.28,50.966,58.252,49.936L58.252,49.936z M56.768,53.39c-0.543,0.542-1.423,0.542-1.966-0.001
				c-0.543-0.542-0.543-1.423,0-1.965c0.543-0.543,1.423-0.543,1.966,0c0.543,0.542,0.544,1.421,0.002,1.964
				C56.769,53.389,56.769,53.389,56.768,53.39z"/>
		</g>
	</g>
	<g id="Group_868_1_" transform="translate(16.204 9.954)">
		<g id="Group_867_1_">
			<path id="Path_5278_1_" fill="#FFFFFF" d="M58.252,46.16c-1.365-1.359-3.574-1.355-4.935,0.01
				c-1.024,1.028-1.306,2.584-0.705,3.905l-4.08,4.08c0.711,0.425,1.306,1.02,1.73,1.73l4.08-4.08
				c1.754,0.798,3.822,0.023,4.621-1.73C59.566,48.75,59.283,47.189,58.252,46.16L58.252,46.16z M56.768,49.619
				c-0.543,0.543-1.423,0.543-1.966,0c-0.543-0.543-0.542-1.423,0-1.966c0.543-0.542,1.423-0.542,1.966,0
				c0.544,0.541,0.547,1.421,0.006,1.965c-0.002,0.002-0.004,0.004-0.006,0.006V49.619z"/>
		</g>
	</g>
	<g id="Group_870_1_" transform="translate(0.05 6.199)">
		<g id="Group_869_1_" transform="translate(0)">
			<path id="Path_5279_1_" fill="#FFFFFF" d="M59.273,46.878c-0.711-0.425-1.306-1.019-1.73-1.729l-4.08,4.08
				c-1.753-0.798-3.82-0.023-4.618,1.729c-0.797,1.753-0.022,3.821,1.73,4.618c1.753,0.798,3.82,0.023,4.618-1.729
				c0.417-0.918,0.417-1.971,0-2.889L59.273,46.878z M53.001,53.378c-0.543,0.543-1.423,0.543-1.966,0s-0.543-1.423,0-1.966
				c0.543-0.542,1.423-0.542,1.966,0c0.544,0.542,0.545,1.421,0.004,1.965C53.004,53.378,53.003,53.379,53.001,53.378L53.001,53.378
				z"/>
		</g>
	</g>
</g>
<g id="suitcase_1_" transform="translate(0.125 -28.319)">
	<g id="Group_13_1_" transform="translate(0 32.316)">
		<g id="Group_12_1_" transform="translate(0 0)">
			<g>
				<path id="Path_45_2_" fill="#FFFFFF" d="M114.766,46.917H92.454c-1.001-0.018-1.826,0.779-1.844,1.78c0,0.013,0,0.025,0,0.038
					v15.6c-0.003,1.001,0.805,1.815,1.806,1.818c0.013,0,0.025,0,0.039,0h22.312c1,0.018,1.826-0.779,1.844-1.78
					c0-0.012,0-0.023,0-0.035v-15.6c0.006-1.001-0.802-1.816-1.803-1.821C114.793,46.917,114.78,46.917,114.766,46.917z
					 M114.766,64.337H92.454l-0.014-15.6h22.326V64.337L114.766,64.337z"/>
				<path fill="#FFFFFF" d="M114.798,66.278L114.798,66.278H92.416c-0.518-0.002-1.003-0.205-1.368-0.572
					c-0.364-0.367-0.564-0.854-0.563-1.371V48.692c0.019-1.047,0.887-1.901,1.936-1.901h0.035h22.351
					c0.519,0.002,1.004,0.207,1.368,0.574c0.363,0.368,0.563,0.855,0.56,1.373v15.634C116.716,65.424,115.848,66.278,114.798,66.278
					z M92.421,47.041c-0.914,0-1.67,0.744-1.686,1.658v0.036v15.6c-0.001,0.451,0.172,0.876,0.49,1.195
					c0.317,0.32,0.74,0.497,1.191,0.498h22.382c0.914,0,1.671-0.743,1.687-1.657V48.738c0.003-0.451-0.171-0.876-0.487-1.196
					c-0.317-0.32-0.74-0.498-1.191-0.5L92.421,47.041z M114.891,64.462H92.329l-0.014-15.85h22.576V64.462L114.891,64.462z
					 M92.579,64.212h22.062v-15.35H92.565L92.579,64.212z"/>
			</g>
		</g>
	</g>
	<g id="Group_15_1_" transform="translate(0.993 38.457)">
		<g id="Group_14_1_" transform="translate(0 0)">
			<g>
				<rect id="Rectangle_28_2_" x="90.61" y="46.917" fill="#FFFFFF" width="24.014" height="1.985"/>
				<path fill="#FFFFFF" d="M114.749,49.028H90.485v-2.235h24.264V49.028z M90.735,48.778h23.764v-1.735H90.735V48.778z"/>
			</g>
		</g>
	</g>
	<g id="Group_19_1_" transform="translate(6.943 28.444)">
		<g id="Group_18_1_" transform="translate(0 0)">
			<g>
				<path id="Path_47_2_" fill="#FFFFFF" d="M100.407,46.917h-7.48c-1.279,0.001-2.315,1.038-2.317,2.317v2.548h1.986v-2.548
					c0.002-0.182,0.149-0.329,0.331-0.331h7.48c0.182,0.002,0.328,0.149,0.33,0.331v2.548h1.986v-2.548
					C102.722,47.955,101.686,46.918,100.407,46.917z"/>
				<path fill="#FFFFFF" d="M102.849,51.907h-2.236v-2.673c-0.001-0.112-0.094-0.205-0.206-0.206h-7.479
					c-0.111,0.001-0.205,0.094-0.206,0.208v2.671h-2.236v-2.673c0.001-1.346,1.097-2.441,2.442-2.442h7.48
					c1.344,0.002,2.439,1.098,2.441,2.442V51.907z M100.862,51.657h1.736v-2.423c-0.002-1.207-0.985-2.19-2.191-2.192h-7.48
					c-1.207,0.001-2.19,0.984-2.192,2.192v2.423h1.736v-2.423c0.002-0.25,0.207-0.454,0.454-0.456h7.482
					c0.249,0.002,0.452,0.207,0.455,0.455V51.657z"/>
			</g>
		</g>
	</g>
</g>
<g id="open-book_1_" transform="translate(0.125 -19.823)">
	<g id="Group_11_1_" transform="translate(0 20.114)">
		<g>
			<path id="Path_44_2_" fill="#FFFFFF" d="M157.415,48.469c-3.771-2.521-8.653-2.652-12.555-0.339
				c-3.901-2.313-8.784-2.182-12.555,0.339c-0.278,0.188-0.445,0.499-0.445,0.834V69.12c0,0.553,0.447,1.001,0.999,1.001
				c0.198,0,0.391-0.058,0.556-0.168c3.295-2.205,7.595-2.205,10.89,0c0.013,0.009,0.028,0.011,0.041,0.019
				c0.013,0.009,0.027,0.022,0.042,0.031c0.035,0.016,0.071,0.028,0.107,0.039c0.037,0.017,0.074,0.03,0.112,0.042
				c0.055,0.013,0.111,0.021,0.168,0.025c0.029,0,0.056,0.012,0.085,0.012h0.025c0.034-0.002,0.067-0.007,0.1-0.013
				c0.051-0.005,0.101-0.015,0.15-0.027c0.034-0.011,0.067-0.024,0.1-0.039c0.031-0.013,0.064-0.02,0.094-0.036
				c0.014-0.008,0.025-0.02,0.039-0.028c0.014-0.01,0.03-0.013,0.044-0.021c3.296-2.205,7.595-2.205,10.89,0
				c0.459,0.309,1.08,0.187,1.389-0.271c0.111-0.167,0.171-0.363,0.17-0.563v-19.82C157.86,48.968,157.694,48.656,157.415,48.469z
				 M143.86,67.412c-3.168-1.485-6.832-1.485-10,0V49.855c3.082-1.831,6.918-1.831,10,0V67.412z M155.86,67.412
				c-3.168-1.485-6.832-1.485-10,0V49.855c3.082-1.831,6.918-1.831,10,0V67.412z"/>
			<path fill="#FFFFFF" d="M156.859,70.251L156.859,70.251c-0.224,0-0.44-0.066-0.627-0.192c-1.597-1.067-3.455-1.633-5.375-1.633
				c-1.921,0-3.779,0.565-5.376,1.633l-0.09,0.055c-0.027,0.016-0.054,0.024-0.081,0.033c-0.061,0.025-0.099,0.041-0.138,0.053
				c-0.062,0.017-0.118,0.027-0.176,0.032c-0.028,0.006-0.066,0.012-0.104,0.014h-0.032c-0.027,0-0.051-0.005-0.068-0.009
				c-0.089-0.008-0.151-0.018-0.213-0.031c-0.052-0.016-0.095-0.031-0.136-0.05c-0.025-0.007-0.066-0.021-0.106-0.039l-0.052-0.034
				c-0.012-0.006-0.03-0.013-0.05-0.025c-1.596-1.068-3.455-1.634-5.375-1.634s-3.779,0.565-5.375,1.633
				c-0.433,0.29-1.05,0.231-1.421-0.141c-0.212-0.213-0.329-0.495-0.329-0.796V49.303c0-0.377,0.187-0.728,0.5-0.938
				c1.965-1.313,4.253-2.007,6.617-2.007c2.111,0,4.187,0.563,6.008,1.627c1.821-1.065,3.897-1.627,6.008-1.627
				c2.364,0,4.651,0.694,6.616,2.007c0.313,0.209,0.501,0.56,0.501,0.938V69.12c0.001,0.225-0.064,0.443-0.19,0.633
				C157.583,70.065,157.235,70.251,156.859,70.251z M144.785,69.984c0.019,0,0.041,0.005,0.058,0.009l0.042,0.128l-0.007-0.125
				c0.029-0.001,0.057-0.006,0.085-0.011c0.054-0.006,0.098-0.015,0.141-0.025c0.023-0.008,0.052-0.02,0.08-0.032
				c0.018-0.007,0.033-0.013,0.048-0.018c0.012-0.004,0.025-0.008,0.037-0.014c0.012-0.011,0.021-0.018,0.031-0.024l0.044-0.022
				c1.635-1.093,3.542-1.673,5.512-1.673c1.97,0,3.877,0.58,5.514,1.676c0.39,0.262,0.956,0.149,1.216-0.238
				c0.098-0.146,0.149-0.317,0.148-0.492v-19.82c0-0.294-0.146-0.567-0.39-0.73c-1.924-1.286-4.163-1.965-6.478-1.965
				c-2.09,0-4.146,0.563-5.944,1.63l-0.064,0.038l-0.064-0.038c-1.798-1.066-3.854-1.63-5.944-1.63c-2.314,0-4.554,0.68-6.478,1.965
				c-0.244,0.164-0.39,0.437-0.389,0.73V69.12c0,0.234,0.091,0.454,0.256,0.619c0.289,0.29,0.768,0.334,1.105,0.11
				c1.637-1.096,3.544-1.676,5.514-1.676c1.97,0,3.877,0.58,5.514,1.676c0.005,0,0.021,0.005,0.037,0.016l0.031,0.022
				c0.027,0.015,0.057,0.025,0.088,0.034c0.048,0.021,0.081,0.032,0.113,0.043c0.04,0.009,0.09,0.017,0.14,0.02
				C144.784,69.984,144.785,69.984,144.785,69.984z M155.985,67.608l-0.178-0.083c-1.538-0.721-3.249-1.103-4.947-1.103
				c-1.698,0-3.409,0.382-4.947,1.103l-0.178,0.083V49.784l0.062-0.036c1.531-0.91,3.282-1.391,5.063-1.391
				c1.781,0,3.532,0.481,5.063,1.391l0.062,0.036V67.608z M150.86,66.172c1.67,0,3.351,0.36,4.875,1.044v-17.29
				c-1.479-0.863-3.162-1.32-4.875-1.32c-1.713,0-3.396,0.457-4.875,1.32v17.29C147.509,66.533,149.19,66.172,150.86,66.172z
				 M143.985,67.608l-0.178-0.083c-1.538-0.721-3.249-1.103-4.947-1.103c-1.698,0-3.409,0.382-4.947,1.103l-0.178,0.083V49.784
				l0.061-0.036c1.532-0.91,3.283-1.391,5.064-1.391c1.781,0,3.532,0.481,5.064,1.391l0.061,0.036V67.608z M133.985,49.926v17.29
				c1.524-0.684,3.206-1.044,4.875-1.044s3.351,0.36,4.875,1.044v-17.29c-1.479-0.863-3.162-1.32-4.875-1.32
				C137.147,48.606,135.463,49.063,133.985,49.926z"/>
		</g>
	</g>
</g>
<g id="chat_1_" transform="translate(0.14 0.125)">
	<g id="Group_879_1_" transform="translate(0 0)">
		<g id="Group_878_1_">
			<g>
				<path id="Path_5280_2_" fill="#FFFFFF" d="M196.887,61.041c-0.227-0.514-0.826-0.746-1.34-0.519
					c-0.49,0.216-0.728,0.776-0.543,1.28l1.2,2.959l-3.553-1.566c-0.257-0.111-0.55-0.111-0.808,0
					c-1.222,0.52-2.537,0.785-3.865,0.781c-5.437,0-9.089-4.258-9.089-8.233c0-4.54,4.077-8.233,9.089-8.233
					c5.013,0,9.089,3.693,9.089,8.233c-0.002,0.389-0.032,0.778-0.09,1.163c-0.098,0.552,0.271,1.08,0.824,1.177
					c0.553,0.097,1.079-0.271,1.177-0.824c0.004-0.018,0.006-0.036,0.009-0.054c0.07-0.486,0.106-0.977,0.107-1.469
					c-0.013-2.787-1.208-5.437-3.29-7.289c-2.146-1.938-4.94-2.999-7.831-2.975c-2.891-0.024-5.686,1.038-7.831,2.975
					c-1.851,1.654-3.01,3.944-3.248,6.415c-2.34,1.49-3.77,4.061-3.8,6.835c-0.001,1.696,0.545,3.347,1.557,4.708l-1.482,3.667
					c-0.21,0.521,0.042,1.112,0.563,1.321c0.254,0.104,0.538,0.099,0.788-0.012l4.275-1.883c1.084,0.4,2.231,0.604,3.387,0.6
					c0.025,0,0.05,0,0.075,0c1.679-0.008,3.326-0.457,4.778-1.299c1.256-0.728,2.312-1.756,3.071-2.992
					c0.721-0.129,1.427-0.326,2.11-0.588l5.449,2.4c0.514,0.226,1.113-0.008,1.339-0.521c0.109-0.25,0.114-0.535,0.012-0.789
					L196.887,61.041z M182.185,68.073h-0.041c-1.02-0.002-2.028-0.208-2.967-0.606c-0.258-0.112-0.55-0.112-0.808,0l-2.379,1.051
					l0.767-1.899c0.142-0.351,0.076-0.751-0.169-1.039c-0.939-1.075-1.458-2.454-1.462-3.883c0.015-1.636,0.692-3.196,1.878-4.323
					c0.403,2.098,1.452,4.018,3,5.49c2.001,1.906,4.629,3.018,7.391,3.125C185.995,67.334,184.127,68.082,182.185,68.073z"/>
				<path fill="#FFFFFF" d="M174.111,71.594c-0.147,0-0.291-0.028-0.427-0.083c-0.282-0.113-0.503-0.33-0.623-0.61
					c-0.12-0.281-0.123-0.591-0.008-0.874l1.456-3.603c-0.994-1.363-1.541-3.038-1.54-4.726c0.031-2.808,1.452-5.385,3.807-6.908
					c0.255-2.486,1.419-4.77,3.283-6.436c2.147-1.939,4.924-3.007,7.819-3.007h0.097h0.095c2.895,0,5.671,1.068,7.819,3.008
					c2.104,1.872,3.318,4.563,3.331,7.381c-0.001,0.495-0.037,0.995-0.108,1.487l-0.011,0.062c-0.106,0.606-0.689,1.033-1.32,0.92
					c-0.301-0.053-0.563-0.22-0.737-0.47c-0.175-0.25-0.241-0.552-0.188-0.853c0.057-0.376,0.086-0.762,0.088-1.142
					c0-4.47-4.021-8.107-8.964-8.107c-4.943,0-8.964,3.637-8.964,8.108c0,3.916,3.602,8.108,8.964,8.108l0,0
					c1.339,0,2.613-0.26,3.816-0.771c0.287-0.123,0.619-0.124,0.906,0.001l3.271,1.441l-1.085-2.673
					c-0.208-0.568,0.06-1.2,0.608-1.441c0.147-0.065,0.303-0.098,0.462-0.098c0.451,0,0.86,0.267,1.043,0.68l2.132,5.273
					c0.114,0.283,0.109,0.605-0.014,0.886c-0.182,0.415-0.592,0.683-1.045,0.683l0,0c-0.158,0-0.313-0.032-0.458-0.097l-5.403-2.38
					c-0.659,0.249-1.341,0.439-2.029,0.566c-0.767,1.229-1.832,2.261-3.086,2.987c-1.471,0.853-3.145,1.308-4.84,1.315h-0.108
					c-1.146,0-2.273-0.198-3.35-0.59l-4.229,1.862C174.424,71.562,174.27,71.594,174.111,71.594z M187.878,45.598
					c-2.833,0-5.55,1.045-7.651,2.943c-1.833,1.638-2.972,3.887-3.208,6.334l-0.006,0.061l-0.052,0.033
					c-2.313,1.473-3.712,3.989-3.742,6.73c-0.001,1.656,0.543,3.302,1.532,4.633l0.042,0.056l-1.509,3.732
					c-0.089,0.221-0.086,0.463,0.007,0.682c0.093,0.219,0.266,0.389,0.486,0.477c0.222,0.091,0.472,0.086,0.691-0.01l4.322-1.903
					l0.047,0.018c1.063,0.393,2.177,0.592,3.311,0.592h0.108c1.651-0.008,3.282-0.451,4.716-1.282
					c1.234-0.715,2.281-1.734,3.027-2.949l0.029-0.048l0.055-0.01c0.709-0.127,1.411-0.322,2.088-0.582l0.048-0.018l0.048,0.021
					l5.449,2.4c0.113,0.05,0.233,0.075,0.357,0.075l0,0c0.354,0,0.674-0.209,0.816-0.532c0.096-0.219,0.1-0.472,0.01-0.692
					l-2.13-5.27c-0.141-0.319-0.46-0.527-0.813-0.527c-0.125,0-0.246,0.025-0.36,0.076c-0.429,0.188-0.638,0.682-0.477,1.123
					l1.314,3.241l-3.835-1.691c-0.223-0.096-0.482-0.097-0.707,0.001c-1.235,0.524-2.543,0.791-3.886,0.791
					c-5.541,0-9.243-4.322-9.243-8.358c0-4.608,4.133-8.358,9.214-8.358c5.08,0,9.214,3.75,9.214,8.358
					c-0.002,0.393-0.032,0.79-0.091,1.182c-0.042,0.237,0.01,0.474,0.146,0.669c0.137,0.195,0.341,0.325,0.575,0.367
					c0.503,0.087,0.948-0.246,1.032-0.723l0.006-0.032c0.071-0.498,0.107-0.986,0.108-1.469c-0.013-2.747-1.196-5.37-3.248-7.195
					c-2.103-1.898-4.82-2.944-7.652-2.944h-0.095L187.878,45.598z M175.759,68.756l0.882-2.185c0.125-0.309,0.067-0.657-0.148-0.911
					c-0.958-1.096-1.488-2.504-1.492-3.964c0.015-1.661,0.713-3.27,1.917-4.414l0.166-0.157l0.043,0.225
					c0.401,2.085,1.426,3.96,2.963,5.423c1.981,1.887,4.577,2.984,7.31,3.091l0.294,0.012l-0.212,0.203
					c-1.422,1.367-3.291,2.12-5.263,2.12h-0.075c-1.042-0.002-2.057-0.209-3.016-0.616c-0.228-0.1-0.483-0.099-0.709-0.001
					L175.759,68.756z M176.928,57.625c-1.055,1.085-1.663,2.556-1.677,4.073c0.004,1.397,0.512,2.748,1.431,3.8
					c0.277,0.326,0.35,0.773,0.19,1.168l-0.651,1.614l2.098-0.927c0.289-0.127,0.62-0.127,0.908,0
					c0.927,0.394,1.909,0.594,2.917,0.596h0.075c1.809,0,3.528-0.655,4.874-1.851c-2.684-0.174-5.222-1.284-7.174-3.144
					C178.398,61.508,177.368,59.67,176.928,57.625z"/>
			</g>
			<g>
				<circle id="Ellipse_159_2_" fill="#FFFFFF" cx="187.762" cy="55.805" r="1"/>
				<path fill="#FFFFFF" d="M187.762,56.93c-0.62,0-1.125-0.505-1.125-1.125c0-0.62,0.505-1.125,1.125-1.125
					c0.62,0,1.125,0.505,1.125,1.125C188.887,56.425,188.382,56.93,187.762,56.93z M187.762,54.93c-0.482,0-0.875,0.393-0.875,0.875
					s0.393,0.875,0.875,0.875s0.875-0.393,0.875-0.875S188.244,54.93,187.762,54.93z"/>
			</g>
			<g>
				<circle id="Ellipse_160_2_" fill="#FFFFFF" cx="192.762" cy="55.805" r="1"/>
				<path fill="#FFFFFF" d="M192.762,56.93c-0.62,0-1.125-0.505-1.125-1.125c0-0.62,0.505-1.125,1.125-1.125
					c0.62,0,1.125,0.505,1.125,1.125C193.887,56.425,193.382,56.93,192.762,56.93z M192.762,54.93c-0.482,0-0.875,0.393-0.875,0.875
					s0.393,0.875,0.875,0.875s0.875-0.393,0.875-0.875S193.244,54.93,192.762,54.93z"/>
			</g>
			<g>
				<circle id="Ellipse_161_2_" fill="#FFFFFF" cx="183.762" cy="55.805" r="1"/>
				<path fill="#FFFFFF" d="M183.762,56.93c-0.62,0-1.125-0.505-1.125-1.125c0-0.62,0.505-1.125,1.125-1.125
					c0.62,0,1.125,0.505,1.125,1.125C184.887,56.425,184.382,56.93,183.762,56.93z M183.762,54.93c-0.482,0-0.875,0.393-0.875,0.875
					s0.393,0.875,0.875,0.875s0.875-0.393,0.875-0.875S184.244,54.93,183.762,54.93z"/>
			</g>
		</g>
	</g>
</g>
<g id="notification_1_" transform="translate(-23.272)">
	<g id="Group_1_1_" transform="translate(23.272)">
		<path id="Path_2_1_" fill="#FFFFFF" d="M236.815,64.456h-1.182v-9.454c-0.054-5.222-4.33-9.411-9.552-9.357
			c-5.146,0.053-9.305,4.211-9.357,9.357v9.455h-1.182c-0.653,0-1.183,0.529-1.183,1.182c0,0.653,0.529,1.182,1.183,1.182h5.908
			c0,2.611,2.117,4.729,4.728,4.729c2.611,0,4.728-2.117,4.728-4.729h5.909c0.653,0,1.183-0.529,1.183-1.182
			C237.998,64.986,237.468,64.457,236.815,64.456L236.815,64.456L236.815,64.456z M226.178,69.182
			c-1.306-0.001-2.363-1.059-2.364-2.364h4.728C228.54,68.123,227.483,69.181,226.178,69.182z M233.269,64.456h-14.181v-9.454
			c-0.002-3.917,3.172-7.092,7.088-7.094s7.092,3.172,7.094,7.088c0,0.002,0,0.004,0,0.006L233.269,64.456z"/>
	</g>
</g>
<g id="Group_23_1_" transform="translate(0.25 0.25)">
	<g id="Group_16_1_">
		<g>
			<path id="Path_15_2_" fill="#FFFFFF" d="M263.754,67.669c-5.793,0-10.506-5.007-10.506-11.162
				c0-6.156,4.713-11.162,10.506-11.162c5.795,0,10.508,5.008,10.508,11.162C274.262,62.661,269.547,67.669,263.754,67.669
				L263.754,67.669z M263.754,47.463c-4.994-0.303-9.29,3.501-9.592,8.497c-0.303,4.995,3.502,9.291,8.497,9.594
				c4.995,0.303,9.291-3.502,9.594-8.498c0.013-0.183,0.019-0.366,0.019-0.549C272.406,51.662,268.6,47.619,263.754,47.463z"/>
			<path fill="#FFFFFF" d="M263.754,67.919c-5.93,0-10.756-5.119-10.756-11.412c0-6.292,4.827-11.412,10.756-11.412
				c5.932,0,10.758,5.12,10.758,11.412C274.512,62.8,269.686,67.919,263.754,67.919z M263.754,45.595
				c-5.654,0-10.256,4.895-10.256,10.912c0,6.017,4.602,10.912,10.256,10.912c5.656,0,10.258-4.896,10.258-10.912
				C274.012,50.49,269.41,45.595,263.754,45.595z M263.217,65.821h-0.002c-0.189,0-0.379-0.006-0.57-0.017
				c-2.481-0.151-4.76-1.26-6.409-3.121c-1.649-1.862-2.475-4.255-2.324-6.738c0.309-5.095,4.689-9.048,9.857-8.731
				c4.961,0.159,8.89,4.331,8.75,9.3c0,0.182-0.006,0.37-0.021,0.559C272.203,61.978,268.125,65.821,263.217,65.821z
				 M263.197,47.696c-4.646,0-8.505,3.637-8.787,8.279c-0.143,2.349,0.639,4.614,2.199,6.375c1.562,1.763,3.713,2.812,6.063,2.953
				c4.882,0.31,9.035-3.44,9.328-8.263c0.014-0.179,0.02-0.356,0.02-0.534c0.133-4.702-3.578-8.644-8.272-8.794
				C263.559,47.702,263.377,47.696,263.197,47.696z"/>
		</g>
	</g>
	<g>
		<path id="Path_16_2_" fill="#FFFFFF" d="M270.047,63.513c-0.404,0.417-0.395,1.083,0.021,1.487c0,0.001,0.002,0.002,0.002,0.003
			l6.137,6.045c0.418,0.405,1.086,0.396,1.492-0.023c0.404-0.418,0.395-1.085-0.023-1.491l-4.801-4.644
			c-0.633-0.642-1.334-1.212-2.09-1.7C270.506,63.196,270.24,63.312,270.047,63.513z"/>
		<path fill="#FFFFFF" d="M276.941,71.596c-0.34,0-0.664-0.131-0.908-0.368l-6.139-6.047c-0.519-0.501-0.527-1.327-0.027-1.842
			c0.24-0.25,0.564-0.392,0.912-0.399l0.076-0.002l0.063,0.042c0.771,0.497,1.488,1.081,2.133,1.734l4.799,4.64
			c0.517,0.502,0.527,1.329,0.027,1.845C277.631,71.455,277.297,71.596,276.941,71.596z M270.717,63.445
			c-0.186,0.021-0.359,0.104-0.49,0.241c-0.309,0.318-0.301,0.827,0.019,1.135l6.142,6.05c0.309,0.296,0.838,0.289,1.139-0.02
			c0.309-0.318,0.301-0.829-0.021-1.138l-4.801-4.644C272.098,64.458,271.432,63.913,270.717,63.445z"/>
	</g>
</g>
<g id="video-camera" transform="translate(0 -21.802)">
	<g id="Group_10" transform="translate(0 21.802)">
		<g id="Group_9" transform="translate(0 0)">
			<path id="Path_40" fill="#9B9B9B" d="M339.188,120.838c-0.451-0.78-1.451-1.045-2.23-0.593c-0.009,0.005-0.021,0.011-0.028,0.017
				l-5.48,3.173l-1.396,0.817v7.596l1.298,0.77c0.05,0,0.05,0.047,0.1,0.047l5.384,3.125c0.264,0.194,0.586,0.296,0.913,0.288
				c0.896,0.007,1.627-0.712,1.635-1.607c0-0.008,0-0.018,0-0.027v-6.442l0.048-6.347
				C339.442,121.363,339.358,121.075,339.188,120.838z"/>
			<path id="Path_41" fill="#9B9B9B" d="M307.168,118.382c4.274,0,7.738-3.466,7.738-7.741s-3.466-7.74-7.74-7.739
				c-4.273,0.001-7.74,3.466-7.739,7.741c0,0.001,0,0.002,0,0.003c-0.001,4.272,3.464,7.736,7.735,7.736
				C307.164,118.382,307.165,118.382,307.168,118.382z M307.168,107.469c1.753,0,3.173,1.421,3.173,3.173
				c0,1.753-1.42,3.173-3.173,3.173c-1.752,0-3.174-1.42-3.174-3.173l0,0c-0.032-1.717,1.333-3.136,3.051-3.169
				c0.041,0,0.083,0,0.123,0V107.469L307.168,107.469z"/>
			<path id="Path_42" fill="#9B9B9B" d="M326.782,118.82c-1.281,0.654-2.697,1-4.135,1.009c-1.777,0.009-3.52-0.51-5-1.49h-5.483
				c-1.482,0.98-3.223,1.499-4.999,1.49c-1.44,0.015-2.862-0.333-4.136-1.009c-1.15,0.667-1.863,1.891-1.875,3.22v11.73
				c0.009,2.146,1.746,3.883,3.891,3.893h19.769c2.146-0.01,3.883-1.747,3.892-3.893v-11.73
				C328.653,120.71,327.93,119.497,326.782,118.82z"/>
			<path id="Path_43" fill="#9B9B9B" d="M322.647,118.382c4.272,0,7.738-3.465,7.738-7.74c0-4.274-3.466-7.74-7.738-7.74
				c-4.274,0-7.74,3.465-7.74,7.74c-0.002,4.272,3.459,7.737,7.729,7.74C322.642,118.382,322.644,118.382,322.647,118.382z
				 M322.647,107.469c1.752,0,3.174,1.421,3.174,3.173c0,1.753-1.422,3.173-3.174,3.173c-1.754,0-3.175-1.42-3.175-3.173l0,0
				c0-1.75,1.42-3.169,3.17-3.169c0.001,0,0.004,0,0.005,0V107.469z"/>
		</g>
	</g>
</g>
<g id="google-docs" transform="translate(-61)">
	<path id="Path_15" fill="#9B9B9B" d="M252.038,137.511h23.438c1.94-0.001,3.513-1.574,3.515-3.515V109.23h-8.203
		c-1.94-0.002-3.513-1.575-3.515-3.516V97.51h-15.235c-1.94,0.002-3.513,1.575-3.515,3.516v32.969
		C248.525,135.937,250.098,137.509,252.038,137.511z M256.726,113.995h14.062c0.648,0,1.173,0.525,1.173,1.172
		c0,0.648-0.525,1.172-1.173,1.172h-14.061c-0.648,0-1.172-0.524-1.172-1.172C255.555,114.52,256.079,113.995,256.726,113.995
		L256.726,113.995z M256.726,118.683h14.062c0.648,0,1.173,0.524,1.173,1.172c0,0.647-0.525,1.172-1.173,1.172h-14.061
		c-0.648,0-1.172-0.524-1.172-1.172S256.079,118.683,256.726,118.683L256.726,118.683z M256.726,123.369h14.062
		c0.648,0,1.173,0.525,1.173,1.173c0,0.647-0.525,1.172-1.173,1.172h-14.061c-0.648,0-1.172-0.525-1.172-1.172
		S256.079,123.369,256.726,123.369L256.726,123.369z M256.726,128.057h9.375c0.646,0,1.172,0.524,1.172,1.172
		c0,0.646-0.526,1.172-1.172,1.172h-9.374c-0.648,0-1.172-0.525-1.172-1.172C255.555,128.581,256.079,128.057,256.726,128.057
		L256.726,128.057z"/>
	<path id="Path_16" fill="#9B9B9B" d="M270.616,107.083h7.674l-8.872-8.871v7.674C269.42,106.547,269.955,107.083,270.616,107.083z"
		/>
</g>
<g id="gif" transform="translate(-95.461 -146.861)">
	<path id="Path_18" fill="#9B9B9B" d="M369.75,253.421c-0.322-0.412-0.918-0.485-1.332-0.162c-0.41,0.322-0.484,0.918-0.16,1.331
		c0.36,0.46,0.701,0.944,1.014,1.437c0.274,0.447,0.857,0.587,1.306,0.315c0.444-0.272,0.586-0.855,0.313-1.303
		c-0.006-0.009-0.013-0.019-0.018-0.027C370.525,254.467,370.148,253.928,369.75,253.421z"/>
	<path id="Path_19" fill="#9B9B9B" d="M367.162,279.69c0.38,0.361,0.979,0.347,1.34-0.031c0-0.001,0-0.001,0.002-0.001
		c0.443-0.469,0.873-0.964,1.271-1.476c0.321-0.414,0.248-1.009-0.166-1.331c-0.412-0.321-1.008-0.247-1.328,0.165l0,0
		c-0.356,0.462-0.748,0.911-1.15,1.333C366.77,278.729,366.783,279.329,367.162,279.69c0.002,0,0.002,0,0.002,0H367.162z"/>
	<path id="Path_20" fill="#9B9B9B" d="M363.805,280.975c-0.488,0.321-1,0.623-1.518,0.889c-0.467,0.242-0.645,0.814-0.402,1.278
		c0.241,0.465,0.813,0.644,1.277,0.403c0.574-0.3,1.139-0.631,1.682-0.985c0.438-0.287,0.561-0.875,0.273-1.312
		c-0.287-0.438-0.874-0.561-1.311-0.274L363.805,280.975z"/>
	<path id="Path_21" fill="#9B9B9B" d="M360.665,246.878c-0.608-0.218-1.235-0.411-1.865-0.568c-0.509-0.126-1.022,0.182-1.151,0.689
		c-0.127,0.508,0.185,1.022,0.689,1.15c0.566,0.143,1.135,0.314,1.684,0.513c0.491,0.176,1.035-0.078,1.213-0.571
		C361.41,247.598,361.154,247.056,360.665,246.878L360.665,246.878z"/>
	<path id="Path_22" fill="#9B9B9B" d="M366.419,250.045c-0.503-0.405-1.035-0.79-1.576-1.143c-0.438-0.286-1.026-0.162-1.313,0.276
		c-0.285,0.438-0.16,1.026,0.277,1.312l0,0c0.488,0.32,0.969,0.667,1.42,1.033c0.408,0.328,1.006,0.263,1.334-0.145
		c0.328-0.408,0.263-1.004-0.146-1.333H366.419z"/>
	<path id="Path_23" fill="#9B9B9B" d="M372.844,259.217c-0.172-0.495-0.714-0.757-1.208-0.585c-0.495,0.172-0.756,0.712-0.585,1.207
		c0.192,0.553,0.355,1.121,0.491,1.689c0.121,0.51,0.632,0.825,1.142,0.704c0.51-0.122,0.823-0.632,0.703-1.142
		C373.238,260.458,373.054,259.831,372.844,259.217z"/>
	<path id="Path_24" fill="#9B9B9B" d="M373.818,267.706c0.063-0.642,0.097-1.296,0.097-1.949v-0.036
		c0-0.523-0.425-0.948-0.947-0.948s-0.948,0.424-0.948,0.948v0.04c0,0.587-0.029,1.179-0.088,1.76
		c-0.054,0.521,0.329,0.984,0.85,1.035l0,0c0.031,0,0.063,0.004,0.096,0.004C373.361,268.562,373.773,268.192,373.818,267.706z"/>
	<path id="Path_25" fill="#9B9B9B" d="M346.219,249.2c0.132,0,0.262-0.028,0.382-0.081c0.533-0.235,1.088-0.444,1.644-0.628
		c0.497-0.162,0.769-0.698,0.606-1.195s-0.697-0.769-1.195-0.606c-0.615,0.201-1.228,0.435-1.819,0.696
		c-0.479,0.213-0.694,0.773-0.482,1.252C345.507,248.979,345.846,249.199,346.219,249.2L346.219,249.2z"/>
	<path id="Path_26" fill="#9B9B9B" d="M372.268,271.064c-0.494-0.17-1.035,0.094-1.205,0.589l0,0
		c-0.188,0.552-0.408,1.102-0.65,1.633c-0.221,0.476-0.012,1.039,0.465,1.257c0.477,0.218,1.039,0.01,1.257-0.466
		c0.269-0.589,0.515-1.197,0.726-1.809C373.025,271.773,372.762,271.234,372.268,271.064z"/>
	<path id="Path_27" fill="#9B9B9B" d="M345.024,281.593c-0.456-0.257-1.034-0.096-1.291,0.361c-0.256,0.456-0.095,1.034,0.361,1.29
		c0.564,0.318,1.151,0.611,1.743,0.871c0.479,0.209,1.038-0.008,1.249-0.487c0.21-0.479-0.008-1.039-0.487-1.249l0,0
		C346.065,282.145,345.534,281.878,345.024,281.593z"/>
	<path id="Path_28" fill="#9B9B9B" d="M335.911,272.281c-0.483,0.202-0.71,0.757-0.509,1.24c0,0.001,0.001,0.003,0.002,0.005
		c0.251,0.596,0.534,1.186,0.844,1.755c0.25,0.46,0.825,0.631,1.285,0.381c0.46-0.25,0.631-0.825,0.381-1.285
		c-0.279-0.514-0.533-1.048-0.762-1.586C336.95,272.308,336.395,272.081,335.911,272.281c0,0.002-0.002,0.002-0.004,0.002
		L335.911,272.281z"/>
	<path id="Path_29" fill="#9B9B9B" d="M355.816,284.749c0.074,0.519,0.558,0.876,1.074,0.8h0.002
		c0.642-0.096,1.283-0.225,1.91-0.384c0.508-0.128,0.814-0.644,0.688-1.151c-0.13-0.508-0.646-0.815-1.151-0.687
		c-0.566,0.143-1.146,0.26-1.727,0.346C356.096,283.751,355.74,284.232,355.816,284.749z"/>
	<path id="Path_30" fill="#9B9B9B" d="M333.92,267.106c0.042,0.647,0.118,1.298,0.225,1.934c0.059,0.52,0.527,0.894,1.047,0.836
		c0.521-0.058,0.895-0.528,0.836-1.047c-0.003-0.033-0.009-0.067-0.017-0.1c-0.096-0.575-0.165-1.163-0.203-1.748
		c-0.035-0.522-0.486-0.917-1.008-0.883c-0.522,0.035-0.918,0.487-0.883,1.009L333.92,267.106L333.92,267.106z"/>
	<path id="Path_31" fill="#9B9B9B" d="M334.549,260.543c-0.168,0.623-0.307,1.266-0.412,1.905c-0.115,0.511,0.205,1.018,0.715,1.133
		c0.511,0.116,1.018-0.205,1.133-0.715c0.008-0.036,0.014-0.073,0.018-0.11c0.095-0.576,0.22-1.155,0.372-1.72
		c0.136-0.506-0.164-1.026-0.669-1.162c-0.505-0.136-1.026,0.164-1.162,0.67l0,0L334.549,260.543z"/>
	<path id="Path_32" fill="#9B9B9B" d="M338.935,277.853c-0.391,0.348-0.425,0.947-0.076,1.337c0.431,0.482,0.889,0.95,1.367,1.387
		c0.385,0.354,0.985,0.33,1.339-0.056c0.354-0.385,0.33-0.985-0.056-1.339l0,0c-0.43-0.396-0.846-0.818-1.235-1.254
		C339.925,277.537,339.326,277.504,338.935,277.853C338.936,277.852,338.936,277.853,338.935,277.853z"/>
	<path id="Path_33" fill="#9B9B9B" d="M338.557,254.29c-0.434-0.294-1.022-0.181-1.316,0.252l0,0
		c-0.362,0.534-0.703,1.097-1.01,1.666c-0.25,0.461-0.078,1.036,0.382,1.285c0.46,0.25,1.036,0.077,1.285-0.383
		c0.278-0.514,0.584-1.021,0.913-1.505C339.104,255.173,338.991,254.583,338.557,254.29L338.557,254.29z"/>
	<path id="Path_34" fill="#9B9B9B" d="M354.175,245.724c-0.644-0.009-1.303,0.014-1.944,0.067c-0.521,0.039-0.914,0.494-0.875,1.016
		c0.037,0.497,0.453,0.88,0.951,0.876c0.026,0,0.055,0,0.08,0c0.581-0.048,1.176-0.068,1.76-0.06h0.016
		c0.523,0.004,0.951-0.417,0.956-0.941c0.003-0.523-0.419-0.95-0.941-0.955L354.175,245.724L354.175,245.724z"/>
	<path id="Path_35" fill="#9B9B9B" d="M341.818,249.683c-0.517,0.391-1.019,0.81-1.495,1.249c-0.384,0.354-0.408,0.955-0.053,1.339
		c0.355,0.384,0.955,0.409,1.339,0.054l0,0c0.43-0.397,0.884-0.777,1.351-1.13c0.427-0.303,0.528-0.894,0.225-1.321
		c-0.302-0.427-0.894-0.528-1.321-0.225C341.848,249.66,341.833,249.671,341.818,249.683L341.818,249.683z"/>
	<path id="Path_36" fill="#9B9B9B" d="M350.641,283.578c-0.515-0.094-1.009,0.248-1.103,0.764c-0.094,0.516,0.248,1.01,0.764,1.103
		c0.635,0.116,1.285,0.201,1.931,0.253c0.025,0,0.055,0,0.078,0c0.522,0.003,0.949-0.42,0.951-0.943
		c0.004-0.497-0.38-0.912-0.876-0.949C351.803,283.759,351.215,283.683,350.641,283.578z"/>
	<path id="Path_37" fill="#9B9B9B" d="M355.811,259.74c-0.522,0-0.947,0.424-0.947,0.947l0,0v9.689c0,0.523,0.425,0.948,0.947,0.948
		c0.523,0,0.947-0.424,0.947-0.948v-9.689C356.758,260.164,356.334,259.74,355.811,259.74L355.811,259.74L355.811,259.74z"/>
	<path id="Path_38" fill="#9B9B9B" d="M360.568,260.759v9.618c0,0.523,0.428,0.948,0.951,0.948c0.521,0,0.946-0.425,0.946-0.948
		v-3.953h2.642c0.521,0,0.946-0.425,0.946-0.948c0-0.524-0.425-0.948-0.946-0.948h-2.642v-2.822h2.949
		c0.521,0,0.946-0.424,0.946-0.948s-0.426-0.948-0.946-0.948h-3.897C360.996,259.812,360.57,260.236,360.568,260.759z"/>
	<path id="Path_39" fill="#9B9B9B" d="M340.935,265.532c0.004,3.198,2.595,5.79,5.793,5.793c3.022,0,5.129-2.383,5.129-5.793
		c0-0.523-0.424-0.947-0.947-0.947l0,0h-2.898c-0.524,0-0.948,0.424-0.948,0.948c0,0.524,0.424,0.948,0.948,0.948h1.866
		c-0.259,1.511-1.181,2.949-3.154,2.949c-2.152,0-3.896-1.745-3.896-3.897c0-2.151,1.746-3.896,3.897-3.896
		c0.776,0,1.534,0.232,2.177,0.665c0.434,0.293,1.023,0.179,1.316-0.254c0.293-0.434,0.179-1.023-0.255-1.317
		c-2.653-1.788-6.252-1.088-8.042,1.564c-0.645,0.956-0.99,2.082-0.99,3.236L340.935,265.532z"/>
</g>
<g id="Group_8">
	<path id="Path_14" fill="#9B9B9B" d="M146.048,99.166c-11.04,0.012-19.988,8.959-20,20v15.713c0,2.367,1.917,4.287,4.285,4.287l0,0
		h5.715c0.79,0,1.429-0.639,1.429-1.429v-14.286c0-0.789-0.64-1.428-1.429-1.428l0,0h-5.715c-0.488,0.005-0.971,0.096-1.428,0.266
		v-3.124c0.068-9.467,7.798-17.087,17.267-17.019c9.372,0.067,16.951,7.648,17.019,17.019v3.122c-0.457-0.17-0.941-0.26-1.429-0.266
		h-5.713c-0.79,0-1.429,0.64-1.429,1.428v14.288c0,0.79,0.64,1.429,1.429,1.429h5.715c2.367,0,4.285-1.918,4.285-4.285v-15.715
		C166.037,108.125,157.088,99.178,146.048,99.166z"/>
</g>
<g id="photo-camera-interface-symbol-for-button" transform="translate(0 -3.36)">
	<path id="Path_7" fill="#9B9B9B" d="M91.124,127.527c-0.001,3.562-2.889,6.45-6.452,6.45c-3.563-0.001-6.45-2.89-6.45-6.452
		c0-3.563,2.888-6.45,6.451-6.45C88.234,121.079,91.12,123.965,91.124,127.527z M104.673,118.366v18.322
		c0,2.442-1.981,4.423-4.424,4.423l0,0H69.097c-2.443,0-4.424-1.98-4.424-4.423l0,0v-18.322c0-2.443,1.981-4.423,4.424-4.423h5.443
		v-1.53c0-2.137,1.73-3.869,3.867-3.871h12.532c2.137,0.001,3.867,1.734,3.867,3.871v1.528h5.44c2.444,0,4.426,1.979,4.427,4.423
		C104.673,118.365,104.673,118.366,104.673,118.366z M94.441,127.527c0-5.396-4.375-9.769-9.769-9.769
		c-5.395,0-9.769,4.373-9.769,9.769c0,5.395,4.374,9.768,9.769,9.768C90.065,137.289,94.435,132.919,94.441,127.527z"/>
</g>
<text transform="matrix(1 0 0 1 6.625 137.8496)" fill="#9B9B9B" font-family="'SegoeUI'" font-size="36">Aa</text>
<g id="video-camera_1_" transform="translate(0 -21.802)">
	<g id="Group_10_1_" transform="translate(0 21.802)">
		<g id="Group_9_1_" transform="translate(0 0)">
			<path id="Path_40_1_" fill="#07A3B2" d="M339.188,169.838c-0.451-0.78-1.451-1.045-2.23-0.593
				c-0.009,0.005-0.021,0.011-0.028,0.017l-5.48,3.173l-1.396,0.817v7.596l1.298,0.77c0.05,0,0.05,0.047,0.1,0.047l5.384,3.125
				c0.264,0.194,0.586,0.296,0.913,0.288c0.896,0.007,1.627-0.712,1.635-1.607c0-0.008,0-0.018,0-0.026v-6.442l0.048-6.347
				C339.442,170.363,339.358,170.075,339.188,169.838z"/>
			<path id="Path_41_1_" fill="#07A3B2" d="M307.168,167.382c4.274,0,7.738-3.466,7.738-7.741s-3.466-7.74-7.74-7.739
				c-4.273,0.001-7.74,3.466-7.739,7.741c0,0.001,0,0.002,0,0.002c-0.001,4.272,3.464,7.736,7.735,7.737
				C307.164,167.382,307.165,167.382,307.168,167.382z M307.168,156.469c1.753,0,3.173,1.421,3.173,3.173
				c0,1.753-1.42,3.173-3.173,3.173c-1.752,0-3.174-1.42-3.174-3.173l0,0c-0.032-1.717,1.333-3.136,3.051-3.169
				c0.041,0,0.083,0,0.123,0V156.469L307.168,156.469z"/>
			<path id="Path_42_1_" fill="#07A3B2" d="M326.782,167.82c-1.281,0.654-2.697,1-4.135,1.009c-1.777,0.009-3.52-0.51-5-1.49h-5.483
				c-1.482,0.98-3.223,1.499-5,1.49c-1.439,0.015-2.861-0.333-4.135-1.009c-1.15,0.667-1.863,1.891-1.875,3.22v11.731
				c0.009,2.146,1.746,3.882,3.891,3.892h19.768c2.146-0.01,3.884-1.747,3.893-3.892V171.04
				C328.653,169.71,327.93,168.497,326.782,167.82z"/>
			<path id="Path_43_1_" fill="#07A3B2" d="M322.647,167.382c4.272,0,7.738-3.465,7.738-7.74c0-4.274-3.466-7.74-7.738-7.74
				c-4.274,0-7.74,3.465-7.74,7.74c-0.002,4.272,3.459,7.737,7.729,7.74C322.642,167.382,322.644,167.382,322.647,167.382z
				 M322.647,156.469c1.752,0,3.174,1.421,3.174,3.173c0,1.753-1.422,3.173-3.174,3.173c-1.754,0-3.175-1.42-3.175-3.173l0,0
				c0-1.75,1.42-3.169,3.17-3.169c0.001,0,0.004,0,0.005,0V156.469z"/>
		</g>
	</g>
</g>
<g id="google-docs_1_" transform="translate(-61)">
	<path id="Path_15_3_" fill="#07A3B2" d="M252.039,186.515h23.438c1.941-0.002,3.514-1.575,3.516-3.516v-24.766h-8.203
		c-1.941-0.002-3.514-1.575-3.516-3.516v-8.203h-15.235c-1.941,0.001-3.514,1.574-3.516,3.515v32.969
		C248.525,184.94,250.098,186.513,252.039,186.515z M256.726,162.999h14.061c0.648,0,1.174,0.525,1.174,1.172
		c0,0.648-0.526,1.172-1.174,1.172h-14.06c-0.648,0-1.172-0.524-1.172-1.172S256.079,162.999,256.726,162.999L256.726,162.999z
		 M256.726,167.687h14.061c0.648,0,1.174,0.524,1.174,1.172c0,0.647-0.526,1.172-1.174,1.172h-14.06
		c-0.648,0-1.172-0.524-1.172-1.172C255.555,168.21,256.079,167.687,256.726,167.687L256.726,167.687z M256.726,172.373h14.061
		c0.648,0,1.174,0.525,1.174,1.173c0,0.647-0.526,1.172-1.174,1.172h-14.06c-0.648,0-1.172-0.525-1.172-1.172
		C255.555,172.898,256.079,172.373,256.726,172.373L256.726,172.373z M256.726,177.061h9.375c0.646,0,1.172,0.524,1.172,1.172
		c0,0.646-0.526,1.172-1.172,1.172h-9.375c-0.648,0-1.172-0.525-1.172-1.172C255.555,177.584,256.079,177.061,256.726,177.061
		L256.726,177.061z"/>
	<path id="Path_16_3_" fill="#07A3B2" d="M270.616,156.087h7.675l-8.872-8.871v7.674
		C269.419,155.551,269.956,156.086,270.616,156.087z"/>
</g>
<g id="gif_1_" transform="translate(-95.461 -146.861)">
	<path id="Path_18_1_" fill="#07A3B2" d="M369.75,301.422c-0.322-0.413-0.919-0.485-1.332-0.163
		c-0.411,0.322-0.484,0.918-0.16,1.331c0.36,0.461,0.701,0.944,1.014,1.438c0.274,0.447,0.857,0.587,1.306,0.314
		c0.444-0.272,0.586-0.855,0.313-1.303c-0.006-0.008-0.014-0.018-0.018-0.026C370.525,302.467,370.148,301.928,369.75,301.422z"/>
	<path id="Path_19_1_" fill="#07A3B2" d="M367.162,327.69c0.38,0.361,0.979,0.348,1.34-0.031c0,0,0,0,0.002,0
		c0.443-0.469,0.873-0.965,1.271-1.476c0.32-0.414,0.248-1.009-0.166-1.331c-0.414-0.321-1.008-0.248-1.33,0.165l0,0
		c-0.354,0.462-0.745,0.911-1.148,1.333C366.77,326.729,366.783,327.329,367.162,327.69c0.002,0,0.002,0,0.002,0H367.162z"/>
	<path id="Path_20_1_" fill="#07A3B2" d="M363.805,328.975c-0.488,0.321-1,0.623-1.519,0.889c-0.466,0.242-0.644,0.814-0.402,1.278
		c0.242,0.464,0.813,0.644,1.278,0.402c0.574-0.3,1.139-0.631,1.682-0.985c0.438-0.286,0.561-0.874,0.271-1.312
		C364.83,328.81,364.243,328.688,363.805,328.975L363.805,328.975z"/>
	<path id="Path_21_1_" fill="#07A3B2" d="M360.665,294.879c-0.608-0.219-1.235-0.411-1.865-0.568
		c-0.509-0.126-1.022,0.181-1.151,0.689c-0.127,0.508,0.184,1.023,0.689,1.15c0.566,0.143,1.133,0.314,1.684,0.513
		c0.491,0.177,1.035-0.078,1.213-0.571C361.411,295.599,361.156,295.057,360.665,294.879L360.665,294.879L360.665,294.879z"/>
	<path id="Path_22_1_" fill="#07A3B2" d="M366.419,298.045c-0.504-0.405-1.035-0.79-1.577-1.143
		c-0.438-0.285-1.025-0.162-1.313,0.276c-0.286,0.438-0.161,1.026,0.274,1.312l0,0c0.489,0.319,0.972,0.667,1.423,1.033
		c0.407,0.328,1.006,0.263,1.334-0.145c0.328-0.408,0.262-1.004-0.146-1.333H366.419z"/>
	<path id="Path_23_1_" fill="#07A3B2" d="M372.844,307.217c-0.172-0.495-0.714-0.756-1.208-0.585
		c-0.495,0.172-0.756,0.712-0.585,1.207c0.192,0.553,0.355,1.122,0.49,1.689c0.122,0.51,0.633,0.825,1.143,0.704
		c0.51-0.122,0.823-0.632,0.703-1.142C373.238,308.458,373.054,307.831,372.844,307.217z"/>
	<path id="Path_24_1_" fill="#07A3B2" d="M373.818,315.706c0.063-0.642,0.097-1.296,0.097-1.949v-0.036
		c0-0.523-0.425-0.948-0.948-0.948c-0.521,0-0.947,0.424-0.947,0.948v0.04c0,0.587-0.029,1.179-0.09,1.76
		c-0.052,0.521,0.331,0.984,0.852,1.035l0,0c0.031,0,0.063,0.005,0.096,0.005C373.361,316.562,373.773,316.192,373.818,315.706z"/>
	<path id="Path_25_1_" fill="#07A3B2" d="M346.218,297.2c0.132,0,0.262-0.028,0.383-0.081c0.534-0.235,1.088-0.444,1.644-0.628
		c0.498-0.163,0.769-0.698,0.606-1.195c-0.163-0.498-0.697-0.769-1.195-0.607c-0.614,0.201-1.227,0.435-1.819,0.696
		c-0.479,0.212-0.694,0.773-0.48,1.252c0.151,0.342,0.49,0.562,0.864,0.563H346.218L346.218,297.2z"/>
	<path id="Path_26_1_" fill="#07A3B2" d="M372.268,319.064c-0.494-0.17-1.035,0.094-1.205,0.588l0,0
		c-0.188,0.552-0.408,1.103-0.651,1.634c-0.22,0.475-0.011,1.039,0.466,1.256c0.477,0.218,1.038,0.01,1.257-0.466
		c0.269-0.589,0.515-1.197,0.726-1.809C373.025,319.773,372.762,319.234,372.268,319.064z"/>
	<path id="Path_27_1_" fill="#07A3B2" d="M345.024,329.593c-0.456-0.256-1.033-0.095-1.29,0.361
		c-0.257,0.456-0.096,1.034,0.361,1.29c0.564,0.319,1.151,0.611,1.743,0.871c0.479,0.21,1.038-0.008,1.248-0.487
		s-0.008-1.04-0.487-1.249l0,0C346.064,330.145,345.534,329.877,345.024,329.593z"/>
	<path id="Path_28_1_" fill="#07A3B2" d="M335.912,320.281c-0.484,0.202-0.711,0.757-0.509,1.24c0,0.001,0.001,0.003,0.001,0.005
		c0.25,0.596,0.533,1.186,0.844,1.755c0.25,0.46,0.825,0.631,1.285,0.381c0.46-0.25,0.63-0.826,0.38-1.286
		c-0.279-0.514-0.533-1.047-0.761-1.585C336.95,320.308,336.395,320.081,335.912,320.281c-0.001,0.002-0.003,0.003-0.005,0.003
		L335.912,320.281z"/>
	<path id="Path_29_1_" fill="#07A3B2" d="M355.816,332.748c0.074,0.519,0.558,0.876,1.074,0.8h0.002
		c0.642-0.096,1.283-0.225,1.91-0.383c0.508-0.128,0.814-0.644,0.688-1.151c-0.129-0.508-0.646-0.814-1.151-0.686
		c-0.565,0.143-1.146,0.259-1.726,0.345C356.096,331.75,355.74,332.231,355.816,332.748z"/>
	<path id="Path_30_1_" fill="#07A3B2" d="M333.921,315.106c0.041,0.647,0.118,1.298,0.224,1.934c0.059,0.52,0.528,0.894,1.048,0.836
		s0.895-0.528,0.836-1.047c-0.004-0.033-0.009-0.067-0.017-0.1c-0.097-0.575-0.165-1.163-0.203-1.748
		c-0.034-0.522-0.486-0.917-1.008-0.883c-0.522,0.035-0.918,0.487-0.884,1.009L333.921,315.106L333.921,315.106z"/>
	<path id="Path_31_1_" fill="#07A3B2" d="M334.549,308.543c-0.167,0.623-0.305,1.266-0.411,1.905
		c-0.115,0.511,0.205,1.018,0.715,1.133c0.512,0.116,1.019-0.205,1.134-0.715c0.009-0.036,0.014-0.073,0.018-0.11
		c0.095-0.576,0.221-1.155,0.372-1.72c0.136-0.506-0.164-1.026-0.669-1.162c-0.505-0.135-1.026,0.164-1.161,0.67l0,0
		L334.549,308.543z"/>
	<path id="Path_32_1_" fill="#07A3B2" d="M338.935,325.852c-0.391,0.348-0.424,0.947-0.077,1.337
		c0.432,0.483,0.889,0.951,1.367,1.387c0.386,0.355,0.984,0.33,1.339-0.056c0.355-0.385,0.329-0.985-0.056-1.339l0,0
		c-0.43-0.396-0.846-0.817-1.235-1.254C339.925,325.537,339.327,325.503,338.935,325.852
		C338.936,325.852,338.936,325.852,338.935,325.852z"/>
	<path id="Path_33_1_" fill="#07A3B2" d="M338.558,302.291c-0.434-0.294-1.022-0.181-1.316,0.252c0,0,0,0-0.001,0
		c-0.362,0.534-0.702,1.097-1.011,1.666c-0.249,0.461-0.077,1.036,0.383,1.285c0.46,0.25,1.035,0.078,1.284-0.382
		c0.278-0.514,0.585-1.021,0.914-1.505C339.105,303.173,338.991,302.584,338.558,302.291L338.558,302.291z"/>
	<path id="Path_34_1_" fill="#07A3B2" d="M354.175,293.725c-0.644-0.009-1.303,0.014-1.944,0.067
		c-0.521,0.039-0.915,0.494-0.875,1.016c0.038,0.497,0.454,0.88,0.953,0.876c0.025,0,0.055,0,0.078,0
		c0.582-0.048,1.178-0.068,1.762-0.06h0.015c0.524,0.004,0.952-0.417,0.954-0.94c0.004-0.524-0.416-0.951-0.939-0.955
		L354.175,293.725L354.175,293.725z"/>
	<path id="Path_35_1_" fill="#07A3B2" d="M341.818,297.683c-0.517,0.391-1.02,0.81-1.495,1.25c-0.384,0.354-0.408,0.955-0.053,1.339
		c0.355,0.385,0.955,0.409,1.339,0.054l0,0c0.43-0.397,0.885-0.777,1.351-1.129c0.427-0.303,0.528-0.894,0.226-1.321
		c-0.303-0.427-0.894-0.528-1.321-0.225c-0.015,0.011-0.031,0.022-0.046,0.035L341.818,297.683z"/>
	<path id="Path_36_1_" fill="#07A3B2" d="M350.641,331.577c-0.515-0.093-1.009,0.249-1.103,0.764
		c-0.094,0.515,0.249,1.01,0.764,1.103c0.636,0.116,1.285,0.201,1.931,0.253c0.025,0,0.055,0,0.078,0
		c0.522,0.003,0.949-0.42,0.951-0.943c0.004-0.497-0.38-0.912-0.876-0.949C351.803,331.759,351.215,331.682,350.641,331.577z"/>
	<path id="Path_37_1_" fill="#07A3B2" d="M355.811,307.74c-0.522,0-0.949,0.424-0.949,0.947l0,0v9.689
		c0,0.523,0.427,0.948,0.949,0.948c0.523,0,0.947-0.424,0.947-0.948v-9.689C356.758,308.164,356.334,307.74,355.811,307.74
		L355.811,307.74L355.811,307.74z"/>
	<path id="Path_38_1_" fill="#07A3B2" d="M360.568,308.759v9.618c0,0.523,0.427,0.948,0.951,0.948c0.521,0,0.946-0.425,0.946-0.948
		v-3.953h2.642c0.521,0,0.946-0.425,0.946-0.948c0-0.523-0.425-0.948-0.946-0.948h-2.642v-2.822h2.949
		c0.521,0,0.946-0.424,0.946-0.948c0-0.523-0.426-0.948-0.946-0.948h-3.897C360.995,307.812,360.57,308.236,360.568,308.759z"/>
	<path id="Path_39_1_" fill="#07A3B2" d="M340.935,313.532c0.004,3.198,2.595,5.79,5.792,5.793c3.022,0,5.13-2.383,5.13-5.793
		c0-0.523-0.424-0.947-0.948-0.947l0,0h-2.898c-0.524,0-0.948,0.424-0.948,0.948c0,0.524,0.424,0.948,0.948,0.948h1.867
		c-0.26,1.511-1.181,2.948-3.154,2.948c-2.153,0-3.897-1.745-3.896-3.897c0-2.151,1.746-3.896,3.896-3.896
		c0.776,0,1.534,0.232,2.177,0.665c0.434,0.293,1.022,0.179,1.316-0.254c0.293-0.434,0.178-1.023-0.255-1.317
		c-2.652-1.788-6.251-1.088-8.042,1.564c-0.644,0.956-0.989,2.083-0.989,3.236L340.935,313.532z"/>
</g>
<g id="Group_8_1_">
	<path id="Path_14_1_" fill="#07A3B2" d="M146.048,147.566c-11.04,0.013-19.988,8.959-20,20v15.713c0,2.367,1.917,4.287,4.285,4.287
		l0,0h5.715c0.789,0,1.429-0.64,1.429-1.429V171.85c0-0.788-0.64-1.428-1.429-1.428l0,0h-5.715c-0.488,0.006-0.97,0.097-1.428,0.267
		v-3.123c0.069-9.468,7.799-17.087,17.267-17.019c9.372,0.067,16.952,7.647,17.02,17.019v3.121c-0.458-0.17-0.941-0.26-1.429-0.266
		h-5.713c-0.789,0-1.429,0.64-1.429,1.428v14.288c0,0.79,0.64,1.429,1.429,1.429h5.715c2.366,0,4.285-1.919,4.285-4.285v-15.715
		C166.036,156.526,157.088,147.579,146.048,147.566z"/>
</g>
<g id="photo-camera-interface-symbol-for-button_1_" transform="translate(0 -3.36)">
	<path id="Path_7_1_" fill="#07A3B2" d="M91.124,175.927c-0.001,3.562-2.889,6.451-6.452,6.45s-6.45-2.89-6.45-6.452
		c0-3.563,2.888-6.45,6.451-6.45C88.234,169.479,91.12,172.365,91.124,175.927z M104.673,166.766v18.322
		c0,2.443-1.981,4.423-4.424,4.423l0,0H69.097c-2.443,0-4.424-1.98-4.424-4.423l0,0v-18.322c0-2.443,1.981-4.423,4.424-4.423h5.443
		v-1.53c0-2.136,1.73-3.869,3.867-3.871h12.532c2.137,0.002,3.867,1.734,3.867,3.871v1.528h5.44
		c2.444-0.001,4.426,1.979,4.427,4.423C104.673,166.765,104.673,166.766,104.673,166.766z M94.441,175.927
		c0-5.395-4.375-9.769-9.769-9.769c-5.395,0-9.769,4.374-9.769,9.769s4.374,9.769,9.769,9.769
		C90.065,185.689,94.435,181.319,94.441,175.927z"/>
</g>
<text transform="matrix(1 0 0 1 6.625 182.8486)" fill="#07A3B2" font-family="'SegoeUI'" font-size="36">Aa</text>
<g id="edit" transform="translate(-38.633)">
	<g id="Group_445" transform="translate(38.633)">
		<g id="Group_444">
			<path id="Path_608" fill="#9B9B9B" d="M77.908,202.046l-12.295,12.295v5.639h5.639l12.295-12.295L77.908,202.046z
				 M70.424,217.986h-2.819v-2.819l10.3-10.301l2.819,2.82L70.424,217.986z"/>
		</g>
	</g>
</g>
<g id="notification_2_" transform="translate(-23.272)">
	<g id="Group_1_2_" transform="translate(23.272)">
		<path id="Path_2_2_" fill="#9B9B9B" d="M140.098,214.653h-0.734v-5.874c-0.034-3.244-2.69-5.847-5.935-5.813
			c-3.196,0.033-5.78,2.616-5.813,5.813v5.874h-0.734c-0.405,0-0.734,0.329-0.734,0.734c0,0.405,0.329,0.734,0.734,0.734h3.671
			c0,1.622,1.315,2.938,2.937,2.938c1.622,0,2.938-1.315,2.938-2.938h3.671c0.405,0,0.734-0.329,0.734-0.734
			C140.832,214.983,140.503,214.654,140.098,214.653L140.098,214.653L140.098,214.653z M133.49,217.59
			c-0.811-0.001-1.468-0.658-1.469-1.469h2.937C134.957,216.931,134.301,217.589,133.49,217.59z M137.896,214.653h-8.811v-5.874
			c-0.001-2.434,1.971-4.406,4.404-4.407c2.433-0.001,4.406,1.971,4.407,4.403c0,0.001,0,0.002,0,0.003V214.653z"/>
	</g>
</g>
<g id="list-text" transform="translate(-0.001 -80)">
	<g id="Group_447" transform="translate(3.425 80)">
		<g id="Group_446">
			<path id="Path_609" fill="#9B9B9B" d="M19.083,204.746H7.692c-0.629,0-1.14,0.509-1.14,1.139c0,0.629,0.51,1.139,1.139,1.139
				c0,0,0,0,0.001,0h11.392c0.629,0,1.139-0.51,1.139-1.139C20.223,205.256,19.712,204.746,19.083,204.746z"/>
		</g>
	</g>
	<g id="Group_449" transform="translate(0.001 80.005)">
		<g id="Group_448" transform="translate(0 0)">
			<path id="Path_610" fill="#9B9B9B" d="M8.837,205.88c0-0.629-0.51-1.139-1.139-1.139c-0.629,0-1.14,0.51-1.14,1.139
				c-0.008,0.074-0.008,0.148,0,0.222c0.014,0.074,0.034,0.146,0.063,0.216c0.03,0.067,0.066,0.132,0.107,0.194
				c0.041,0.064,0.089,0.124,0.143,0.177c0.052,0.052,0.109,0.098,0.171,0.137c0.061,0.043,0.125,0.08,0.194,0.108
				c0.075,0.039,0.155,0.068,0.238,0.085c0.074,0.008,0.148,0.008,0.223,0c0.3,0,0.587-0.119,0.8-0.33
				c0.054-0.054,0.102-0.113,0.142-0.177c0.042-0.062,0.078-0.126,0.108-0.194c0.036-0.069,0.064-0.141,0.085-0.216
				C8.843,206.028,8.844,205.953,8.837,205.88z"/>
		</g>
	</g>
	<g id="Group_451" transform="translate(0.007 85.131)">
		<g id="Group_450">
			<path id="Path_611" fill="#9B9B9B" d="M8.83,205.88c0.009-0.074,0.009-0.148,0-0.222c-0.02-0.074-0.048-0.145-0.085-0.211
				c-0.029-0.07-0.065-0.137-0.108-0.2c-0.039-0.063-0.087-0.121-0.142-0.171c-0.446-0.443-1.167-0.441-1.61,0.005
				c-0.211,0.211-0.33,0.497-0.332,0.795c-0.001,0.225,0.064,0.444,0.188,0.632c0.043,0.063,0.093,0.119,0.147,0.172
				c0.051,0.055,0.108,0.102,0.172,0.143c0.06,0.043,0.125,0.08,0.193,0.107c0.069,0.029,0.142,0.051,0.216,0.063
				c0.073,0.018,0.147,0.025,0.223,0.023c0.073,0.008,0.148,0.008,0.222,0c0.072-0.012,0.144-0.033,0.211-0.063
				c0.071-0.029,0.138-0.064,0.2-0.109c0.063-0.039,0.12-0.086,0.171-0.141c0.055-0.051,0.103-0.109,0.142-0.172
				c0.044-0.061,0.08-0.125,0.108-0.193c0.039-0.076,0.067-0.156,0.085-0.24C8.839,206.025,8.839,205.952,8.83,205.88z"/>
		</g>
	</g>
	<g id="Group_453" transform="translate(0.007 90.258)">
		<g id="Group_452" transform="translate(0 0)">
			<path id="Path_612" fill="#9B9B9B" d="M8.831,205.88c0.009-0.074,0.009-0.148,0-0.223c-0.02-0.074-0.048-0.146-0.085-0.215
				c-0.03-0.068-0.066-0.133-0.108-0.195c-0.039-0.063-0.087-0.119-0.142-0.17c-0.444-0.441-1.162-0.441-1.606,0
				c-0.055,0.051-0.103,0.107-0.142,0.17c-0.041,0.063-0.077,0.127-0.108,0.195c-0.029,0.068-0.051,0.141-0.063,0.215
				c-0.017,0.072-0.023,0.148-0.023,0.223c0.003,0.301,0.123,0.588,0.336,0.799c0.051,0.055,0.108,0.104,0.172,0.143
				c0.06,0.043,0.125,0.08,0.193,0.107c0.069,0.029,0.142,0.051,0.216,0.064c0.073,0.016,0.147,0.023,0.223,0.021
				c0.073,0.01,0.148,0.01,0.222,0c0.072-0.012,0.144-0.033,0.211-0.063c0.071-0.027,0.138-0.064,0.2-0.107
				c0.063-0.039,0.12-0.088,0.171-0.143c0.055-0.051,0.103-0.107,0.142-0.17c0.044-0.061,0.08-0.125,0.108-0.195
				c0.039-0.074,0.067-0.156,0.085-0.238C8.84,206.027,8.84,205.952,8.831,205.88z"/>
		</g>
	</g>
	<g id="Group_455" transform="translate(3.425 85.126)">
		<g id="Group_454">
			<path id="Path_613" fill="#9B9B9B" d="M20.223,204.746H7.692c-0.629,0-1.14,0.509-1.14,1.139c0,0.63,0.51,1.14,1.139,1.14
				c0,0,0,0,0.001,0h12.53c0.63,0,1.14-0.51,1.14-1.139C21.363,205.256,20.853,204.746,20.223,204.746L20.223,204.746
				L20.223,204.746z"/>
		</g>
	</g>
	<g id="Group_457" transform="translate(3.425 90.253)">
		<g id="Group_456" transform="translate(0 0)">
			<path id="Path_614" fill="#9B9B9B" d="M15.096,204.747H7.697c-0.629,0-1.139,0.51-1.139,1.139c0,0.629,0.51,1.139,1.139,1.139
				h7.399c0.63,0,1.14-0.51,1.14-1.139C16.236,205.257,15.726,204.747,15.096,204.747L15.096,204.747z"/>
		</g>
	</g>
</g>
<g id="Group_5" transform="translate(-34.75 -380.75)">
	<g>
		<path id="Path_12_1_" fill="#9B9B9B" d="M79.875,590.908c-1.889,0-3.42-1.531-3.42-3.42c0-1.889,1.531-3.42,3.42-3.42
			s3.42,1.531,3.42,3.42C83.295,589.377,81.763,590.908,79.875,590.908z M79.875,585.35c-1.181,0-2.138,0.957-2.138,2.138
			c0,1.181,0.957,2.137,2.138,2.137s2.138-0.957,2.138-2.137C82.013,586.308,81.055,585.35,79.875,585.35z"/>
		<path fill="#9B9B9B" d="M79.875,591.122c-2.003,0-3.634-1.631-3.634-3.634c0-2.003,1.63-3.634,3.634-3.634s3.634,1.63,3.634,3.634
			C83.508,589.491,81.878,591.122,79.875,591.122z M79.875,584.281c-1.768,0-3.206,1.439-3.206,3.207
			c0,1.768,1.438,3.206,3.206,3.206s3.206-1.438,3.206-3.206S81.642,584.281,79.875,584.281z M79.875,589.839
			c-1.297,0-2.351-1.055-2.351-2.351c0-1.297,1.054-2.352,2.351-2.352s2.351,1.055,2.351,2.352
			C82.226,588.784,81.171,589.839,79.875,589.839z M79.875,585.564c-1.061,0-1.924,0.862-1.924,1.924
			c0,1.061,0.863,1.924,1.924,1.924s1.924-0.863,1.924-1.924C81.798,586.426,80.935,585.564,79.875,585.564z"/>
	</g>
	<g>
		<path id="Path_13_1_" fill="#9B9B9B" d="M86.073,599.458c-0.354,0-0.641-0.287-0.641-0.641v-2.137
			c-0.002-1.534-1.245-2.777-2.779-2.779h-5.558c-1.534,0.001-2.777,1.245-2.779,2.779v2.137c0,0.354-0.287,0.641-0.641,0.641
			s-0.641-0.287-0.641-0.641v-2.137c0.003-2.242,1.819-4.058,4.061-4.062h5.558c2.242,0.003,4.058,1.819,4.061,4.062v2.137
			C86.714,599.17,86.427,599.458,86.073,599.458z"/>
		<path fill="#9B9B9B" d="M86.073,599.671c-0.472,0-0.855-0.383-0.855-0.855v-2.137c-0.001-1.413-1.152-2.563-2.565-2.565h-5.558
			c-1.413,0.002-2.563,1.152-2.565,2.565v2.137c0,0.472-0.384,0.855-0.855,0.855c-0.471,0-0.855-0.383-0.855-0.855v-2.137
			c0.003-2.354,1.921-4.272,4.274-4.275h5.558c2.354,0.003,4.271,1.921,4.275,4.275v2.137
			C86.928,599.288,86.545,599.671,86.073,599.671z M77.095,593.687h5.558c1.648,0.001,2.991,1.344,2.993,2.993v2.137
			c0,0.235,0.192,0.428,0.427,0.428c0.235,0,0.428-0.192,0.428-0.428v-2.137c-0.003-2.119-1.729-3.844-3.848-3.848h-5.558
			c-2.119,0.003-3.845,1.729-3.848,3.848v2.137c0,0.235,0.192,0.428,0.428,0.428c0.236,0,0.427-0.192,0.427-0.428v-2.137
			C74.105,595.031,75.448,593.688,77.095,593.687z"/>
	</g>
</g>
<g id="Group_460" transform="translate(-204.283 -543.211)">
	<g id="Group_7" transform="translate(204.533 544.232)">
		<g>
			<path id="Path_12_2_" fill="#9B9B9B" d="M100.321,209.315c-1.697,0-3.074-1.376-3.074-3.074c0-1.698,1.377-3.076,3.074-3.076
				c1.698,0,3.075,1.377,3.075,3.076C103.394,207.939,102.018,209.314,100.321,209.315z M100.321,204.32
				c-1.061,0-1.921,0.86-1.921,1.921s0.86,1.921,1.921,1.921c1.062,0,1.922-0.861,1.922-1.921
				C102.242,205.18,101.381,204.321,100.321,204.32z"/>
			<path fill="#9B9B9B" d="M100.321,209.579L100.321,209.579c-1.841,0-3.338-1.497-3.338-3.337c0-1.841,1.497-3.339,3.338-3.339
				c1.841,0,3.338,1.498,3.338,3.339C103.658,208.081,102.161,209.578,100.321,209.579z M100.321,203.43
				c-1.55,0-2.812,1.261-2.812,2.812c0,1.549,1.262,2.811,2.812,2.811c1.549-0.001,2.81-1.262,2.812-2.811
				C103.132,204.69,101.872,203.43,100.321,203.43z M100.321,208.427c-1.204,0-2.185-0.981-2.185-2.185
				c0-1.206,0.98-2.185,2.185-2.185l0,0c1.204,0.001,2.184,0.981,2.185,2.185C102.505,207.445,101.526,208.427,100.321,208.427z
				 M100.321,204.583c-0.914,0-1.657,0.744-1.657,1.658c0,0.914,0.743,1.658,1.657,1.658c0.915,0,1.658-0.745,1.658-1.658
				C101.978,205.329,101.235,204.584,100.321,204.583L100.321,204.583z"/>
		</g>
		<g>
			<path id="Path_13_2_" fill="#9B9B9B" d="M105.894,217.628c-0.318,0-0.576-0.259-0.576-0.576v-1.923
				c-0.002-1.378-1.119-2.498-2.498-2.498h-4.997c-1.38,0-2.497,1.119-2.499,2.498v1.921c0,0.319-0.258,0.578-0.576,0.578
				s-0.577-0.259-0.577-0.578v-1.921c0.003-2.014,1.637-3.648,3.652-3.65h4.997c2.015,0.002,3.648,1.636,3.65,3.65v1.921
				C106.47,217.369,106.213,217.628,105.894,217.628z"/>
			<path fill="#9B9B9B" d="M105.896,217.891h-0.002c-0.463,0-0.839-0.378-0.839-0.839v-1.923c-0.003-1.23-1.004-2.234-2.235-2.234
				h-4.997c-1.231,0-2.234,1.002-2.235,2.234v1.921c0,0.465-0.377,0.841-0.84,0.841s-0.84-0.376-0.84-0.841v-1.921
				c0.002-2.156,1.758-3.911,3.915-3.913h4.997c2.157,0.002,3.912,1.757,3.914,3.913v1.921
				C106.734,217.513,106.357,217.891,105.896,217.891z M97.823,212.367h4.997c1.521,0,2.76,1.239,2.762,2.761v1.923
				c0,0.173,0.14,0.313,0.313,0.313s0.313-0.142,0.313-0.314v-1.921c-0.002-1.864-1.52-3.384-3.388-3.387h-4.996
				c-1.867,0.002-3.387,1.521-3.389,3.387v1.921c0,0.173,0.141,0.314,0.313,0.314s0.313-0.142,0.313-0.314v-1.921
				C95.062,213.606,96.301,212.367,97.823,212.367z"/>
		</g>
	</g>
	<g id="Group_458" transform="translate(214.75 543.586)">
		<g>
			<path id="Path_12-2_1_" fill="#9B9B9B" d="M98.882,207.3c-1.149,0-2.082-0.933-2.082-2.083c0-1.151,0.933-2.084,2.082-2.084
				c1.152,0,2.084,0.933,2.084,2.084l0,0C100.966,206.367,100.034,207.299,98.882,207.3z M98.882,203.914
				c-0.718,0-1.302,0.583-1.302,1.303c0,0.719,0.584,1.302,1.302,1.302c0.721,0,1.305-0.583,1.305-1.302
				C100.185,204.497,99.603,203.915,98.882,203.914z"/>
			<path fill="#9B9B9B" d="M98.882,207.695L98.882,207.695c-1.366,0-2.477-1.112-2.477-2.478c0-1.367,1.11-2.479,2.477-2.479
				c1.368,0,2.479,1.112,2.479,2.479C101.361,206.583,100.248,207.694,98.882,207.695z M98.882,204.309
				c-0.5,0-0.907,0.407-0.907,0.908c0,0.5,0.407,0.907,0.907,0.907c0.502,0,0.909-0.407,0.909-0.907S99.382,204.31,98.882,204.309z"
				/>
		</g>
		<g>
			<path id="Path_13-2_1_" fill="#9B9B9B" d="M102.661,212.927c-0.217,0-0.392-0.175-0.392-0.391l0,0v-1.302
				c-0.002-0.935-0.759-1.692-1.692-1.693h-3.386c-0.937,0.001-1.693,0.758-1.693,1.693v1.302c0,0.216-0.175,0.391-0.391,0.391
				c-0.217,0-0.392-0.175-0.392-0.391l0,0v-1.302c0.002-1.366,1.109-2.473,2.476-2.475h3.386c1.365,0.002,2.473,1.109,2.473,2.475
				v1.302C103.05,212.752,102.877,212.927,102.661,212.927z"/>
			<path fill="#9B9B9B" d="M102.663,213.322h-0.002c-0.433,0-0.786-0.352-0.786-0.786v-1.302c-0.002-0.715-0.584-1.297-1.298-1.298
				h-3.386c-0.717,0.001-1.299,0.583-1.299,1.298v1.302c0,0.434-0.352,0.786-0.785,0.786c-0.433,0-0.786-0.352-0.786-0.786v-1.302
				c0.002-1.581,1.29-2.867,2.867-2.87h3.389c1.58,0.003,2.867,1.289,2.867,2.87v1.302
				C103.445,212.968,103.095,213.32,102.663,213.322z"/>
		</g>
	</g>
</g>
<g id="edit_1_" transform="translate(-38.633)">
	<g id="Group_445_1_" transform="translate(38.633)">
		<g id="Group_444_1_">
			<path id="Path_608_1_" fill="#07A3B2" d="M77.908,227.444l-12.295,12.295v5.639h5.639l12.295-12.295L77.908,227.444z
				 M70.424,243.384h-2.819v-2.819l10.3-10.301l2.819,2.82L70.424,243.384z"/>
		</g>
	</g>
</g>
<g id="notification_3_" transform="translate(-23.272)">
	<g id="Group_1_3_" transform="translate(23.272)">
		<path id="Path_2_3_" fill="#07A3B2" d="M140.098,240.051h-0.734v-5.874c-0.034-3.244-2.69-5.847-5.935-5.813
			c-3.196,0.033-5.78,2.616-5.813,5.813v5.874h-0.734c-0.405,0-0.734,0.329-0.734,0.734c0,0.405,0.329,0.734,0.734,0.734h3.671
			c0,1.622,1.315,2.938,2.937,2.938c1.622,0,2.938-1.315,2.938-2.938h3.671c0.405,0,0.734-0.329,0.734-0.734
			C140.832,240.381,140.503,240.052,140.098,240.051L140.098,240.051L140.098,240.051z M133.49,242.988
			c-0.811-0.001-1.468-0.658-1.469-1.469h2.937C134.957,242.329,134.301,242.987,133.49,242.988z M137.896,240.051h-8.811v-5.874
			c-0.001-2.434,1.971-4.406,4.404-4.407c2.433-0.001,4.406,1.971,4.407,4.403c0,0.001,0,0.002,0,0.003V240.051z"/>
	</g>
</g>
<g id="list-text_1_" transform="translate(-0.001 -80)">
	<g id="Group_447_1_" transform="translate(3.425 80)">
		<g id="Group_446_1_">
			<path id="Path_609_1_" fill="#07A3B2" d="M19.083,230.144H7.692c-0.629,0-1.14,0.509-1.14,1.139c0,0.629,0.51,1.139,1.139,1.139
				c0,0,0,0,0.001,0h11.392c0.629,0,1.139-0.51,1.139-1.139C20.223,230.654,19.712,230.144,19.083,230.144z"/>
		</g>
	</g>
	<g id="Group_449_1_" transform="translate(0.001 80.005)">
		<g id="Group_448_1_" transform="translate(0 0)">
			<path id="Path_610_1_" fill="#07A3B2" d="M8.837,231.278c0-0.629-0.51-1.139-1.139-1.139c-0.629,0-1.14,0.51-1.14,1.139
				c-0.008,0.074-0.008,0.148,0,0.222c0.014,0.074,0.034,0.146,0.063,0.216c0.03,0.067,0.066,0.132,0.107,0.194
				c0.041,0.064,0.089,0.124,0.143,0.177c0.052,0.052,0.109,0.098,0.171,0.137c0.061,0.043,0.125,0.08,0.194,0.108
				c0.075,0.039,0.155,0.068,0.238,0.085c0.074,0.008,0.148,0.008,0.223,0c0.3,0,0.587-0.119,0.8-0.33
				c0.054-0.054,0.102-0.113,0.142-0.177c0.042-0.062,0.078-0.126,0.108-0.194c0.036-0.069,0.064-0.141,0.085-0.216
				C8.843,231.426,8.844,231.351,8.837,231.278z"/>
		</g>
	</g>
	<g id="Group_451_1_" transform="translate(0.007 85.131)">
		<g id="Group_450_1_">
			<path id="Path_611_1_" fill="#07A3B2" d="M8.83,231.278c0.009-0.074,0.009-0.148,0-0.222c-0.02-0.074-0.048-0.145-0.085-0.211
				c-0.029-0.07-0.065-0.137-0.108-0.2c-0.039-0.063-0.087-0.121-0.142-0.171c-0.446-0.443-1.167-0.441-1.61,0.005
				c-0.211,0.211-0.33,0.497-0.332,0.795c-0.001,0.225,0.064,0.444,0.188,0.632c0.043,0.063,0.093,0.119,0.147,0.172
				c0.051,0.055,0.108,0.102,0.172,0.143c0.06,0.043,0.125,0.08,0.193,0.107c0.069,0.029,0.142,0.051,0.216,0.063
				c0.073,0.018,0.147,0.025,0.223,0.023c0.073,0.008,0.148,0.008,0.222,0c0.072-0.012,0.144-0.033,0.211-0.063
				c0.071-0.029,0.138-0.064,0.2-0.109c0.063-0.039,0.12-0.086,0.171-0.141c0.055-0.051,0.103-0.109,0.142-0.172
				c0.044-0.061,0.08-0.125,0.108-0.193c0.039-0.076,0.067-0.156,0.085-0.24C8.839,231.423,8.839,231.35,8.83,231.278z"/>
		</g>
	</g>
	<g id="Group_453_1_" transform="translate(0.007 90.258)">
		<g id="Group_452_1_" transform="translate(0 0)">
			<path id="Path_612_1_" fill="#07A3B2" d="M8.831,231.278c0.009-0.074,0.009-0.148,0-0.223c-0.02-0.074-0.048-0.146-0.085-0.215
				c-0.03-0.068-0.066-0.133-0.108-0.195c-0.039-0.063-0.087-0.119-0.142-0.17c-0.444-0.441-1.162-0.441-1.606,0
				c-0.055,0.051-0.103,0.107-0.142,0.17c-0.041,0.063-0.077,0.127-0.108,0.195c-0.029,0.068-0.051,0.141-0.063,0.215
				c-0.017,0.072-0.023,0.148-0.023,0.223c0.003,0.301,0.123,0.588,0.336,0.799c0.051,0.055,0.108,0.104,0.172,0.143
				c0.06,0.043,0.125,0.08,0.193,0.107c0.069,0.029,0.142,0.051,0.216,0.064c0.073,0.016,0.147,0.023,0.223,0.021
				c0.073,0.01,0.148,0.01,0.222,0c0.072-0.012,0.144-0.033,0.211-0.063c0.071-0.027,0.138-0.064,0.2-0.107
				c0.063-0.039,0.12-0.088,0.171-0.143c0.055-0.051,0.103-0.107,0.142-0.17c0.044-0.061,0.08-0.125,0.108-0.195
				c0.039-0.074,0.067-0.156,0.085-0.238C8.84,231.425,8.84,231.35,8.831,231.278z"/>
		</g>
	</g>
	<g id="Group_455_1_" transform="translate(3.425 85.126)">
		<g id="Group_454_1_">
			<path id="Path_613_1_" fill="#07A3B2" d="M20.223,230.144H7.692c-0.629,0-1.14,0.509-1.14,1.139c0,0.63,0.51,1.14,1.139,1.14
				c0,0,0,0,0.001,0h12.53c0.63,0,1.14-0.51,1.14-1.139C21.363,230.654,20.853,230.144,20.223,230.144L20.223,230.144
				L20.223,230.144z"/>
		</g>
	</g>
	<g id="Group_457_1_" transform="translate(3.425 90.253)">
		<g id="Group_456_1_" transform="translate(0 0)">
			<path id="Path_614_1_" fill="#07A3B2" d="M15.096,230.144H7.697c-0.629,0-1.139,0.51-1.139,1.139s0.51,1.139,1.139,1.139h7.399
				c0.63,0,1.14-0.51,1.14-1.139S15.726,230.144,15.096,230.144L15.096,230.144z"/>
		</g>
	</g>
</g>
<g id="Group_5_1_" transform="translate(-34.75 -380.75)">
	<g>
		<path id="Path_12_4_" fill="#07A3B2" d="M79.875,616.306c-1.889,0-3.42-1.531-3.42-3.42c0-1.889,1.531-3.42,3.42-3.42
			s3.42,1.531,3.42,3.42C83.295,614.775,81.763,616.306,79.875,616.306z M79.875,610.748c-1.181,0-2.138,0.957-2.138,2.138
			c0,1.181,0.957,2.137,2.138,2.137s2.138-0.957,2.138-2.137C82.013,611.706,81.055,610.748,79.875,610.748z"/>
		<path fill="#07A3B2" d="M79.875,616.52c-2.003,0-3.634-1.631-3.634-3.634c0-2.003,1.63-3.634,3.634-3.634s3.634,1.63,3.634,3.634
			C83.508,614.889,81.878,616.52,79.875,616.52z M79.875,609.679c-1.768,0-3.206,1.439-3.206,3.207c0,1.768,1.438,3.206,3.206,3.206
			s3.206-1.438,3.206-3.206C83.081,611.118,81.642,609.679,79.875,609.679z M79.875,615.237c-1.297,0-2.351-1.055-2.351-2.351
			c0-1.297,1.054-2.352,2.351-2.352s2.351,1.055,2.351,2.352C82.226,614.182,81.171,615.237,79.875,615.237z M79.875,610.962
			c-1.061,0-1.924,0.862-1.924,1.924c0,1.061,0.863,1.924,1.924,1.924s1.924-0.863,1.924-1.924
			C81.798,611.824,80.935,610.962,79.875,610.962z"/>
	</g>
	<g>
		<path id="Path_13_4_" fill="#07A3B2" d="M86.073,624.855c-0.354,0-0.641-0.287-0.641-0.641v-2.137
			c-0.002-1.534-1.245-2.777-2.779-2.779h-5.558c-1.534,0.001-2.777,1.245-2.779,2.779v2.137c0,0.354-0.287,0.641-0.641,0.641
			s-0.641-0.287-0.641-0.641v-2.137c0.003-2.242,1.819-4.058,4.061-4.062h5.558c2.242,0.003,4.058,1.819,4.061,4.062v2.137
			C86.714,624.568,86.427,624.855,86.073,624.855z"/>
		<path fill="#07A3B2" d="M86.073,625.069c-0.472,0-0.855-0.383-0.855-0.855v-2.137c-0.001-1.413-1.152-2.563-2.565-2.565h-5.558
			c-1.413,0.002-2.563,1.152-2.565,2.565v2.137c0,0.472-0.384,0.855-0.855,0.855c-0.471,0-0.855-0.383-0.855-0.855v-2.137
			c0.003-2.354,1.921-4.272,4.274-4.275h5.558c2.354,0.003,4.271,1.921,4.275,4.275v2.137
			C86.928,624.686,86.545,625.069,86.073,625.069z M77.095,619.084h5.558c1.648,0.001,2.991,1.344,2.993,2.993v2.137
			c0,0.235,0.192,0.428,0.427,0.428c0.235,0,0.428-0.192,0.428-0.428v-2.137c-0.003-2.119-1.729-3.844-3.848-3.848h-5.558
			c-2.119,0.003-3.845,1.729-3.848,3.848v2.137c0,0.235,0.192,0.428,0.428,0.428c0.236,0,0.427-0.192,0.427-0.428v-2.137
			C74.105,620.429,75.448,619.086,77.095,619.084z"/>
	</g>
</g>
<g id="Group_460_1_" transform="translate(-204.283 -543.211)">
	<g id="Group_7_1_" transform="translate(204.533 544.232)">
		<g>
			<path id="Path_12_3_" fill="#07A3B2" d="M100.321,234.713c-1.697,0-3.074-1.376-3.074-3.074c0-1.698,1.377-3.076,3.074-3.076
				c1.698,0,3.075,1.377,3.075,3.076C103.394,233.337,102.018,234.712,100.321,234.713z M100.321,229.718
				c-1.061,0-1.921,0.86-1.921,1.921s0.86,1.921,1.921,1.921c1.062,0,1.922-0.861,1.922-1.921
				C102.242,230.578,101.381,229.719,100.321,229.718z"/>
			<path fill="#07A3B2" d="M100.321,234.977L100.321,234.977c-1.841,0-3.338-1.497-3.338-3.337c0-1.841,1.497-3.339,3.338-3.339
				c1.841,0,3.338,1.498,3.338,3.339C103.658,233.479,102.161,234.976,100.321,234.977z M100.321,228.828
				c-1.55,0-2.812,1.261-2.812,2.812c0,1.549,1.262,2.811,2.812,2.811c1.549-0.001,2.81-1.262,2.812-2.811
				C103.132,230.088,101.872,228.828,100.321,228.828z M100.321,233.825c-1.204,0-2.185-0.981-2.185-2.185
				c0-1.206,0.98-2.185,2.185-2.185l0,0c1.204,0.001,2.184,0.981,2.185,2.185C102.505,232.843,101.526,233.825,100.321,233.825z
				 M100.321,229.981c-0.914,0-1.657,0.744-1.657,1.658s0.743,1.658,1.657,1.658c0.915,0,1.658-0.745,1.658-1.658
				C101.978,230.727,101.235,229.982,100.321,229.981L100.321,229.981z"/>
		</g>
		<g>
			<path id="Path_13_3_" fill="#07A3B2" d="M105.894,243.026c-0.318,0-0.576-0.259-0.576-0.576v-1.923
				c-0.002-1.378-1.119-2.498-2.498-2.498h-4.997c-1.38,0-2.497,1.119-2.499,2.498v1.921c0,0.319-0.258,0.578-0.576,0.578
				s-0.577-0.259-0.577-0.578v-1.921c0.003-2.014,1.637-3.648,3.652-3.65h4.997c2.015,0.002,3.648,1.636,3.65,3.65v1.921
				C106.47,242.767,106.213,243.026,105.894,243.026z"/>
			<path fill="#07A3B2" d="M105.896,243.289h-0.002c-0.463,0-0.839-0.378-0.839-0.839v-1.923c-0.003-1.23-1.004-2.234-2.235-2.234
				h-4.997c-1.231,0-2.234,1.002-2.235,2.234v1.921c0,0.465-0.377,0.841-0.84,0.841s-0.84-0.376-0.84-0.841v-1.921
				c0.002-2.156,1.758-3.911,3.915-3.913h4.997c2.157,0.002,3.912,1.757,3.914,3.913v1.921
				C106.734,242.911,106.357,243.289,105.896,243.289z M97.823,237.765h4.997c1.521,0,2.76,1.239,2.762,2.761v1.923
				c0,0.173,0.14,0.313,0.313,0.313s0.313-0.142,0.313-0.314v-1.921c-0.002-1.864-1.52-3.384-3.388-3.387h-4.996
				c-1.867,0.002-3.387,1.521-3.389,3.387v1.921c0,0.173,0.141,0.314,0.313,0.314s0.313-0.142,0.313-0.314v-1.921
				C95.062,239.004,96.301,237.765,97.823,237.765z"/>
		</g>
	</g>
	<g id="Group_458_1_" transform="translate(214.75 543.586)">
		<g>
			<path id="Path_12-2_2_" fill="#07A3B2" d="M98.882,232.698c-1.149,0-2.082-0.933-2.082-2.083c0-1.151,0.933-2.084,2.082-2.084
				c1.152,0,2.084,0.933,2.084,2.084l0,0C100.966,231.765,100.034,232.697,98.882,232.698z M98.882,229.312
				c-0.718,0-1.302,0.583-1.302,1.303c0,0.719,0.584,1.302,1.302,1.302c0.721,0,1.305-0.583,1.305-1.302
				C100.185,229.895,99.603,229.313,98.882,229.312z"/>
			<path fill="#07A3B2" d="M98.882,233.093L98.882,233.093c-1.366,0-2.477-1.112-2.477-2.478c0-1.367,1.11-2.479,2.477-2.479
				c1.368,0,2.479,1.112,2.479,2.479C101.361,231.98,100.248,233.092,98.882,233.093z M98.882,229.707
				c-0.5,0-0.907,0.407-0.907,0.908c0,0.5,0.407,0.907,0.907,0.907c0.502,0,0.909-0.407,0.909-0.907S99.382,229.708,98.882,229.707z
				"/>
		</g>
		<g>
			<path id="Path_13-2_2_" fill="#07A3B2" d="M102.661,238.325c-0.217,0-0.392-0.175-0.392-0.391l0,0v-1.302
				c-0.002-0.935-0.759-1.692-1.692-1.693h-3.386c-0.937,0.001-1.693,0.758-1.693,1.693v1.302c0,0.216-0.175,0.391-0.391,0.391
				c-0.217,0-0.392-0.175-0.392-0.391l0,0v-1.302c0.002-1.366,1.109-2.473,2.476-2.475h3.386c1.365,0.002,2.473,1.109,2.473,2.475
				v1.302C103.05,238.15,102.877,238.325,102.661,238.325z"/>
			<path fill="#07A3B2" d="M102.663,238.72h-0.002c-0.433,0-0.786-0.352-0.786-0.786v-1.302c-0.002-0.715-0.584-1.297-1.298-1.298
				h-3.386c-0.717,0.001-1.299,0.583-1.299,1.298v1.302c0,0.434-0.352,0.786-0.785,0.786c-0.433,0-0.786-0.352-0.786-0.786v-1.302
				c0.002-1.581,1.29-2.867,2.867-2.87h3.389c1.58,0.003,2.867,1.289,2.867,2.87v1.302
				C103.445,238.366,103.095,238.718,102.663,238.72z"/>
		</g>
	</g>
</g>
<image overflow="visible" width="6" height="8" xlink:href="C:\Users\saranya\Desktop\padlock.png"  transform="matrix(1 0 0 1 5.7022 252)">
</image>
</svg>
