<?xml version="1.0" encoding="utf-8"?>
<!-- Generator: Adobe Illustrator 16.0.0, SVG Export Plug-In . SVG Version: 6.00 Build 0)  -->
<!DOCTYPE svg PUBLIC "-//W3C//DTD SVG 1.1//EN" "http://www.w3.org/Graphics/SVG/1.1/DTD/svg11.dtd">
<svg version="1.1" id="Layer_1" xmlns="http://www.w3.org/2000/svg" xmlns:xlink="http://www.w3.org/1999/xlink" x="0px" y="0px"
	 width="512px" height="512px" viewBox="0 0 512 512" enable-background="new 0 0 512 512" xml:space="preserve">
<path fill="#9B9B9B" d="M30.664,32.901H7.875c-0.69,0-1.25-0.56-1.25-1.25V17.735c0-0.361,0.156-0.705,0.428-0.942l11.56-10.084
	C19.09,6.294,19.801,6.3,20.27,6.721L31.5,16.805c0.264,0.237,0.414,0.575,0.414,0.93v13.916
	C31.914,32.341,31.355,32.901,30.664,32.901z M9.125,30.401h20.289V18.292L19.423,9.32L9.125,18.303V30.401z"/>
<g id="social" transform="translate(-0.05 0)">
	<g id="Group_864" transform="translate(10.005 0)">
		<g id="Group_863" transform="translate(0 0)">
			<path id="Path_5276" fill="#9B9B9B" d="M53.582,11.135c0.797-1.756,0.021-3.825-1.735-4.622
				c-1.756-0.798-3.825-0.021-4.622,1.734c-0.797,1.756-0.021,3.825,1.735,4.622c0.917,0.417,1.97,0.417,2.887,0l4.08,4.08
				c0.215-0.354,0.471-0.683,0.763-0.977c0.292-0.291,0.619-0.546,0.973-0.759L53.582,11.135z M51.391,10.667
				c-0.543,0.543-1.423,0.543-1.966,0s-0.543-1.423,0-1.966s1.423-0.543,1.966,0c0.543,0.542,0.544,1.422,0.002,1.965
				C51.392,10.666,51.392,10.667,51.391,10.667L51.391,10.667z"/>
		</g>
	</g>
	<g id="Group_866" transform="translate(6.244 16.154)">
		<g id="Group_865">
			<path id="Path_5277" fill="#9B9B9B" d="M56.635,10.992c-1.028-1.028-2.587-1.311-3.91-0.708l-4.08-4.08
				c-0.425,0.711-1.02,1.305-1.73,1.729l4.08,4.08c-0.799,1.753-0.025,3.822,1.728,4.621s3.821,0.025,4.62-1.728
				C57.947,13.581,57.663,12.021,56.635,10.992L56.635,10.992z M55.152,14.446c-0.543,0.542-1.423,0.542-1.966-0.001
				c-0.543-0.542-0.543-1.423,0-1.965c0.543-0.543,1.423-0.543,1.966,0c0.543,0.542,0.544,1.421,0.002,1.964
				C55.153,14.445,55.153,14.445,55.152,14.446z"/>
		</g>
	</g>
	<g id="Group_868" transform="translate(16.204 9.954)">
		<g id="Group_867">
			<path id="Path_5278" fill="#9B9B9B" d="M56.635,7.215c-1.365-1.359-3.574-1.355-4.935,0.01c-1.024,1.028-1.306,2.584-0.705,3.905
				l-4.08,4.08c0.711,0.425,1.306,1.02,1.73,1.73l4.08-4.08c1.754,0.798,3.822,0.023,4.621-1.73
				C57.95,9.805,57.666,8.244,56.635,7.215L56.635,7.215z M55.152,10.674c-0.543,0.543-1.423,0.543-1.966,0s-0.542-1.423,0-1.966
				c0.543-0.542,1.423-0.542,1.966,0c0.544,0.541,0.547,1.421,0.006,1.965c-0.002,0.002-0.004,0.004-0.006,0.006V10.674z"/>
		</g>
	</g>
	<g id="Group_870" transform="translate(0.05 6.199)">
		<g id="Group_869" transform="translate(0)">
			<path id="Path_5279" fill="#9B9B9B" d="M57.656,7.933c-0.711-0.425-1.306-1.019-1.73-1.729l-4.08,4.08
				c-1.753-0.798-3.82-0.023-4.618,1.729c-0.797,1.753-0.022,3.821,1.73,4.618c1.753,0.798,3.82,0.023,4.618-1.729
				c0.417-0.918,0.417-1.971,0-2.889L57.656,7.933z M51.385,14.433c-0.543,0.543-1.423,0.543-1.966,0s-0.543-1.423,0-1.966
				c0.543-0.542,1.423-0.542,1.966,0c0.544,0.542,0.545,1.421,0.004,1.965C51.388,14.433,51.387,14.434,51.385,14.433L51.385,14.433
				z"/>
		</g>
	</g>
</g>
<g id="suitcase" transform="translate(0.125 -28.319)">
	<g id="Group_13" transform="translate(0 32.316)">
		<g id="Group_12" transform="translate(0 0)">
			<g>
				<path id="Path_45_1_" fill="#9B9B9B" d="M113.149,7.972H90.837c-1.001-0.018-1.826,0.779-1.844,1.78c0,0.013,0,0.025,0,0.038
					v15.6c-0.003,1.001,0.805,1.815,1.806,1.818c0.013,0,0.025,0,0.039,0h22.312c1,0.018,1.826-0.779,1.844-1.78
					c0-0.012,0-0.023,0-0.035v-15.6c0.006-1.001-0.802-1.816-1.803-1.821C113.177,7.972,113.163,7.972,113.149,7.972z
					 M113.149,25.393H90.837l-0.014-15.6h22.326V25.393z"/>
				<path fill="#9B9B9B" d="M113.182,27.333L113.182,27.333H90.799c-0.518-0.002-1.003-0.205-1.368-0.572
					c-0.364-0.367-0.564-0.854-0.563-1.371l0-15.643c0.019-1.047,0.887-1.901,1.936-1.901l0.035,0h22.351
					c0.519,0.002,1.004,0.207,1.368,0.574c0.363,0.368,0.563,0.855,0.56,1.373v15.634C115.1,26.48,114.231,27.333,113.182,27.333z
					 M90.805,8.096c-0.914,0-1.67,0.744-1.686,1.658l0,0.036v15.6c-0.001,0.451,0.172,0.876,0.49,1.195
					c0.317,0.32,0.74,0.497,1.191,0.498h22.382c0.914,0,1.671-0.743,1.687-1.657V9.793c0.003-0.451-0.171-0.876-0.487-1.196
					c-0.317-0.32-0.74-0.498-1.191-0.5L90.805,8.096z M113.274,25.518H90.712l-0.014-15.85h22.576V25.518z M90.962,25.268h22.062
					V9.918H90.948L90.962,25.268z"/>
			</g>
		</g>
	</g>
	<g id="Group_15" transform="translate(0.993 38.457)">
		<g id="Group_14" transform="translate(0 0)">
			<g>
				<rect id="Rectangle_28_1_" x="88.993" y="7.972" fill="#9B9B9B" width="24.014" height="1.985"/>
				<path fill="#9B9B9B" d="M113.132,10.083H88.868V7.847h24.264V10.083z M89.118,9.833h23.764V8.097H89.118V9.833z"/>
			</g>
		</g>
	</g>
	<g id="Group_19" transform="translate(6.943 28.444)">
		<g id="Group_18" transform="translate(0 0)">
			<g>
				<path id="Path_47_1_" fill="#9B9B9B" d="M98.79,7.972h-7.48c-1.279,0.001-2.315,1.038-2.317,2.317v2.548h1.986v-2.548
					c0.002-0.182,0.149-0.329,0.331-0.331h7.48c0.182,0.002,0.328,0.149,0.33,0.331v2.548h1.986v-2.548
					C101.105,9.01,100.07,7.974,98.79,7.972z"/>
				<path fill="#9B9B9B" d="M101.232,12.962h-2.236v-2.673c-0.001-0.112-0.094-0.205-0.206-0.206H91.31
					c-0.111,0.001-0.205,0.094-0.206,0.208v2.671h-2.236v-2.673c0.001-1.346,1.097-2.441,2.442-2.442h7.48
					c1.344,0.002,2.439,1.098,2.441,2.442V12.962z M99.245,12.712h1.736v-2.423c-0.002-1.207-0.985-2.19-2.191-2.192h-7.48
					c-1.207,0.001-2.19,0.984-2.192,2.192v2.423h1.736v-2.423c0.002-0.25,0.207-0.454,0.454-0.456h7.482
					c0.249,0.002,0.452,0.207,0.455,0.455V12.712z"/>
			</g>
		</g>
	</g>
</g>
<g id="open-book" transform="translate(0.125 -19.823)">
	<g id="Group_11" transform="translate(0 20.114)">
		<g>
			<path id="Path_44_1_" fill="#9B9B9B" d="M155.798,9.524c-3.771-2.521-8.653-2.652-12.555-0.339
				c-3.901-2.313-8.784-2.182-12.555,0.339c-0.278,0.187-0.445,0.499-0.445,0.834v19.816c0,0.553,0.447,1.001,0.999,1.001
				c0.198,0,0.391-0.058,0.556-0.168c3.295-2.205,7.595-2.205,10.89,0c0.013,0.009,0.028,0.011,0.041,0.019
				c0.013,0.009,0.027,0.022,0.042,0.031c0.035,0.016,0.071,0.028,0.107,0.039c0.037,0.017,0.074,0.03,0.112,0.042
				c0.055,0.013,0.111,0.021,0.168,0.025c0.029,0,0.056,0.012,0.085,0.012h0.025c0.034-0.002,0.067-0.007,0.1-0.013
				c0.051-0.005,0.101-0.015,0.15-0.027c0.034-0.011,0.067-0.024,0.1-0.039c0.031-0.013,0.064-0.02,0.094-0.036
				c0.014-0.008,0.025-0.02,0.039-0.028c0.014-0.01,0.03-0.013,0.044-0.021c3.296-2.205,7.595-2.205,10.89,0
				c0.459,0.309,1.08,0.187,1.389-0.271c0.111-0.167,0.171-0.363,0.17-0.563V10.358C156.243,10.023,156.077,9.711,155.798,9.524z
				 M142.243,28.467c-3.168-1.485-6.832-1.485-10,0V10.91c3.082-1.831,6.918-1.831,10,0V28.467z M154.243,28.467
				c-3.168-1.485-6.832-1.485-10,0V10.91c3.082-1.831,6.918-1.831,10,0V28.467z"/>
			<path fill="#9B9B9B" d="M155.242,31.307L155.242,31.307c-0.224,0-0.44-0.066-0.627-0.192c-1.597-1.067-3.455-1.633-5.375-1.633
				c-1.921,0-3.779,0.565-5.376,1.633l-0.09,0.055c-0.027,0.016-0.054,0.024-0.081,0.033c-0.061,0.025-0.099,0.041-0.138,0.053
				c-0.062,0.017-0.118,0.027-0.176,0.032c-0.028,0.006-0.066,0.012-0.104,0.014h-0.032c-0.027,0-0.051-0.005-0.068-0.009
				c-0.089-0.008-0.151-0.018-0.213-0.031c-0.052-0.016-0.095-0.031-0.136-0.05c-0.025-0.007-0.066-0.021-0.106-0.039l-0.052-0.034
				c-0.012-0.006-0.03-0.013-0.05-0.025c-1.596-1.068-3.455-1.634-5.375-1.634s-3.779,0.565-5.375,1.633
				c-0.433,0.29-1.05,0.231-1.421-0.141c-0.212-0.213-0.329-0.495-0.329-0.796V10.358c0-0.377,0.187-0.728,0.5-0.938
				c1.965-1.313,4.253-2.007,6.617-2.007c2.111,0,4.187,0.563,6.008,1.627c1.821-1.065,3.897-1.627,6.008-1.627
				c2.364,0,4.651,0.694,6.616,2.007c0.313,0.209,0.501,0.56,0.501,0.938v19.817c0.001,0.225-0.064,0.443-0.19,0.633
				C155.967,31.12,155.618,31.307,155.242,31.307z M143.168,31.039c0.019,0,0.041,0.005,0.058,0.009l0.042,0.128l-0.007-0.125
				c0.029-0.001,0.057-0.006,0.085-0.011c0.054-0.006,0.098-0.015,0.141-0.025c0.023-0.008,0.052-0.02,0.08-0.032
				c0.018-0.007,0.033-0.013,0.048-0.018c0.012-0.004,0.025-0.008,0.037-0.014c0.012-0.011,0.021-0.018,0.031-0.024l0.044-0.022
				c1.635-1.093,3.542-1.673,5.512-1.673s3.877,0.58,5.514,1.676c0.39,0.262,0.956,0.149,1.216-0.238
				c0.098-0.146,0.149-0.317,0.148-0.492V10.358c0-0.294-0.146-0.567-0.39-0.73c-1.924-1.286-4.163-1.965-6.478-1.965
				c-2.09,0-4.146,0.563-5.944,1.63l-0.064,0.038l-0.064-0.038c-1.798-1.066-3.854-1.63-5.944-1.63c-2.314,0-4.554,0.68-6.478,1.965
				c-0.244,0.164-0.39,0.437-0.389,0.73v19.816c0,0.234,0.091,0.454,0.256,0.619c0.289,0.29,0.768,0.334,1.105,0.11
				c1.637-1.096,3.544-1.676,5.514-1.676s3.877,0.58,5.514,1.676c0.005,0,0.021,0.005,0.037,0.016l0.031,0.022
				c0.027,0.015,0.057,0.025,0.088,0.034c0.048,0.021,0.081,0.032,0.113,0.043c0.04,0.009,0.09,0.017,0.14,0.02
				C143.167,31.039,143.168,31.039,143.168,31.039z M154.368,28.663l-0.178-0.083c-1.538-0.721-3.249-1.103-4.947-1.103
				s-3.409,0.382-4.947,1.103l-0.178,0.083V10.839l0.062-0.036c1.531-0.91,3.282-1.391,5.063-1.391s3.532,0.481,5.063,1.391
				l0.062,0.036V28.663z M149.243,27.228c1.67,0,3.351,0.36,4.875,1.044v-17.29c-1.479-0.863-3.162-1.32-4.875-1.32
				s-3.396,0.457-4.875,1.32v17.29C145.893,27.588,147.573,27.228,149.243,27.228z M142.368,28.663l-0.178-0.083
				c-1.538-0.721-3.249-1.103-4.947-1.103s-3.409,0.382-4.947,1.103l-0.178,0.083V10.839l0.061-0.036
				c1.532-0.91,3.283-1.391,5.064-1.391s3.532,0.481,5.064,1.391l0.061,0.036V28.663z M132.368,10.981v17.29
				c1.524-0.684,3.206-1.044,4.875-1.044s3.351,0.36,4.875,1.044v-17.29c-1.479-0.863-3.162-1.32-4.875-1.32
				S133.847,10.118,132.368,10.981z"/>
		</g>
	</g>
</g>
<g id="chat" transform="translate(0.14 0.125)">
	<g id="Group_879" transform="translate(0 0)">
		<g id="Group_878">
			<g>
				<path id="Path_5280_1_" fill="#9B9B9B" d="M195.27,22.096c-0.227-0.514-0.826-0.746-1.34-0.519
					c-0.49,0.216-0.728,0.776-0.543,1.28l1.2,2.959l-3.553-1.566c-0.257-0.111-0.55-0.111-0.808,0
					c-1.222,0.52-2.537,0.785-3.865,0.781c-5.437,0-9.089-4.258-9.089-8.233c0-4.54,4.077-8.233,9.089-8.233
					c5.013,0,9.089,3.693,9.089,8.233c-0.002,0.389-0.032,0.778-0.09,1.163c-0.098,0.552,0.271,1.08,0.824,1.177
					s1.079-0.271,1.177-0.824c0.004-0.018,0.006-0.036,0.009-0.054c0.07-0.486,0.106-0.977,0.107-1.469
					c-0.013-2.787-1.208-5.437-3.29-7.289c-2.146-1.938-4.94-2.999-7.831-2.975c-2.891-0.024-5.686,1.038-7.831,2.975
					c-1.851,1.654-3.01,3.944-3.248,6.415c-2.34,1.49-3.77,4.061-3.8,6.835c-0.001,1.696,0.545,3.347,1.557,4.708l-1.482,3.667
					c-0.21,0.521,0.042,1.112,0.563,1.321c0.254,0.104,0.538,0.099,0.788-0.012l4.275-1.883c1.084,0.4,2.231,0.604,3.387,0.6
					c0.025,0,0.05,0,0.075,0c1.679-0.008,3.326-0.457,4.778-1.299c1.256-0.728,2.312-1.756,3.071-2.992
					c0.721-0.129,1.427-0.326,2.11-0.588l5.449,2.4c0.514,0.226,1.113-0.008,1.339-0.521c0.109-0.25,0.114-0.535,0.012-0.789
					L195.27,22.096z M180.568,29.128h-0.041c-1.02-0.002-2.028-0.208-2.967-0.606c-0.258-0.112-0.55-0.112-0.808,0l-2.379,1.051
					l0.767-1.899c0.142-0.351,0.076-0.751-0.169-1.039c-0.939-1.075-1.458-2.454-1.462-3.883c0.015-1.636,0.692-3.196,1.878-4.323
					c0.403,2.098,1.452,4.018,3,5.49c2.001,1.906,4.629,3.018,7.391,3.125C184.379,28.389,182.51,29.137,180.568,29.128z"/>
				<path fill="#9B9B9B" d="M172.495,32.649c-0.147,0-0.291-0.028-0.427-0.083c-0.282-0.113-0.503-0.33-0.623-0.61
					c-0.12-0.281-0.123-0.591-0.008-0.874l1.456-3.603c-0.994-1.363-1.541-3.038-1.54-4.726c0.031-2.808,1.452-5.385,3.807-6.908
					c0.255-2.486,1.419-4.77,3.283-6.436c2.147-1.939,4.924-3.007,7.819-3.007l0.097,0l0.095,0c2.895,0,5.671,1.068,7.819,3.008
					c2.104,1.872,3.318,4.563,3.331,7.381c-0.001,0.495-0.037,0.995-0.108,1.487l-0.011,0.062c-0.106,0.606-0.689,1.033-1.32,0.92
					c-0.301-0.053-0.563-0.22-0.737-0.47c-0.175-0.25-0.241-0.552-0.188-0.853c0.057-0.376,0.086-0.762,0.088-1.142
					c0-4.47-4.021-8.107-8.964-8.107c-4.943,0-8.964,3.637-8.964,8.108c0,3.916,3.602,8.108,8.964,8.108l0,0
					c1.339,0,2.613-0.26,3.816-0.771c0.287-0.123,0.619-0.124,0.906,0.001l3.271,1.441l-1.085-2.673
					c-0.208-0.568,0.06-1.2,0.608-1.441c0.147-0.065,0.303-0.098,0.462-0.098c0.451,0,0.86,0.267,1.043,0.68l2.132,5.273
					c0.114,0.283,0.109,0.605-0.014,0.886c-0.182,0.415-0.592,0.683-1.045,0.683l0,0c-0.158,0-0.313-0.032-0.458-0.097l-5.403-2.38
					c-0.659,0.249-1.341,0.439-2.029,0.566c-0.767,1.229-1.832,2.261-3.086,2.987c-1.471,0.853-3.145,1.308-4.84,1.315h-0.108
					c-1.146,0-2.273-0.198-3.35-0.59l-4.229,1.862C172.808,32.617,172.653,32.649,172.495,32.649z M186.261,6.653
					c-2.833,0-5.55,1.045-7.651,2.943c-1.833,1.638-2.972,3.887-3.208,6.334l-0.006,0.061l-0.052,0.033
					c-2.313,1.473-3.712,3.989-3.742,6.73c-0.001,1.656,0.543,3.302,1.532,4.633l0.042,0.056l-1.509,3.732
					c-0.089,0.221-0.086,0.463,0.007,0.682s0.266,0.389,0.486,0.477c0.222,0.091,0.472,0.086,0.691-0.01l4.322-1.903l0.047,0.018
					c1.063,0.393,2.177,0.592,3.311,0.592h0.108c1.651-0.008,3.282-0.451,4.716-1.282c1.234-0.715,2.281-1.734,3.027-2.949
					l0.029-0.048l0.055-0.01c0.709-0.127,1.411-0.322,2.088-0.582l0.048-0.018l0.048,0.021l5.449,2.4
					c0.113,0.05,0.233,0.075,0.357,0.075l0,0c0.354,0,0.674-0.209,0.816-0.532c0.096-0.219,0.1-0.472,0.01-0.692l-2.13-5.27
					c-0.141-0.319-0.46-0.527-0.813-0.527c-0.125,0-0.246,0.025-0.36,0.076c-0.429,0.188-0.638,0.682-0.477,1.123l1.314,3.241
					l-3.835-1.691c-0.223-0.096-0.482-0.097-0.707,0.001c-1.235,0.524-2.543,0.791-3.886,0.791c-5.541,0-9.243-4.322-9.243-8.358
					c0-4.608,4.133-8.358,9.214-8.358c5.08,0,9.214,3.75,9.214,8.358c-0.002,0.393-0.032,0.79-0.091,1.182
					c-0.042,0.237,0.01,0.474,0.146,0.669c0.137,0.195,0.341,0.325,0.575,0.367c0.503,0.087,0.948-0.246,1.032-0.723l0.006-0.032
					c0.071-0.498,0.107-0.986,0.108-1.469c-0.013-2.747-1.196-5.37-3.248-7.195c-2.103-1.898-4.82-2.944-7.652-2.944l-0.095,0
					L186.261,6.653z M174.143,29.811l0.882-2.185c0.125-0.309,0.067-0.657-0.148-0.911c-0.958-1.096-1.488-2.504-1.492-3.964
					c0.015-1.661,0.713-3.27,1.917-4.414l0.166-0.157l0.043,0.225c0.401,2.085,1.426,3.96,2.963,5.423
					c1.981,1.887,4.577,2.984,7.31,3.091l0.294,0.012l-0.212,0.203c-1.422,1.367-3.291,2.12-5.263,2.12h-0.075
					c-1.042-0.002-2.057-0.209-3.016-0.616c-0.228-0.1-0.483-0.099-0.709-0.001L174.143,29.811z M175.311,18.68
					c-1.055,1.085-1.663,2.556-1.677,4.073c0.004,1.397,0.512,2.748,1.431,3.8c0.277,0.326,0.35,0.773,0.19,1.168l-0.651,1.614
					l2.098-0.927c0.289-0.127,0.62-0.127,0.908,0c0.927,0.394,1.909,0.594,2.917,0.596h0.075c1.809,0,3.528-0.655,4.874-1.851
					c-2.684-0.174-5.222-1.284-7.174-3.144C176.781,22.563,175.751,20.725,175.311,18.68z"/>
			</g>
			<g>
				<circle id="Ellipse_159_1_" fill="#9B9B9B" cx="186.145" cy="16.86" r="1"/>
				<path fill="#9B9B9B" d="M186.145,17.985c-0.62,0-1.125-0.505-1.125-1.125s0.505-1.125,1.125-1.125s1.125,0.505,1.125,1.125
					S186.765,17.985,186.145,17.985z M186.145,15.985c-0.482,0-0.875,0.393-0.875,0.875s0.393,0.875,0.875,0.875
					s0.875-0.393,0.875-0.875S186.628,15.985,186.145,15.985z"/>
			</g>
			<g>
				<circle id="Ellipse_160_1_" fill="#9B9B9B" cx="191.145" cy="16.86" r="1"/>
				<path fill="#9B9B9B" d="M191.145,17.985c-0.62,0-1.125-0.505-1.125-1.125s0.505-1.125,1.125-1.125s1.125,0.505,1.125,1.125
					S191.765,17.985,191.145,17.985z M191.145,15.985c-0.482,0-0.875,0.393-0.875,0.875s0.393,0.875,0.875,0.875
					s0.875-0.393,0.875-0.875S191.628,15.985,191.145,15.985z"/>
			</g>
			<g>
				<circle id="Ellipse_161_1_" fill="#9B9B9B" cx="182.145" cy="16.86" r="1"/>
				<path fill="#9B9B9B" d="M182.145,17.985c-0.62,0-1.125-0.505-1.125-1.125s0.505-1.125,1.125-1.125s1.125,0.505,1.125,1.125
					S182.765,17.985,182.145,17.985z M182.145,15.985c-0.482,0-0.875,0.393-0.875,0.875s0.393,0.875,0.875,0.875
					s0.875-0.393,0.875-0.875S182.628,15.985,182.145,15.985z"/>
			</g>
		</g>
	</g>
</g>
<g id="notification" transform="translate(-23.272)">
	<g id="Group_1" transform="translate(23.272)">
		<path id="Path_2" fill="#9B9B9B" d="M235.198,25.511h-1.182v-9.454c-0.054-5.222-4.33-9.411-9.552-9.357
			c-5.146,0.053-9.305,4.211-9.357,9.357v9.455h-1.182c-0.653,0-1.183,0.529-1.183,1.182s0.529,1.182,1.183,1.182h5.908
			c0,2.611,2.117,4.729,4.728,4.729c2.611,0,4.728-2.117,4.728-4.729h5.909c0.653,0,1.183-0.529,1.183-1.182
			S235.852,25.512,235.198,25.511L235.198,25.511L235.198,25.511z M224.562,30.237c-1.306-0.001-2.363-1.059-2.364-2.364h4.728
			C226.923,29.178,225.866,30.236,224.562,30.237z M231.652,25.511h-14.181v-9.454c-0.002-3.917,3.172-7.092,7.088-7.094
			c3.916-0.002,7.092,3.172,7.094,7.088c0,0.002,0,0.004,0,0.006L231.652,25.511z"/>
	</g>
</g>
<g id="Group_23" transform="translate(0.25 0.25)">
	<g id="Group_16">
		<g>
			<path id="Path_15_1_" fill="#9B9B9B" d="M262.138,28.725c-5.794,0-10.507-5.007-10.507-11.162
				c0-6.156,4.713-11.162,10.507-11.162s10.507,5.008,10.507,11.162C272.645,23.716,267.931,28.725,262.138,28.725L262.138,28.725z
				 M262.138,8.519c-4.995-0.303-9.291,3.501-9.593,8.497c-0.303,4.995,3.502,9.291,8.498,9.594c4.995,0.303,9.29-3.502,9.593-8.498
				c0.012-0.183,0.018-0.366,0.018-0.549C270.789,12.717,266.982,8.674,262.138,8.519z"/>
			<path fill="#9B9B9B" d="M262.138,28.975c-5.931,0-10.757-5.119-10.757-11.412c0-6.292,4.826-11.412,10.757-11.412
				c5.932,0,10.757,5.12,10.757,11.412C272.895,23.855,268.069,28.975,262.138,28.975z M262.138,6.65
				c-5.656,0-10.257,4.895-10.257,10.912c0,6.017,4.601,10.912,10.257,10.912c5.655,0,10.257-4.896,10.257-10.912
				C272.395,11.545,267.793,6.65,262.138,6.65z M261.6,26.876L261.6,26.876c-0.19,0-0.381-0.006-0.572-0.017
				c-2.483-0.151-4.759-1.26-6.408-3.121c-1.649-1.862-2.475-4.255-2.324-6.738c0.309-5.095,4.69-9.048,9.857-8.731
				c4.962,0.159,8.89,4.331,8.75,9.3c0,0.182-0.006,0.37-0.019,0.559C270.587,23.033,266.509,26.876,261.6,26.876z M261.581,8.751
				c-4.646,0-8.506,3.637-8.787,8.279c-0.143,2.349,0.639,4.614,2.2,6.375c1.561,1.763,3.713,2.812,6.063,2.953
				c4.881,0.31,9.036-3.44,9.328-8.263c0.012-0.179,0.018-0.356,0.018-0.534c0.133-4.702-3.578-8.644-8.272-8.794
				C261.941,8.757,261.76,8.751,261.581,8.751z"/>
		</g>
	</g>
	<g>
		<path id="Path_16_1_" fill="#9B9B9B" d="M268.43,24.568c-0.404,0.417-0.395,1.083,0.021,1.487
			c0.001,0.001,0.002,0.002,0.003,0.003l6.137,6.045c0.418,0.405,1.085,0.396,1.491-0.023c0.405-0.418,0.395-1.085-0.023-1.491
			l-4.8-4.644c-0.633-0.642-1.334-1.212-2.091-1.7C268.889,24.251,268.623,24.367,268.43,24.568z"/>
		<path fill="#9B9B9B" d="M275.324,32.651c-0.34,0-0.663-0.131-0.907-0.368l-6.139-6.047c-0.516-0.501-0.527-1.327-0.028-1.842
			c0.24-0.25,0.564-0.392,0.913-0.399l0.076-0.002l0.064,0.042c0.771,0.497,1.488,1.081,2.133,1.734l4.796,4.64
			c0.517,0.502,0.529,1.329,0.029,1.845C276.014,32.51,275.681,32.651,275.324,32.651z M269.101,24.5
			c-0.187,0.021-0.359,0.104-0.49,0.241c-0.309,0.318-0.302,0.827,0.015,1.135l6.142,6.05c0.306,0.296,0.836,0.289,1.136-0.02
			c0.309-0.318,0.301-0.829-0.018-1.138l-4.8-4.644C270.48,25.513,269.814,24.968,269.101,24.5z"/>
	</g>
</g>
<path fill="#FFFFFF" d="M32.281,71.846H9.492c-0.69,0-1.25-0.56-1.25-1.25V56.68c0-0.361,0.156-0.705,0.428-0.942l11.56-10.084
	c0.477-0.415,1.188-0.409,1.656,0.012l11.23,10.084c0.264,0.237,0.414,0.575,0.414,0.93v13.916
	C33.531,71.286,32.972,71.846,32.281,71.846z M10.742,69.346h20.289V57.237l-9.991-8.972l-10.298,8.983V69.346z"/>
<g id="social_1_" transform="translate(-0.05 0)">
	<g id="Group_864_1_" transform="translate(10.005 0)">
		<g id="Group_863_1_" transform="translate(0 0)">
			<path id="Path_5276_1_" fill="#FFFFFF" d="M55.199,50.08c0.797-1.756,0.021-3.825-1.735-4.622
				c-1.756-0.798-3.825-0.021-4.622,1.734c-0.797,1.756-0.021,3.825,1.735,4.622c0.917,0.417,1.97,0.417,2.887,0l4.08,4.08
				c0.215-0.354,0.471-0.683,0.763-0.977c0.292-0.291,0.619-0.546,0.973-0.759L55.199,50.08z M53.007,49.612
				c-0.543,0.543-1.423,0.543-1.966,0s-0.543-1.423,0-1.966s1.423-0.543,1.966,0c0.543,0.542,0.544,1.422,0.002,1.965
				C53.008,49.611,53.008,49.612,53.007,49.612L53.007,49.612z"/>
		</g>
	</g>
	<g id="Group_866_1_" transform="translate(6.244 16.154)">
		<g id="Group_865_1_">
			<path id="Path_5277_1_" fill="#FFFFFF" d="M58.252,49.936c-1.028-1.028-2.587-1.311-3.91-0.708l-4.08-4.08
				c-0.425,0.711-1.02,1.305-1.73,1.729l4.08,4.08c-0.799,1.753-0.025,3.822,1.728,4.621s3.821,0.025,4.62-1.728
				C59.563,52.526,59.28,50.966,58.252,49.936L58.252,49.936z M56.768,53.39c-0.543,0.542-1.423,0.542-1.966-0.001
				c-0.543-0.542-0.543-1.423,0-1.965c0.543-0.543,1.423-0.543,1.966,0c0.543,0.542,0.544,1.421,0.002,1.964
				C56.769,53.389,56.769,53.389,56.768,53.39z"/>
		</g>
	</g>
	<g id="Group_868_1_" transform="translate(16.204 9.954)">
		<g id="Group_867_1_">
			<path id="Path_5278_1_" fill="#FFFFFF" d="M58.252,46.16c-1.365-1.359-3.574-1.355-4.935,0.01
				c-1.024,1.028-1.306,2.584-0.705,3.905l-4.08,4.08c0.711,0.425,1.306,1.02,1.73,1.73l4.08-4.08
				c1.754,0.798,3.822,0.023,4.621-1.73C59.566,48.75,59.283,47.189,58.252,46.16L58.252,46.16z M56.768,49.619
				c-0.543,0.543-1.423,0.543-1.966,0s-0.542-1.423,0-1.966c0.543-0.542,1.423-0.542,1.966,0c0.544,0.541,0.547,1.421,0.006,1.965
				c-0.002,0.002-0.004,0.004-0.006,0.006V49.619z"/>
		</g>
	</g>
	<g id="Group_870_1_" transform="translate(0.05 6.199)">
		<g id="Group_869_1_" transform="translate(0)">
			<path id="Path_5279_1_" fill="#FFFFFF" d="M59.273,46.878c-0.711-0.425-1.306-1.019-1.73-1.729l-4.08,4.08
				c-1.753-0.798-3.82-0.023-4.618,1.729c-0.797,1.753-0.022,3.821,1.73,4.618c1.753,0.798,3.82,0.023,4.618-1.729
				c0.417-0.918,0.417-1.971,0-2.889L59.273,46.878z M53.001,53.378c-0.543,0.543-1.423,0.543-1.966,0s-0.543-1.423,0-1.966
				c0.543-0.542,1.423-0.542,1.966,0c0.544,0.542,0.545,1.421,0.004,1.965C53.004,53.378,53.003,53.379,53.001,53.378L53.001,53.378
				z"/>
		</g>
	</g>
</g>
<g id="suitcase_1_" transform="translate(0.125 -28.319)">
	<g id="Group_13_1_" transform="translate(0 32.316)">
		<g id="Group_12_1_" transform="translate(0 0)">
			<g>
				<path id="Path_45_2_" fill="#FFFFFF" d="M114.766,46.917H92.454c-1.001-0.018-1.826,0.779-1.844,1.78c0,0.013,0,0.025,0,0.038
					v15.6c-0.003,1.001,0.805,1.815,1.806,1.818c0.013,0,0.025,0,0.039,0h22.312c1,0.018,1.826-0.779,1.844-1.78
					c0-0.012,0-0.023,0-0.035v-15.6c0.006-1.001-0.802-1.816-1.803-1.821C114.793,46.917,114.78,46.917,114.766,46.917z
					 M114.766,64.337H92.454l-0.014-15.6h22.326V64.337z"/>
				<path fill="#FFFFFF" d="M114.798,66.278L114.798,66.278H92.416c-0.518-0.002-1.003-0.205-1.368-0.572
					c-0.364-0.367-0.564-0.854-0.563-1.371l0-15.643c0.019-1.047,0.887-1.901,1.936-1.901l0.035,0h22.351
					c0.519,0.002,1.004,0.207,1.368,0.574c0.363,0.368,0.563,0.855,0.56,1.373v15.634C116.716,65.424,115.848,66.278,114.798,66.278
					z M92.421,47.041c-0.914,0-1.67,0.744-1.686,1.658l0,0.036v15.6c-0.001,0.451,0.172,0.876,0.49,1.195
					c0.317,0.32,0.74,0.497,1.191,0.498h22.382c0.914,0,1.671-0.743,1.687-1.657V48.738c0.003-0.451-0.171-0.876-0.487-1.196
					c-0.317-0.32-0.74-0.498-1.191-0.5L92.421,47.041z M114.891,64.462H92.329l-0.014-15.85h22.576V64.462z M92.579,64.212h22.062
					v-15.35H92.565L92.579,64.212z"/>
			</g>
		</g>
	</g>
	<g id="Group_15_1_" transform="translate(0.993 38.457)">
		<g id="Group_14_1_" transform="translate(0 0)">
			<g>
				<rect id="Rectangle_28_2_" x="90.61" y="46.917" fill="#FFFFFF" width="24.014" height="1.985"/>
				<path fill="#FFFFFF" d="M114.749,49.028H90.485v-2.235h24.264V49.028z M90.735,48.778h23.764v-1.735H90.735V48.778z"/>
			</g>
		</g>
	</g>
	<g id="Group_19_1_" transform="translate(6.943 28.444)">
		<g id="Group_18_1_" transform="translate(0 0)">
			<g>
				<path id="Path_47_2_" fill="#FFFFFF" d="M100.407,46.917h-7.48c-1.279,0.001-2.315,1.038-2.317,2.317v2.548h1.986v-2.548
					c0.002-0.182,0.149-0.329,0.331-0.331h7.48c0.182,0.002,0.328,0.149,0.33,0.331v2.548h1.986v-2.548
					C102.722,47.955,101.686,46.918,100.407,46.917z"/>
				<path fill="#FFFFFF" d="M102.849,51.907h-2.236v-2.673c-0.001-0.112-0.094-0.205-0.206-0.206h-7.479
					c-0.111,0.001-0.205,0.094-0.206,0.208v2.671h-2.236v-2.673c0.001-1.346,1.097-2.441,2.442-2.442h7.48
					c1.344,0.002,2.439,1.098,2.441,2.442V51.907z M100.862,51.657h1.736v-2.423c-0.002-1.207-0.985-2.19-2.191-2.192h-7.48
					c-1.207,0.001-2.19,0.984-2.192,2.192v2.423h1.736v-2.423c0.002-0.25,0.207-0.454,0.454-0.456h7.482
					c0.249,0.002,0.452,0.207,0.455,0.455V51.657z"/>
			</g>
		</g>
	</g>
</g>
<g id="open-book_1_" transform="translate(0.125 -19.823)">
	<g id="Group_11_1_" transform="translate(0 20.114)">
		<g>
			<path id="Path_44_2_" fill="#FFFFFF" d="M157.415,48.469c-3.771-2.521-8.653-2.652-12.555-0.339
				c-3.901-2.313-8.784-2.182-12.555,0.339c-0.278,0.187-0.445,0.499-0.445,0.834V69.12c0,0.553,0.447,1.001,0.999,1.001
				c0.198,0,0.391-0.058,0.556-0.168c3.295-2.205,7.595-2.205,10.89,0c0.013,0.009,0.028,0.011,0.041,0.019
				c0.013,0.009,0.027,0.022,0.042,0.031c0.035,0.016,0.071,0.028,0.107,0.039c0.037,0.017,0.074,0.03,0.112,0.042
				c0.055,0.013,0.111,0.021,0.168,0.025c0.029,0,0.056,0.012,0.085,0.012h0.025c0.034-0.002,0.067-0.007,0.1-0.013
				c0.051-0.005,0.101-0.015,0.15-0.027c0.034-0.011,0.067-0.024,0.1-0.039c0.031-0.013,0.064-0.02,0.094-0.036
				c0.014-0.008,0.025-0.02,0.039-0.028c0.014-0.01,0.03-0.013,0.044-0.021c3.296-2.205,7.595-2.205,10.89,0
				c0.459,0.309,1.08,0.187,1.389-0.271c0.111-0.167,0.171-0.363,0.17-0.563V49.303C157.86,48.968,157.694,48.656,157.415,48.469z
				 M143.86,67.412c-3.168-1.485-6.832-1.485-10,0V49.855c3.082-1.831,6.918-1.831,10,0V67.412z M155.86,67.412
				c-3.168-1.485-6.832-1.485-10,0V49.855c3.082-1.831,6.918-1.831,10,0V67.412z"/>
			<path fill="#FFFFFF" d="M156.859,70.251L156.859,70.251c-0.224,0-0.44-0.066-0.627-0.192c-1.597-1.067-3.455-1.633-5.375-1.633
				c-1.921,0-3.779,0.565-5.376,1.633l-0.09,0.055c-0.027,0.016-0.054,0.024-0.081,0.033c-0.061,0.025-0.099,0.041-0.138,0.053
				c-0.062,0.017-0.118,0.027-0.176,0.032c-0.028,0.006-0.066,0.012-0.104,0.014h-0.032c-0.027,0-0.051-0.005-0.068-0.009
				c-0.089-0.008-0.151-0.018-0.213-0.031c-0.052-0.016-0.095-0.031-0.136-0.05c-0.025-0.007-0.066-0.021-0.106-0.039l-0.052-0.034
				c-0.012-0.006-0.03-0.013-0.05-0.025c-1.596-1.068-3.455-1.634-5.375-1.634s-3.779,0.565-5.375,1.633
				c-0.433,0.29-1.05,0.231-1.421-0.141c-0.212-0.213-0.329-0.495-0.329-0.796V49.303c0-0.377,0.187-0.728,0.5-0.938
				c1.965-1.313,4.253-2.007,6.617-2.007c2.111,0,4.187,0.563,6.008,1.627c1.821-1.065,3.897-1.627,6.008-1.627
				c2.364,0,4.651,0.694,6.616,2.007c0.313,0.209,0.501,0.56,0.501,0.938v19.817c0.001,0.225-0.064,0.443-0.19,0.633
				C157.583,70.065,157.235,70.251,156.859,70.251z M144.785,69.984c0.019,0,0.041,0.005,0.058,0.009l0.042,0.128l-0.007-0.125
				c0.029-0.001,0.057-0.006,0.085-0.011c0.054-0.006,0.098-0.015,0.141-0.025c0.023-0.008,0.052-0.02,0.08-0.032
				c0.018-0.007,0.033-0.013,0.048-0.018c0.012-0.004,0.025-0.008,0.037-0.014c0.012-0.011,0.021-0.018,0.031-0.024l0.044-0.022
				c1.635-1.093,3.542-1.673,5.512-1.673s3.877,0.58,5.514,1.676c0.39,0.262,0.956,0.149,1.216-0.238
				c0.098-0.146,0.149-0.317,0.148-0.492V49.303c0-0.294-0.146-0.567-0.39-0.73c-1.924-1.286-4.163-1.965-6.478-1.965
				c-2.09,0-4.146,0.563-5.944,1.63l-0.064,0.038l-0.064-0.038c-1.798-1.066-3.854-1.63-5.944-1.63c-2.314,0-4.554,0.68-6.478,1.965
				c-0.244,0.164-0.39,0.437-0.389,0.73V69.12c0,0.234,0.091,0.454,0.256,0.619c0.289,0.29,0.768,0.334,1.105,0.11
				c1.637-1.096,3.544-1.676,5.514-1.676s3.877,0.58,5.514,1.676c0.005,0,0.021,0.005,0.037,0.016l0.031,0.022
				c0.027,0.015,0.057,0.025,0.088,0.034c0.048,0.021,0.081,0.032,0.113,0.043c0.04,0.009,0.09,0.017,0.14,0.02
				C144.784,69.984,144.785,69.984,144.785,69.984z M155.985,67.608l-0.178-0.083c-1.538-0.721-3.249-1.103-4.947-1.103
				s-3.409,0.382-4.947,1.103l-0.178,0.083V49.784l0.062-0.036c1.531-0.91,3.282-1.391,5.063-1.391s3.532,0.481,5.063,1.391
				l0.062,0.036V67.608z M150.86,66.172c1.67,0,3.351,0.36,4.875,1.044v-17.29c-1.479-0.863-3.162-1.32-4.875-1.32
				s-3.396,0.457-4.875,1.32v17.29C147.509,66.533,149.19,66.172,150.86,66.172z M143.985,67.608l-0.178-0.083
				c-1.538-0.721-3.249-1.103-4.947-1.103s-3.409,0.382-4.947,1.103l-0.178,0.083V49.784l0.061-0.036
				c1.532-0.91,3.283-1.391,5.064-1.391s3.532,0.481,5.064,1.391l0.061,0.036V67.608z M133.985,49.926v17.29
				c1.524-0.684,3.206-1.044,4.875-1.044s3.351,0.36,4.875,1.044v-17.29c-1.479-0.863-3.162-1.32-4.875-1.32
				S135.463,49.063,133.985,49.926z"/>
		</g>
	</g>
</g>
<g id="chat_1_" transform="translate(0.14 0.125)">
	<g id="Group_879_1_" transform="translate(0 0)">
		<g id="Group_878_1_">
			<g>
				<path id="Path_5280_2_" fill="#FFFFFF" d="M196.887,61.041c-0.227-0.514-0.826-0.746-1.34-0.519
					c-0.49,0.216-0.728,0.776-0.543,1.28l1.2,2.959l-3.553-1.566c-0.257-0.111-0.55-0.111-0.808,0
					c-1.222,0.52-2.537,0.785-3.865,0.781c-5.437,0-9.089-4.258-9.089-8.233c0-4.54,4.077-8.233,9.089-8.233
					c5.013,0,9.089,3.693,9.089,8.233c-0.002,0.389-0.032,0.778-0.09,1.163c-0.098,0.552,0.271,1.08,0.824,1.177
					s1.079-0.271,1.177-0.824c0.004-0.018,0.006-0.036,0.009-0.054c0.07-0.486,0.106-0.977,0.107-1.469
					c-0.013-2.787-1.208-5.437-3.29-7.289c-2.146-1.938-4.94-2.999-7.831-2.975c-2.891-0.024-5.686,1.038-7.831,2.975
					c-1.851,1.654-3.01,3.944-3.248,6.415c-2.34,1.49-3.77,4.061-3.8,6.835c-0.001,1.696,0.545,3.347,1.557,4.708l-1.482,3.667
					c-0.21,0.521,0.042,1.112,0.563,1.321c0.254,0.104,0.538,0.099,0.788-0.012l4.275-1.883c1.084,0.4,2.231,0.604,3.387,0.6
					c0.025,0,0.05,0,0.075,0c1.679-0.008,3.326-0.457,4.778-1.299c1.256-0.728,2.312-1.756,3.071-2.992
					c0.721-0.129,1.427-0.326,2.11-0.588l5.449,2.4c0.514,0.226,1.113-0.008,1.339-0.521c0.109-0.25,0.114-0.535,0.012-0.789
					L196.887,61.041z M182.185,68.073h-0.041c-1.02-0.002-2.028-0.208-2.967-0.606c-0.258-0.112-0.55-0.112-0.808,0l-2.379,1.051
					l0.767-1.899c0.142-0.351,0.076-0.751-0.169-1.039c-0.939-1.075-1.458-2.454-1.462-3.883c0.015-1.636,0.692-3.196,1.878-4.323
					c0.403,2.098,1.452,4.018,3,5.49c2.001,1.906,4.629,3.018,7.391,3.125C185.995,67.334,184.127,68.082,182.185,68.073z"/>
				<path fill="#FFFFFF" d="M174.111,71.594c-0.147,0-0.291-0.028-0.427-0.083c-0.282-0.113-0.503-0.33-0.623-0.61
					c-0.12-0.281-0.123-0.591-0.008-0.874l1.456-3.603c-0.994-1.363-1.541-3.038-1.54-4.726c0.031-2.808,1.452-5.385,3.807-6.908
					c0.255-2.486,1.419-4.77,3.283-6.436c2.147-1.939,4.924-3.007,7.819-3.007l0.097,0l0.095,0c2.895,0,5.671,1.068,7.819,3.008
					c2.104,1.872,3.318,4.563,3.331,7.381c-0.001,0.495-0.037,0.995-0.108,1.487l-0.011,0.062c-0.106,0.606-0.689,1.033-1.32,0.92
					c-0.301-0.053-0.563-0.22-0.737-0.47c-0.175-0.25-0.241-0.552-0.188-0.853c0.057-0.376,0.086-0.762,0.088-1.142
					c0-4.47-4.021-8.107-8.964-8.107c-4.943,0-8.964,3.637-8.964,8.108c0,3.916,3.602,8.108,8.964,8.108l0,0
					c1.339,0,2.613-0.26,3.816-0.771c0.287-0.123,0.619-0.124,0.906,0.001l3.271,1.441l-1.085-2.673
					c-0.208-0.568,0.06-1.2,0.608-1.441c0.147-0.065,0.303-0.098,0.462-0.098c0.451,0,0.86,0.267,1.043,0.68l2.132,5.273
					c0.114,0.283,0.109,0.605-0.014,0.886c-0.182,0.415-0.592,0.683-1.045,0.683l0,0c-0.158,0-0.313-0.032-0.458-0.097l-5.403-2.38
					c-0.659,0.249-1.341,0.439-2.029,0.566c-0.767,1.229-1.832,2.261-3.086,2.987c-1.471,0.853-3.145,1.308-4.84,1.315h-0.108
					c-1.146,0-2.273-0.198-3.35-0.59l-4.229,1.862C174.424,71.562,174.27,71.594,174.111,71.594z M187.878,45.598
					c-2.833,0-5.55,1.045-7.651,2.943c-1.833,1.638-2.972,3.887-3.208,6.334l-0.006,0.061l-0.052,0.033
					c-2.313,1.473-3.712,3.989-3.742,6.73c-0.001,1.656,0.543,3.302,1.532,4.633l0.042,0.056l-1.509,3.732
					c-0.089,0.221-0.086,0.463,0.007,0.682s0.266,0.389,0.486,0.477c0.222,0.091,0.472,0.086,0.691-0.01l4.322-1.903l0.047,0.018
					c1.063,0.393,2.177,0.592,3.311,0.592h0.108c1.651-0.008,3.282-0.451,4.716-1.282c1.234-0.715,2.281-1.734,3.027-2.949
					l0.029-0.048l0.055-0.01c0.709-0.127,1.411-0.322,2.088-0.582l0.048-0.018l0.048,0.021l5.449,2.4
					c0.113,0.05,0.233,0.075,0.357,0.075l0,0c0.354,0,0.674-0.209,0.816-0.532c0.096-0.219,0.1-0.472,0.01-0.692l-2.13-5.27
					c-0.141-0.319-0.46-0.527-0.813-0.527c-0.125,0-0.246,0.025-0.36,0.076c-0.429,0.188-0.638,0.682-0.477,1.123l1.314,3.241
					l-3.835-1.691c-0.223-0.096-0.482-0.097-0.707,0.001c-1.235,0.524-2.543,0.791-3.886,0.791c-5.541,0-9.243-4.322-9.243-8.358
					c0-4.608,4.133-8.358,9.214-8.358c5.08,0,9.214,3.75,9.214,8.358c-0.002,0.393-0.032,0.79-0.091,1.182
					c-0.042,0.237,0.01,0.474,0.146,0.669c0.137,0.195,0.341,0.325,0.575,0.367c0.503,0.087,0.948-0.246,1.032-0.723l0.006-0.032
					c0.071-0.498,0.107-0.986,0.108-1.469c-0.013-2.747-1.196-5.37-3.248-7.195c-2.103-1.898-4.82-2.944-7.652-2.944l-0.095,0
					L187.878,45.598z M175.759,68.756l0.882-2.185c0.125-0.309,0.067-0.657-0.148-0.911c-0.958-1.096-1.488-2.504-1.492-3.964
					c0.015-1.661,0.713-3.27,1.917-4.414l0.166-0.157l0.043,0.225c0.401,2.085,1.426,3.96,2.963,5.423
					c1.981,1.887,4.577,2.984,7.31,3.091l0.294,0.012l-0.212,0.203c-1.422,1.367-3.291,2.12-5.263,2.12h-0.075
					c-1.042-0.002-2.057-0.209-3.016-0.616c-0.228-0.1-0.483-0.099-0.709-0.001L175.759,68.756z M176.928,57.625
					c-1.055,1.085-1.663,2.556-1.677,4.073c0.004,1.397,0.512,2.748,1.431,3.8c0.277,0.326,0.35,0.773,0.19,1.168l-0.651,1.614
					l2.098-0.927c0.289-0.127,0.62-0.127,0.908,0c0.927,0.394,1.909,0.594,2.917,0.596h0.075c1.809,0,3.528-0.655,4.874-1.851
					c-2.684-0.174-5.222-1.284-7.174-3.144C178.398,61.508,177.368,59.67,176.928,57.625z"/>
			</g>
			<g>
				<circle id="Ellipse_159_2_" fill="#FFFFFF" cx="187.762" cy="55.805" r="1"/>
				<path fill="#FFFFFF" d="M187.762,56.93c-0.62,0-1.125-0.505-1.125-1.125s0.505-1.125,1.125-1.125s1.125,0.505,1.125,1.125
					S188.382,56.93,187.762,56.93z M187.762,54.93c-0.482,0-0.875,0.393-0.875,0.875s0.393,0.875,0.875,0.875
					s0.875-0.393,0.875-0.875S188.244,54.93,187.762,54.93z"/>
			</g>
			<g>
				<circle id="Ellipse_160_2_" fill="#FFFFFF" cx="192.762" cy="55.805" r="1"/>
				<path fill="#FFFFFF" d="M192.762,56.93c-0.62,0-1.125-0.505-1.125-1.125s0.505-1.125,1.125-1.125s1.125,0.505,1.125,1.125
					S193.382,56.93,192.762,56.93z M192.762,54.93c-0.482,0-0.875,0.393-0.875,0.875s0.393,0.875,0.875,0.875
					s0.875-0.393,0.875-0.875S193.244,54.93,192.762,54.93z"/>
			</g>
			<g>
				<circle id="Ellipse_161_2_" fill="#FFFFFF" cx="183.762" cy="55.805" r="1"/>
				<path fill="#FFFFFF" d="M183.762,56.93c-0.62,0-1.125-0.505-1.125-1.125s0.505-1.125,1.125-1.125s1.125,0.505,1.125,1.125
					S184.382,56.93,183.762,56.93z M183.762,54.93c-0.482,0-0.875,0.393-0.875,0.875s0.393,0.875,0.875,0.875
					s0.875-0.393,0.875-0.875S184.244,54.93,183.762,54.93z"/>
			</g>
		</g>
	</g>
</g>
<g id="notification_1_" transform="translate(-23.272)">
	<g id="Group_1_1_" transform="translate(23.272)">
		<path id="Path_2_1_" fill="#FFFFFF" d="M236.815,64.456h-1.182v-9.454c-0.054-5.222-4.33-9.411-9.552-9.357
			c-5.146,0.053-9.305,4.211-9.357,9.357v9.455h-1.182c-0.653,0-1.183,0.529-1.183,1.182s0.529,1.182,1.183,1.182h5.908
			c0,2.611,2.117,4.729,4.728,4.729c2.611,0,4.728-2.117,4.728-4.729h5.909c0.653,0,1.183-0.529,1.183-1.182
			S237.468,64.457,236.815,64.456L236.815,64.456L236.815,64.456z M226.178,69.182c-1.306-0.001-2.363-1.059-2.364-2.364h4.728
			C228.54,68.123,227.483,69.181,226.178,69.182z M233.269,64.456h-14.181v-9.454c-0.002-3.917,3.172-7.092,7.088-7.094
			c3.916-0.002,7.092,3.172,7.094,7.088c0,0.002,0,0.004,0,0.006L233.269,64.456z"/>
	</g>
</g>
<g id="Group_23_1_" transform="translate(0.25 0.25)">
	<g id="Group_16_1_">
		<g>
			<path id="Path_15_2_" fill="#FFFFFF" d="M263.754,67.669c-5.793,0-10.506-5.007-10.506-11.162
				c0-6.156,4.713-11.162,10.506-11.162c5.795,0,10.508,5.008,10.508,11.162C274.262,62.661,269.547,67.669,263.754,67.669
				L263.754,67.669z M263.754,47.463c-4.994-0.303-9.29,3.501-9.592,8.497c-0.303,4.995,3.502,9.291,8.497,9.594
				c4.996,0.303,9.291-3.502,9.594-8.498c0.012-0.183,0.018-0.366,0.018-0.549C272.406,51.662,268.6,47.619,263.754,47.463z"/>
			<path fill="#FFFFFF" d="M263.754,67.919c-5.93,0-10.756-5.119-10.756-11.412c0-6.292,4.827-11.412,10.756-11.412
				c5.932,0,10.758,5.12,10.758,11.412C274.512,62.8,269.686,67.919,263.754,67.919z M263.754,45.595
				c-5.654,0-10.256,4.895-10.256,10.912c0,6.017,4.602,10.912,10.256,10.912c5.656,0,10.258-4.896,10.258-10.912
				C274.012,50.49,269.41,45.595,263.754,45.595z M263.217,65.821h-0.002c-0.189,0-0.379-0.006-0.57-0.017
				c-2.484-0.151-4.76-1.26-6.409-3.121c-1.649-1.862-2.475-4.255-2.324-6.738c0.309-5.095,4.69-9.048,9.858-8.731
				c4.961,0.159,8.889,4.331,8.75,9.3c0,0.182-0.006,0.37-0.02,0.559C272.203,61.978,268.125,65.821,263.217,65.821z
				 M263.197,47.696c-4.645,0-8.505,3.637-8.787,8.279c-0.143,2.349,0.639,4.614,2.2,6.375c1.561,1.763,3.713,2.812,6.063,2.953
				c4.881,0.31,9.035-3.44,9.328-8.263c0.012-0.179,0.018-0.356,0.018-0.534c0.133-4.702-3.578-8.644-8.273-8.794
				C263.559,47.702,263.377,47.696,263.197,47.696z"/>
		</g>
	</g>
	<g>
		<path id="Path_16_2_" fill="#FFFFFF" d="M270.047,63.513c-0.404,0.417-0.395,1.083,0.021,1.487c0,0.001,0.002,0.002,0.002,0.003
			l6.137,6.045c0.418,0.405,1.086,0.396,1.492-0.023c0.404-0.418,0.395-1.085-0.023-1.491l-4.801-4.644
			c-0.633-0.642-1.334-1.212-2.09-1.7C270.506,63.196,270.24,63.312,270.047,63.513z"/>
		<path fill="#FFFFFF" d="M276.941,71.596c-0.34,0-0.664-0.131-0.908-0.368l-6.139-6.047c-0.516-0.501-0.527-1.327-0.027-1.842
			c0.24-0.25,0.564-0.392,0.912-0.399l0.076-0.002l0.064,0.042c0.771,0.497,1.488,1.081,2.133,1.734l4.797,4.64
			c0.516,0.502,0.529,1.329,0.029,1.845C277.631,71.455,277.297,71.596,276.941,71.596z M270.717,63.445
			c-0.186,0.021-0.359,0.104-0.49,0.241c-0.309,0.318-0.301,0.827,0.016,1.135l6.141,6.05c0.307,0.296,0.836,0.289,1.137-0.02
			c0.309-0.318,0.301-0.829-0.018-1.138l-4.801-4.644C272.098,64.458,271.432,63.913,270.717,63.445z"/>
	</g>
</g>
</svg>
