<?xml version="1.0" encoding="utf-8"?>
<!-- Generator: Adobe Illustrator 16.0.0, SVG Export Plug-In . SVG Version: 6.00 Build 0)  -->
<!DOCTYPE svg PUBLIC "-//W3C//DTD SVG 1.1//EN" "http://www.w3.org/Graphics/SVG/1.1/DTD/svg11.dtd">
<svg version="1.1" xmlns="http://www.w3.org/2000/svg" xmlns:xlink="http://www.w3.org/1999/xlink" x="0px" y="0px" width="500px"
	 height="302.46px" viewBox="0 0 500 302.46" enable-background="new 0 0 500 302.46" xml:space="preserve">
<g id="BACKGROUND">
</g>
<g id="OBJECTS">
	<g>
		<defs>
			<rect id="SVGID_1_" y="-47.278" width="500" height="500"/>
		</defs>
		<clipPath id="SVGID_2_">
			<use xlink:href="#SVGID_1_"  overflow="visible"/>
		</clipPath>
		<g clip-path="url(#SVGID_2_)">
			<g>
				<path fill="#ABEBFF" d="M65.845,39.119c-7.156,2.227-14.285,5.792-18.534,11.964c-4.25,6.172-4.666,15.431,0.688,20.675
					c2.03,1.988,4.675,3.245,7.386,4.096c10.491,3.292,21.821,0.87,32.543-1.568c4.783-1.087,9.647-2.206,13.901-4.65
					c12.952-7.442,14.621-24.986,1.195-32.806C93.572,31.325,75.402,36.146,65.845,39.119z"/>
				<path fill="#ABEBFF" d="M437.341,137.442c4.105,3.072,8.468,5.964,13.393,7.394c4.925,1.429,10.536,1.226,14.823-1.587
					c3.23-2.119,5.497-5.652,6.075-9.473c0.192-1.269,0.206-2.572-0.036-3.833c-0.32-1.667-1.081-3.229-2.067-4.612
					c-3.779-5.298-10.195-7.573-15.115-11.55c-4.574-3.698-8.388-10.013-15.14-7.583C426.202,110.9,428.2,130.603,437.341,137.442z"
					/>
			</g>
			<path fill="#13628E" d="M49.103,260.994c2.829-30.031,3.131-60.299,0.9-90.38c-0.489-6.588,0.081-13.484-2.191-19.807
				c-2.521-7.017-8.854-11.901-16.337-8.445c-3.666,1.693-6.447,4.89-8.51,8.361c-6.518,10.965-6.464,24.088-6.867,36.433
				c-0.761,23.301-1.522,46.602-2.283,69.903c1.737,1.668,3.907,3.02,5.971,4.262c5.781,3.478,12.825,4.014,19.572,4.083
				c1.793,0.019,3.627,0.003,5.315-0.601C46.361,264.199,48.935,262.779,49.103,260.994z"/>
			<path fill="#13628E" d="M438.72,260.994c2.829-30.031,3.131-60.299,0.9-90.38c-0.488-6.588,0.081-13.484-2.19-19.807
				c-2.521-7.017-8.854-11.901-16.337-8.445c-3.666,1.693-6.447,4.89-8.511,8.361c-6.518,10.965-6.463,24.088-6.866,36.433
				c-0.762,23.301-1.522,46.602-2.284,69.903c1.737,1.668,3.908,3.02,5.972,4.262c5.781,3.478,12.825,4.014,19.572,4.083
				c1.793,0.019,3.627,0.003,5.314-0.601C435.979,264.199,438.552,262.779,438.72,260.994z"/>
			<path fill="#13628E" d="M86.87,263.695c1.702-15.033,2.591-30.16,2.616-45.29c0.023-14.515-0.023-29.74-2.458-44.074
				c-0.025-0.145-0.051-0.289-0.076-0.434c-1.165-6.626-5.517-14.026-13.199-12.946c-6.785,0.955-12.964,7.177-15.527,13.282
				c-3.43,8.167-3.76,17.322-4.123,26.049c-0.835,20.046-1.67,40.092-2.505,60.139c1.732,1.43,3.897,2.586,5.958,3.647
				c5.77,2.974,12.812,3.413,19.558,3.45c1.792,0.011,3.627-0.009,5.317-0.533C84.119,266.461,86.696,265.231,86.87,263.695z"/>
			<path fill="#13628E" d="M474.364,263.695c1.702-15.033,2.591-30.16,2.615-45.29c0.024-14.515-0.023-29.74-2.458-44.074
				c-0.025-0.145-0.051-0.289-0.076-0.434c-1.164-6.626-5.518-14.026-13.199-12.946c-6.785,0.955-12.964,7.177-15.527,13.282
				c-3.429,8.167-3.76,17.322-4.123,26.049c-0.835,20.046-1.67,40.092-2.505,60.139c1.732,1.43,3.898,2.586,5.958,3.647
				c5.77,2.974,12.812,3.413,19.558,3.45c1.792,0.011,3.627-0.009,5.316-0.533C471.613,266.461,474.19,265.231,474.364,263.695z"/>
			<g>
				<g>
					<rect x="375.326" y="206.22" fill="#73C2E5" width="92.668" height="64.348"/>
					<path fill="#2380C1" d="M446.377,234.72h14.014v-13.28c0-3.533-2.865-6.398-6.399-6.398h-1.216
						c-3.533,0-6.398,2.865-6.398,6.398V234.72z"/>
					<path fill="#2380C1" d="M425.357,234.72h14.013v-13.28c0-3.533-2.864-6.398-6.398-6.398h-1.216
						c-3.534,0-6.398,2.865-6.398,6.398V234.72z"/>
					<path fill="#2380C1" d="M404.337,234.72h14.014v-13.28c0-3.533-2.865-6.398-6.398-6.398h-1.217
						c-3.533,0-6.398,2.865-6.398,6.398V234.72z"/>
					<rect x="373.124" y="253.557" fill="#2380C1" width="96.36" height="5.068"/>
					<rect x="376.983" y="238.326" fill="#CAEFFF" width="90.21" height="0.952"/>
					<rect x="375.441" y="206.637" fill="#74A6E2" width="92.485" height="4.774"/>
					<rect x="375.441" y="258.486" fill="#74A6E2" width="92.485" height="4.775"/>
					<rect x="375.422" y="188.426" opacity="0.46" fill="#74A6E2" width="39.501" height="82.142"/>
					<rect x="304.085" y="157.299" fill="#73C2E5" width="92.669" height="113.268"/>
					<path fill="#2380C1" d="M375.137,187.167h14.013v-13.279c0-3.534-2.864-6.399-6.398-6.399h-1.216
						c-3.534,0-6.398,2.865-6.398,6.399V187.167z"/>
					<path fill="#2380C1" d="M354.116,187.167h14.014v-13.279c0-3.534-2.865-6.399-6.398-6.399h-1.217
						c-3.533,0-6.398,2.865-6.398,6.399V187.167z"/>
					<path fill="#2380C1" d="M333.097,187.167h14.013v-13.279c0-3.534-2.864-6.399-6.398-6.399h-1.216
						c-3.534,0-6.398,2.865-6.398,6.399V187.167z"/>
					<path fill="#2380C1" d="M312.076,187.167h14.014v-13.279c0-3.534-2.865-6.399-6.398-6.399h-1.217
						c-3.533,0-6.398,2.865-6.398,6.399V187.167z"/>
					<path fill="#2380C1" d="M375.137,234.72h14.013v-13.28c0-3.533-2.864-6.398-6.398-6.398h-1.216
						c-3.534,0-6.398,2.865-6.398,6.398V234.72z"/>
					<path fill="#2380C1" d="M354.116,234.72h14.014v-13.28c0-3.533-2.865-6.398-6.398-6.398h-1.217
						c-3.533,0-6.398,2.865-6.398,6.398V234.72z"/>
					<path fill="#2380C1" d="M333.097,234.72h14.013v-13.28c0-3.533-2.864-6.398-6.398-6.398h-1.216
						c-3.534,0-6.398,2.865-6.398,6.398V234.72z"/>
					<path fill="#2380C1" d="M312.076,234.72h14.014v-13.28c0-3.533-2.865-6.398-6.398-6.398h-1.217
						c-3.533,0-6.398,2.865-6.398,6.398V234.72z"/>
					<rect x="301.884" y="201.595" fill="#2380C1" width="96.36" height="5.069"/>
					<rect x="301.884" y="253.557" fill="#2380C1" width="96.36" height="5.068"/>
					<polygon fill="#2380C1" points="304.109,159.482 398.526,159.482 391.733,132.443 304.109,132.443 					"/>
					<rect x="305.743" y="190.841" fill="#CAEFFF" width="90.209" height="0.952"/>
					<rect x="305.743" y="238.326" fill="#CAEFFF" width="90.209" height="0.952"/>
					<g>
						<path fill="#CCF1FF" d="M365.229,156.559h12.113v-3.258c0-4.891-3.965-8.855-8.855-8.855h-3.258V156.559z"/>
						<rect x="365.253" y="136.225" fill="#F8FDFF" width="2.17" height="12.549"/>
					</g>
					<g>
						<path fill="#CCF1FF" d="M338.229,156.559h-12.112v-3.258c0-4.891,3.965-8.855,8.855-8.855h3.257V156.559z"/>
						<rect x="336.036" y="136.225" fill="#F8FDFF" width="2.169" height="12.549"/>
					</g>
					<circle fill="#CCF1FF" cx="351.943" cy="138.292" r="13.854"/>
					<rect x="337.059" y="136.224" fill="#94CBEA" width="28.549" height="20.319"/>
					<path fill="#2380C1" d="M344.845,154.92h14.013v-8.599c0-3.534-2.864-6.398-6.398-6.398h-1.216
						c-3.534,0-6.398,2.865-6.398,6.398V154.92z"/>
					<rect x="304.105" y="159.292" fill="#74A6E2" width="92.58" height="4.775"/>
					<rect x="304.2" y="206.637" fill="#74A6E2" width="92.485" height="4.774"/>
					<rect x="304.2" y="258.486" fill="#74A6E2" width="92.485" height="4.775"/>
					<rect x="304.181" y="132.531" opacity="0.46" fill="#74A6E2" width="29.322" height="138.037"/>
					<polygon fill="#2380C1" points="396.686,206.637 468.187,206.637 460.455,188.172 396.686,188.172 					"/>
				</g>
				<rect x="37.751" y="206.22" fill="#73C2E5" width="92.669" height="64.348"/>
				<path fill="#2380C1" d="M59.369,234.72H45.356v-13.28c0-3.533,2.865-6.398,6.398-6.398h1.216c3.534,0,6.399,2.865,6.399,6.398
					V234.72z"/>
				<path fill="#2380C1" d="M80.389,234.72H66.375v-13.28c0-3.533,2.865-6.398,6.399-6.398h1.216c3.534,0,6.399,2.865,6.399,6.398
					V234.72z"/>
				<path fill="#2380C1" d="M101.409,234.72H87.396v-13.28c0-3.533,2.865-6.398,6.399-6.398h1.216c3.534,0,6.398,2.865,6.398,6.398
					V234.72z"/>
				<rect x="36.261" y="253.557" fill="#2380C1" width="96.36" height="5.068"/>
				<rect x="38.553" y="238.326" fill="#CAEFFF" width="90.209" height="0.952"/>
				<rect x="37.819" y="206.637" fill="#74A6E2" width="92.486" height="4.774"/>
				<rect x="37.819" y="258.486" fill="#74A6E2" width="92.486" height="4.775"/>
				<rect x="90.824" y="188.426" opacity="0.46" fill="#74A6E2" width="39.501" height="82.142"/>
				<rect x="108.992" y="157.299" fill="#73C2E5" width="92.668" height="113.268"/>
				<path fill="#2380C1" d="M130.61,187.167h-14.014v-13.279c0-3.534,2.865-6.399,6.399-6.399h1.216
					c3.534,0,6.399,2.865,6.399,6.399V187.167z"/>
				<path fill="#2380C1" d="M151.63,187.167h-14.014v-13.279c0-3.534,2.865-6.399,6.399-6.399h1.216
					c3.534,0,6.399,2.865,6.399,6.399V187.167z"/>
				<path fill="#2380C1" d="M172.649,187.167h-14.013v-13.279c0-3.534,2.865-6.399,6.399-6.399h1.216
					c3.534,0,6.398,2.865,6.398,6.399V187.167z"/>
				<path fill="#2380C1" d="M193.669,187.167h-14.013v-13.279c0-3.534,2.865-6.399,6.398-6.399h1.216
					c3.534,0,6.398,2.865,6.398,6.399V187.167z"/>
				<path fill="#2380C1" d="M130.61,234.72h-14.014v-13.28c0-3.533,2.865-6.398,6.399-6.398h1.216c3.534,0,6.399,2.865,6.399,6.398
					V234.72z"/>
				<path fill="#2380C1" d="M151.63,234.72h-14.014v-13.28c0-3.533,2.865-6.398,6.399-6.398h1.216c3.534,0,6.399,2.865,6.399,6.398
					V234.72z"/>
				<path fill="#2380C1" d="M172.649,234.72h-14.013v-13.28c0-3.533,2.865-6.398,6.399-6.398h1.216c3.534,0,6.398,2.865,6.398,6.398
					V234.72z"/>
				<path fill="#2380C1" d="M193.669,234.72h-14.013v-13.28c0-3.533,2.865-6.398,6.398-6.398h1.216c3.534,0,6.398,2.865,6.398,6.398
					V234.72z"/>
				<rect x="107.502" y="201.595" fill="#2380C1" width="96.36" height="5.069"/>
				<rect x="107.502" y="253.557" fill="#2380C1" width="96.36" height="5.068"/>
				<polygon fill="#2380C1" points="201.636,159.482 107.219,159.482 114.012,132.443 201.636,132.443 				"/>
				<rect x="109.794" y="190.841" fill="#CAEFFF" width="90.209" height="0.952"/>
				<rect x="109.794" y="238.326" fill="#CAEFFF" width="90.209" height="0.952"/>
				<g>
					<path fill="#CCF1FF" d="M140.517,156.559h-12.113v-3.258c0-4.891,3.965-8.855,8.855-8.855h3.257V156.559z"/>
					<rect x="138.324" y="136.225" fill="#F8FDFF" width="2.169" height="12.549"/>
				</g>
				<g>
					<path fill="#F8FDFF" d="M167.516,156.559h12.113v-3.258c0-4.891-3.965-8.855-8.855-8.855h-3.258V156.559z"/>
					<rect x="167.541" y="136.225" fill="#F8FDFF" width="2.169" height="12.549"/>
				</g>
				<circle fill="#CCF1FF" cx="153.803" cy="138.292" r="13.854"/>
				<ellipse fill="#CCF1FF" cx="252.754" cy="123.884" rx="24.713" ry="23.983"/>
				<rect x="140.138" y="136.224" fill="#94CBEA" width="28.549" height="20.319"/>
				<path fill="#2380C1" d="M160.901,154.92h-14.013v-8.599c0-3.534,2.865-6.398,6.398-6.398h1.216c3.534,0,6.398,2.865,6.398,6.398
					V154.92z"/>
				<rect x="109.06" y="159.292" fill="#74A6E2" width="92.58" height="4.775"/>
				<rect x="109.06" y="206.637" fill="#74A6E2" width="92.486" height="4.774"/>
				<rect x="109.06" y="258.486" fill="#74A6E2" width="92.486" height="4.775"/>
				<rect x="172.244" y="132.531" opacity="0.46" fill="#74A6E2" width="29.321" height="138.037"/>
				<rect x="198.206" y="158.968" fill="#73C2E5" width="111.206" height="51.925"/>
				<rect x="197.987" y="206.188" fill="#2380C1" width="111.412" height="4.923"/>
				<rect x="198.206" y="211.01" fill="#73C2E5" width="111.206" height="51.925"/>
				<rect x="198.206" y="262.808" fill="#73C2E5" width="111.206" height="16.294"/>
				<rect x="197.987" y="258.231" fill="#2380C1" width="111.412" height="4.923"/>
				<rect x="193.347" y="274.991" fill="#74A6E2" width="122.572" height="7.723"/>
				<rect x="188.043" y="281.13" fill="#73C2E5" width="133.325" height="7.723"/>
				<rect x="226.318" y="213.69" fill="#2380C1" width="53.053" height="61.203"/>
				<rect x="218.319" y="210.245" fill="#13628E" width="64.364" height="3.875"/>
				<rect x="215.9" y="210.803" fill="#F8FDFF" width="11.245" height="64.378"/>
				<rect x="221.411" y="214.217" fill="#97CBFF" width="1.185" height="61.09"/>
				<rect x="218.147" y="214.217" fill="#97CBFF" width="1.185" height="61.09"/>
				<g>
					<rect x="277.646" y="210.803" fill="#F8FDFF" width="11.245" height="64.378"/>
				</g>
				<rect x="282.536" y="214.217" fill="#97CBFF" width="1.184" height="61.09"/>
				<g>
					<circle fill="#74A6E2" cx="215.551" cy="213.452" r="3.21"/>
					<circle fill="#74A6E2" cx="227.68" cy="213.452" r="3.21"/>
					<rect x="215.257" y="210.26" fill="#74A6E2" width="12.857" height="3.995"/>
					<circle fill="#97CBFF" cx="215.417" cy="213.524" r="1.494"/>
					<circle fill="#97CBFF" cx="227.61" cy="213.524" r="1.494"/>
				</g>
				<path fill="#2380C1" d="M294.559,196.135h-14.013v-20.521c0-3.534,2.864-6.398,6.398-6.398h1.216
					c3.534,0,6.398,2.865,6.398,6.398V196.135z"/>
				<path fill="#2380C1" d="M271.676,196.135h-14.013v-20.521c0-3.534,2.864-6.398,6.398-6.398h1.216
					c3.534,0,6.398,2.865,6.398,6.398V196.135z"/>
				<path fill="#2380C1" d="M248.793,196.135H234.78v-20.521c0-3.534,2.865-6.398,6.399-6.398h1.216
					c3.534,0,6.398,2.865,6.398,6.398V196.135z"/>
				<path fill="#2380C1" d="M225.91,196.135h-14.013v-20.521c0-3.534,2.865-6.398,6.399-6.398h1.216
					c3.534,0,6.398,2.865,6.398,6.398V196.135z"/>
				<rect x="200.838" y="199.271" fill="#CAEFFF" width="103.628" height="1.043"/>
				<rect x="195.682" y="124.025" fill="#2380C1" width="115.028" height="35.325"/>
				<rect x="227.962" y="120.293" fill="#73C2E5" width="49.396" height="39.563"/>
				<rect x="198.146" y="159.292" fill="#74A6E2" width="111.239" height="4.775"/>
				<rect x="227.861" y="123.836" fill="#74A6E2" width="49.606" height="4.775"/>
				<path fill="#2380C1" d="M259.479,151.511h-14.013v-13.28c0-3.534,2.865-6.398,6.399-6.398h1.216
					c3.533,0,6.398,2.865,6.398,6.398V151.511z"/>
				<g>
					<path fill="#CCF1FF" d="M227.979,159.31h-17.823v-1.81c0-8.844,7.169-16.013,16.013-16.013h1.81V159.31z"/>
					<rect x="224.751" y="120.3" fill="#CCF1FF" width="3.192" height="27.554"/>
				</g>
				<g>
					<path fill="#CCF1FF" d="M277.229,159.31h17.823v-1.81c0-8.844-7.17-16.013-16.014-16.013h-1.81V159.31z"/>
					<rect x="277.266" y="120.3" fill="#CCF1FF" width="3.191" height="27.554"/>
				</g>
				<polygon fill="#2380C1" points="109.06,206.637 37.56,206.637 45.291,188.172 109.06,188.172 				"/>
				<rect x="285.799" y="214.217" fill="#97CBFF" width="1.185" height="61.09"/>
			</g>
			<path fill="#2380C1" d="M-14.03,245.75c2.621-2.323,5.708-4.503,9.608-5.927c6.205-2.266,13.964-2.377,20.804-1.041
				c6.84,1.336,12.866,3.997,18.22,7.015c5.007,2.822,9.749,6.076,16.036,7.533c4.46,1.034,9.313,1.064,14.055,1.221
				c10.009,0.33,20.773,1.524,27.701,6.128c2.767,1.839,4.872,4.192,8.41,5.384c3.212,1.083,7.032,1.01,10.661,1.144
				c10.098,0.371,20.739,2.861,26.287,8.237h-7.216h-18.733H-25.631v-3.896C-24.503,262.55-22.486,253.246-14.03,245.75z"/>
			<path fill="#2380C1" d="M498.701,245.75c-2.621-2.323-5.709-4.503-9.608-5.927c-6.204-2.266-13.964-2.377-20.804-1.041
				s-12.866,3.997-18.22,7.015c-5.007,2.822-9.748,6.076-16.036,7.533c-4.461,1.034-9.313,1.064-14.055,1.221
				c-10.009,0.33-20.773,1.524-27.701,6.128c-2.768,1.839-4.872,4.192-8.41,5.384c-3.212,1.083-7.031,1.01-10.661,1.144
				c-10.097,0.371-20.739,2.861-26.287,8.237h7.217h18.733h137.433v-3.896C509.174,262.55,507.157,253.246,498.701,245.75z"/>
			<g>
				<circle fill="#74A6E2" cx="276.64" cy="213.452" r="3.209"/>
				<circle fill="#74A6E2" cx="288.769" cy="213.452" r="3.21"/>
				<rect x="276.347" y="210.26" fill="#74A6E2" width="12.857" height="3.995"/>
				<circle fill="#97CBFF" cx="276.506" cy="213.524" r="1.495"/>
				<circle fill="#97CBFF" cx="288.7" cy="213.524" r="1.494"/>
			</g>
			<path fill="#CCF1FF" d="M308.25,47.812c9.142-1.591,16.709-7.919,25.448-11.036c8.394-2.992,18.078-2.811,25.916,1.43
				c4.972,2.69,9.04,6.857,14.083,9.41c8.927,4.521,19.574,3.409,29.439,1.735c9.866-1.674,20.121-3.785,29.724-0.97
				c10.904,3.197,19.657,13.027,21.379,24.259c-23.579,0-47.158,0-70.737,0c-34.279,0-77.276,0-111.556,0
				c-1.392,0-1.068-5.984-1.021-6.677c0.492-7.239,3.911-13.09,10.958-15.722C290.314,47.093,299.546,49.327,308.25,47.812z"/>
			<path fill="#CCF1FF" d="M92.554,90.146c5.19-0.581,9.487-2.892,14.45-4.03c4.766-1.093,10.265-1.027,14.715,0.522
				c2.823,0.982,5.133,2.504,7.997,3.437c5.069,1.651,11.114,1.245,16.716,0.633c5.602-0.611,11.425-1.382,16.877-0.354
				c6.192,1.167,11.162,4.758,12.139,8.86c-13.388,0-26.776,0-40.165,0c-19.464,0-43.878,0-63.343,0c-0.79,0-0.606-2.186-0.58-2.438
				c0.28-2.644,2.221-4.781,6.222-5.742C82.37,89.883,87.612,90.7,92.554,90.146z"/>
			<path fill="#CCF1FF" d="M406.715,18.692c5.19-0.581,9.487-2.892,14.449-4.03c4.767-1.093,10.266-1.026,14.716,0.522
				c2.822,0.982,5.133,2.504,7.996,3.437c5.069,1.651,11.114,1.245,16.717,0.634c5.602-0.611,11.425-1.382,16.877-0.354
				c6.191,1.167,11.161,4.757,12.139,8.86c-13.388,0-26.776,0-40.165,0c-19.464,0-43.878,0-63.343,0
				c-0.79,0-0.606-2.186-0.579-2.439c0.279-2.644,2.221-4.781,6.222-5.742C396.53,18.43,401.772,19.246,406.715,18.692z"/>
			<path fill="#CCF1FF" d="M150.804,61.059c5.19-0.581,9.487-2.892,14.45-4.03c4.766-1.093,10.265-1.026,14.715,0.522
				c2.823,0.982,5.133,2.504,7.997,3.437c5.069,1.651,11.115,1.245,16.716,0.634c5.602-0.611,11.425-1.382,16.877-0.354
				c6.192,1.167,11.162,4.758,12.139,8.86c-13.388,0-26.776,0-40.165,0c-19.465,0-43.878,0-63.343,0c-0.79,0-0.606-2.186-0.58-2.439
				c0.28-2.644,2.221-4.781,6.222-5.742C140.62,60.796,145.861,61.612,150.804,61.059z"/>
		</g>
	</g>
</g>
<g id="DESIGNED_BY_FREEPIK">
</g>
</svg>
