<?xml version="1.0" encoding="utf-8"?>
<!-- Generator: Adobe Illustrator 16.0.0, SVG Export Plug-In . SVG Version: 6.00 Build 0)  -->
<!DOCTYPE svg PUBLIC "-//W3C//DTD SVG 1.1//EN" "http://www.w3.org/Graphics/SVG/1.1/DTD/svg11.dtd">
<svg version="1.1" id="Layer_1" xmlns="http://www.w3.org/2000/svg" xmlns:xlink="http://www.w3.org/1999/xlink" x="0px" y="0px"
	 width="300px" height="53.886px" viewBox="0 0 300 53.886" enable-background="new 0 0 300 53.886" xml:space="preserve">
<g id="video-camera_2_" transform="translate(0 -21.802)">
	<g id="Group_10_2_" transform="translate(0 21.802)">
		<g id="Group_9_2_" transform="translate(0 0)">
			<path id="Path_40_2_" fill="#FFFFFF" d="M63.065,28.439c-0.625-1.116-2.056-1.497-3.188-0.85
				c-0.032,0.007-0.032,0.016-0.041,0.024l-7.839,4.54l-2,1.169v10.871l1.858,1.1c0.091,0,0.091,0.069,0.15,0.069l7.72,4.472
				c0.388,0.275,0.841,0.423,1.306,0.41c1.283,0.011,2.329-1.019,2.344-2.299c0-0.011,0-0.025,0-0.036v-9.219l0.084-9.082
				C63.43,29.189,63.311,28.778,63.065,28.439z"/>
			<path id="Path_41_2_" fill="#FFFFFF" d="M17.249,24.923c6.113,0,11.061-4.959,11.061-11.077c0-6.117-4.979-11.075-11.074-11.074
				C11.123,2.774,6.177,7.733,6.177,13.85c0,0.002,0,0.003,0,0.003c-0.004,6.113,4.954,11.07,11.059,11.071
				C17.231,24.923,17.231,24.923,17.249,24.923z M17.249,9.308c2.508,0,4.541,2.034,4.541,4.541c0,2.509-2.033,4.54-4.541,4.54
				c-2.523,0-4.562-2.031-4.562-4.54l0,0c-0.029-2.458,1.91-4.488,4.385-4.535c0.058,0,0.118,0,0.175,0L17.249,9.308L17.249,9.308z"
				/>
			<path id="Path_42_2_" fill="#FFFFFF" d="M45.313,25.55c-1.818,0.937-3.846,1.431-5.916,1.444
				c-2.542,0.013-5.039-0.73-7.155-2.133h-7.848c-2.116,1.402-4.61,2.146-7.154,2.133c-2.059,0.021-4.084-0.477-5.918-1.444
				c-1.64,0.954-2.664,2.705-2.683,4.608v16.786c0.015,3.071,2.5,5.554,5.575,5.569h28.292c3.069-0.016,5.56-2.5,5.575-5.569V30.159
				C47.993,28.254,46.957,26.519,45.313,25.55z"/>
			<path id="Path_43_2_" fill="#FFFFFF" d="M39.399,24.923c6.112,0,11.059-4.958,11.059-11.075c0-6.116-4.977-11.076-11.059-11.076
				c-6.116,0-11.076,4.959-11.076,11.076c-0.001,6.113,4.95,11.07,11.06,11.075C39.39,24.923,39.394,24.923,39.399,24.923z
				 M39.399,9.308c2.506,0,4.541,2.034,4.541,4.541c0,2.509-2.035,4.54-4.541,4.54c-2.534,0-4.563-2.031-4.563-4.54l0,0
				c0-2.503,2.033-4.535,4.537-4.535c0.001,0,0.029,0,0.031,0L39.399,9.308L39.399,9.308z"/>
		</g>
	</g>
</g>
</svg>
