<svg xmlns="http://www.w3.org/2000/svg" width="25.47" height="33.429" viewBox="0 0 25.47 33.429">
  <g id="padlock" transform="translate(-53.333)">
    <g id="Group_482" data-name="Group 482" transform="translate(53.333)">
      <path id="Path_619" data-name="Path 619" d="M75.619,11.143H74.027V7.959a7.959,7.959,0,0,0-15.918,0v3.184H56.517a3.183,3.183,0,0,0-3.184,3.184V30.245a3.183,3.183,0,0,0,3.184,3.184h19.1A3.183,3.183,0,0,0,78.8,30.245V14.327A3.183,3.183,0,0,0,75.619,11.143ZM66.068,25.469a3.184,3.184,0,1,1,3.184-3.184A3.183,3.183,0,0,1,66.068,25.469ZM71,11.143H61.133V7.959a4.935,4.935,0,0,1,9.869,0Z" transform="translate(-53.333)" fill="#07a3b2"/>
    </g>
  </g>
</svg>
