<?xml version="1.0" encoding="utf-8"?>
<!-- Generator: Adobe Illustrator 16.0.0, SVG Export Plug-In . SVG Version: 6.00 Build 0)  -->
<!DOCTYPE svg PUBLIC "-//W3C//DTD SVG 1.1//EN" "http://www.w3.org/Graphics/SVG/1.1/DTD/svg11.dtd">
<svg version="1.1" id="Layer_1" xmlns="http://www.w3.org/2000/svg" xmlns:xlink="http://www.w3.org/1999/xlink" x="0px" y="0px"
	 width="100px" height="100px" viewBox="0 0 100 100" enable-background="new 0 0 100 100" xml:space="preserve">
<g>
	<g>
		<path fill="#9B9B9B" d="M60.201,28.002L6.101,82.104c-3.424,3.425-3.431,3.436-4.308,16.668L71.777,27.31
			C68.332,24.63,63.37,24.836,60.201,28.002z"/>
		<path fill="#9B9B9B" d="M71.777,27.31L1.792,98.771c-0.001,0.026-0.003,0.047-0.004,0.07c13.307-0.883,13.307-0.883,16.736-4.314
			l-0.115,0.116l1.411-7.62l1.619-6.02l6.147-1.747l3.107,3.104l4.959-4.961l-3.104-3.105l7.764-7.765l3.104,3.104l3.626-3.626
			l-3.105-3.103l2.349-5.586l5.416-2.181l3.106,3.104l17.816-17.817c3.433-3.431,3.433-8.994,0-12.425
			C72.363,27.738,72.065,27.533,71.777,27.31z"/>
	</g>
	<path fill="#FFFFFF" d="M69.544,23.622L33.52,59.646c-0.402,0.401-0.402,1.055,0.001,1.459c0.401,0.402,1.056,0.401,1.458,0
		l35.993-35.992C70.471,24.639,69.989,24.147,69.544,23.622z"/>
	<path fill="#07A3B2" d="M89.585,9.238c-9.864-9.863-25.856-9.863-35.723,0c-9.864,9.864-9.864,25.859,0,35.725
		c9.866,9.864,25.858,9.864,35.722,0C99.451,35.097,99.451,19.104,89.585,9.238z M84.289,24.648
		c-2.787,2.787-7.317,2.788-10.109,0.005c-0.003-0.004-0.006-0.007-0.011-0.01c-2.781-2.79-2.779-7.322,0.006-10.109
		c2.791-2.789,7.325-2.789,10.114,0C87.079,17.324,87.079,21.86,84.289,24.648z"/>
	<path fill="#FFFFFF" d="M17.881,76.552c0.83,0.828,0.83,2.178,0,3.008l-6.436,6.434c-0.832,0.834-2.179,0.832-3.01,0.003l0,0
		c-0.833-0.833-0.833-2.182,0-3.012l6.436-6.434C15.701,75.72,17.05,75.72,17.881,76.552L17.881,76.552z"/>
	<path fill="#FFFFFF" d="M30.067,64.363c0.833,0.832,0.831,2.179,0,3.011l-6.435,6.436c-0.831,0.832-2.179,0.831-3.011,0l0,0
		c-0.831-0.832-0.831-2.18,0-3.009l6.437-6.438C27.889,63.532,29.236,63.532,30.067,64.363L30.067,64.363z"/>
	<path fill="#07A3B2" d="M78.983,10.524c-4.948,0-8.962,4.013-8.962,8.964s4.014,8.964,8.962,8.964c4.95,0,8.965-4.013,8.965-8.964
		S83.934,10.524,78.983,10.524z M84.289,24.648c-2.787,2.787-7.317,2.788-10.109,0.005c-0.003-0.004-0.006-0.007-0.011-0.01
		c-2.781-2.79-2.779-7.322,0.006-10.109c2.791-2.789,7.325-2.789,10.114,0C87.079,17.324,87.079,21.86,84.289,24.648z"/>
</g>
</svg>
