<?xml version="1.0" encoding="utf-8"?>
<!-- Generator: Adobe Illustrator 16.0.0, SVG Export Plug-In . SVG Version: 6.00 Build 0)  -->
<!DOCTYPE svg PUBLIC "-//W3C//DTD SVG 1.1//EN" "http://www.w3.org/Graphics/SVG/1.1/DTD/svg11.dtd">
<svg version="1.1" id="Layer_1" xmlns="http://www.w3.org/2000/svg" xmlns:xlink="http://www.w3.org/1999/xlink" x="0px" y="0px"
	 width="100px" height="100px" viewBox="0 0 100 100" enable-background="new 0 0 100 100" xml:space="preserve">
<g>
	<g>
		<path fill="#07A3B2" d="M89.586,72.526l-10.69-12.338c-3.817-4.408-10.926-3.265-12.955,1.964c-1.497,3.612-5.76,5.374-9.4,4.288
			c-8.077-2.648-18.415-14.137-19.851-22.919c-0.968-3.792,1.795-7.728,5.583-8.695c5.465-1.261,7.612-8.134,3.795-12.542
			L35.377,9.943c-3.083-3.115-8.019-3.47-11.104-0.796l-8.375,7.252c-8.404,7.664-1.329,30.079,16.611,50.792
			c17.942,20.717,39.091,31.327,47.906,23.692l8.374-7.254C91.901,80.546,92.259,75.613,89.586,72.526z"/>
	</g>
</g>
</svg>
