<?xml version="1.0" encoding="utf-8"?>
<!-- Generator: Adobe Illustrator 16.0.0, SVG Export Plug-In . SVG Version: 6.00 Build 0)  -->
<!DOCTYPE svg PUBLIC "-//W3C//DTD SVG 1.1//EN" "http://www.w3.org/Graphics/SVG/1.1/DTD/svg11.dtd">
<svg version="1.1" id="Layer_1" xmlns="http://www.w3.org/2000/svg" xmlns:xlink="http://www.w3.org/1999/xlink" x="0px" y="0px"
	 width="100px" height="100px" viewBox="0 0 100 100" enable-background="new 0 0 100 100" xml:space="preserve">
<g>
	<path fill="#9B9B9B" d="M67.024,21.047c-12.714-1.586-24.26-8.22-30.254-17.604C30.778,12.827,19.23,19.46,6.516,21.047
		c-3.726,7.788-5.894,17.1-5.894,27.105c0,27.353,36.148,49.529,36.148,49.529s36.147-22.176,36.147-49.529
		C72.918,38.146,70.749,28.835,67.024,21.047z"/>
	<path fill="#FFFFFF" d="M61.253,31.607c0,0.455-0.37,0.825-0.825,0.825H14.937c-0.457,0-0.824-0.371-0.824-0.825l0,0
		c0-0.454,0.368-0.823,0.824-0.823h45.491C60.883,30.784,61.253,31.153,61.253,31.607L61.253,31.607z"/>
	<path fill="#FFFFFF" d="M61.253,42.596c0,0.455-0.37,0.824-0.825,0.824H14.937c-0.457,0-0.824-0.369-0.824-0.824l0,0
		c0-0.455,0.368-0.824,0.824-0.824h45.491C60.883,41.772,61.253,42.141,61.253,42.596L61.253,42.596z"/>
	<path fill="#FFFFFF" d="M61.253,53.584c0,0.455-0.37,0.825-0.825,0.825H14.937c-0.457,0-0.824-0.37-0.824-0.825l0,0
		c0-0.454,0.368-0.825,0.824-0.825h45.491C60.883,52.759,61.253,53.13,61.253,53.584L61.253,53.584z"/>
	<path fill="#FFFFFF" d="M61.253,64.571c0,0.456-0.37,0.825-0.825,0.825H14.937c-0.457,0-0.824-0.369-0.824-0.825l0,0
		c0-0.451,0.368-0.822,0.824-0.822h45.491C60.883,63.749,61.253,64.12,61.253,64.571L61.253,64.571z"/>
	<g>
		<path fill="#07A3B2" d="M99.241,33.107l0.137-11.535l-5.762-0.592c-0.287-0.906-0.638-1.784-1.049-2.626l3.76-4.409l-8.061-8.255
			l-4.493,3.654c-0.829-0.43-1.698-0.801-2.593-1.112l-0.466-5.776l-6.062-0.073l-5.475-0.064l-0.598,5.76
			c-0.898,0.29-1.772,0.64-2.608,1.048L61.554,5.37l-8.256,8.062l3.652,4.499c-0.428,0.828-0.799,1.691-1.108,2.583l-5.78,0.467
			l-0.134,11.537l5.762,0.599c0.287,0.896,0.637,1.771,1.046,2.61l-3.755,4.417l8.06,8.256l4.497-3.654
			c0.833,0.43,1.696,0.801,2.592,1.112l0.461,5.778l6.063,0.071l5.473,0.061l0.594-5.757c0.904-0.287,1.776-0.642,2.621-1.049
			l4.408,3.757l8.258-8.061l-3.655-4.492c0.433-0.834,0.803-1.701,1.116-2.6L99.241,33.107z M74.653,38.575
			c-0.047,0-0.092,0.006-0.138,0.006c-6.373-0.076-11.472-5.304-11.399-11.676c0.077-6.323,5.229-11.39,11.537-11.393
			c0.046,0,0.09-0.006,0.139-0.006c6.369,0.076,11.473,5.306,11.397,11.675C86.112,33.506,80.962,38.575,74.653,38.575z"/>
		<path fill="#07A3B2" d="M74.653,13.296c-7.576,0-13.717,6.139-13.717,13.714c0,7.578,6.141,13.719,13.717,13.719
			c7.575,0,13.716-6.141,13.716-13.719C88.369,19.435,82.229,13.296,74.653,13.296z M74.653,38.575
			c-0.047,0-0.092,0.006-0.138,0.006c-6.373-0.076-11.472-5.304-11.399-11.676c0.077-6.323,5.229-11.39,11.537-11.393
			c0.046,0,0.09-0.006,0.139-0.006c6.369,0.076,11.473,5.306,11.397,11.675C86.112,33.506,80.962,38.575,74.653,38.575z"/>
	</g>
</g>
</svg>
