<?xml version="1.0" encoding="utf-8"?>
<!-- Generator: Adobe Illustrator 16.0.0, SVG Export Plug-In . SVG Version: 6.00 Build 0)  -->
<!DOCTYPE svg PUBLIC "-//W3C//DTD SVG 1.1//EN" "http://www.w3.org/Graphics/SVG/1.1/DTD/svg11.dtd">
<svg version="1.1" id="Layer_1" xmlns="http://www.w3.org/2000/svg" xmlns:xlink="http://www.w3.org/1999/xlink" x="0px" y="0px"
	 width="126.498px" height="43.548px" viewBox="1157.03 237.27 126.498 43.548"
	 enable-background="new 1157.03 237.27 126.498 43.548" xml:space="preserve">
<path fill="#5081C2" d="M1259.209,254.651c0.469,0.812,0.623,1.734,0.674,2.772l0.066,1.384v9.674l0.068,1.385
	c0.141,2.262,1.807,3.935,4.082,4.077l1.381,0.067v-15.203l0.068-1.384c0.057-1.025,0.211-1.967,0.684-2.784
	c1.535-2.639,4.918-3.535,7.553-2.002c0.838,0.486,1.533,1.183,2.018,2.021c0.471,0.81,0.613,1.752,0.672,2.765l0.066,1.38v9.677
	l0.072,1.385c0.137,2.273,1.797,3.947,4.082,4.077l1.375,0.067v-16.586c0-6.108-4.951-11.058-11.053-11.061
	c-3.178-0.005-6.203,1.362-8.297,3.748c-2.1-2.384-5.123-3.75-8.299-3.75c-2.295,0-4.428,0.698-6.192,1.901
	c-1.078-1.203-3.488-1.901-4.868-1.901v27.649l1.38-0.067c2.315-0.154,3.986-1.78,4.077-4.077l0.073-1.385v-9.674l0.071-1.384
	c0.057-1.043,0.201-1.96,0.674-2.777c0.99-1.706,2.814-2.754,4.785-2.754C1256.395,251.892,1258.221,252.943,1259.209,254.651z
	 M1164.56,273.942l1.383,0.067h20.737l-0.07-1.377c-0.187-2.273-1.796-3.937-4.075-4.083l-1.386-0.069h-12.439l16.585-16.593
	l-0.067-1.377c-0.108-2.296-1.785-3.956-4.078-4.081l-1.382-0.063l-20.737-0.007l0.067,1.385c0.183,2.25,1.816,3.946,4.078,4.075
	l1.385,0.07h12.439l-16.587,16.591l0.07,1.383C1160.618,272.144,1162.262,273.795,1164.56,273.942L1164.56,273.942z
	 M1237.932,250.407c5.401,5.398,5.401,14.151,0,19.551c0,0,0,0,0,0.003c-5.4,5.396-14.156,5.396-19.555,0
	c-5.401-5.398-5.401-14.153,0-19.554c2.591-2.59,6.104-4.046,9.77-4.046c3.67-0.005,7.188,1.453,9.785,4.049V250.407z
	 M1234.021,254.323c3.236,3.242,3.236,8.492,0,11.732c-3.244,3.237-8.491,3.237-11.734,0c-3.235-3.241-3.235-8.491,0-11.732
	C1225.53,251.086,1230.777,251.086,1234.021,254.323L1234.021,254.323z M1199.131,246.361c3.663,0,7.178,1.456,9.769,4.049
	c5.398,5.398,5.398,14.153,0,19.551c-5.401,5.396-14.154,5.396-19.557,0c-5.397-5.398-5.397-14.153,0-19.554
	c2.59-2.59,6.105-4.046,9.771-4.046H1199.131L1199.131,246.361z M1204.986,254.32c3.239,3.242,3.239,8.494,0,11.733
	c-3.239,3.239-8.491,3.239-11.73,0c-3.239-3.239-3.239-8.491,0-11.73c3.24-3.24,8.492-3.24,11.73,0V254.32z"/>
</svg>
