<?xml version="1.0" encoding="utf-8"?>
<!-- Generator: Adobe Illustrator 16.0.0, SVG Export Plug-In . SVG Version: 6.00 Build 0)  -->
<!DOCTYPE svg PUBLIC "-//W3C//DTD SVG 1.1//EN" "http://www.w3.org/Graphics/SVG/1.1/DTD/svg11.dtd">
<svg version="1.1" id="Layer_1" xmlns="http://www.w3.org/2000/svg" xmlns:xlink="http://www.w3.org/1999/xlink" x="0px" y="0px"
	 width="300px" height="53.886px" viewBox="0 0 300 53.886" enable-background="new 0 0 300 53.886" xml:space="preserve">
<path fill="#FFFFFF" d="M154.161,18.994c0.699,1.209,0.932,2.584,1.012,4.133l0.099,2.06v14.418l0.099,2.068
	c0.207,3.368,2.688,5.867,6.09,6.072l2.051,0.108V25.187l0.1-2.06c0.089-1.532,0.313-2.933,1.028-4.151
	c2.285-3.936,7.318-5.271,11.259-2.987c1.245,0.726,2.283,1.764,3,3.014c0.699,1.209,0.922,2.61,1.003,4.124l0.099,2.055v14.423
	l0.106,2.068c0.207,3.387,2.678,5.885,6.083,6.072l2.059,0.108V23.127c0-9.104-7.379-16.488-16.487-16.488
	c-4.729-0.009-9.233,2.029-12.369,5.584c-3.125-3.555-7.63-5.588-12.358-5.588c-3.431,0-6.601,1.039-9.233,2.834
	c-1.604-1.791-5.204-2.834-7.263-2.834v41.219l2.059-0.108c3.457-0.224,5.947-2.65,6.081-6.072l0.108-2.068V25.187l0.107-2.06
	c0.08-1.559,0.295-2.924,1.003-4.142c1.478-2.543,4.191-4.106,7.138-4.106C149.97,14.879,152.692,16.446,154.161,18.994
	L154.161,18.994z M13.072,47.746l2.06,0.108h30.916l-0.103-2.061c-0.282-3.385-2.678-5.866-6.077-6.081l-2.064-0.107H19.26
	l24.722-24.731l-0.103-2.051c-0.161-3.426-2.66-5.897-6.077-6.085l-2.064-0.094L4.832,6.635l0.099,2.064
	c0.269,3.354,2.705,5.884,6.077,6.077l2.064,0.103h18.547L6.892,39.615l0.103,2.059C7.196,45.068,9.65,47.532,13.072,47.746
	L13.072,47.746z M122.449,12.667c8.05,8.047,8.05,21.097,0,29.143c0,0,0,0,0,0.008c-8.052,8.043-21.1,8.043-29.151,0
	c-8.052-8.051-8.052-21.099,0-29.15c3.86-3.86,9.099-6.032,14.562-6.032c5.472-0.004,10.721,2.167,14.59,6.036V12.667z
	 M64.607,6.635c5.463,0,10.703,2.172,14.563,6.036c8.047,8.047,8.047,21.095,0,29.146c-8.051,8.043-21.1,8.043-29.151,0
	c-8.046-8.051-8.046-21.099,0-29.15c3.86-3.86,9.099-6.032,14.562-6.032H64.607L64.607,6.635z M73.339,18.501
	c4.828,4.827,4.828,12.657,0,17.486c-4.831,4.827-12.659,4.827-17.491,0c-4.827-4.829-4.827-12.655,0-17.486
	C60.68,13.674,68.508,13.674,73.339,18.501L73.339,18.501z"/>
</svg>
