<?xml version="1.0" encoding="utf-8"?>
<!-- Generator: Adobe Illustrator 16.0.0, SVG Export Plug-In . SVG Version: 6.00 Build 0)  -->
<!DOCTYPE svg PUBLIC "-//W3C//DTD SVG 1.1//EN" "http://www.w3.org/Graphics/SVG/1.1/DTD/svg11.dtd">
<svg version="1.1" id="Layer_1" xmlns="http://www.w3.org/2000/svg" xmlns:xlink="http://www.w3.org/1999/xlink" x="0px" y="0px"
	 width="172.5px" height="43.443px" viewBox="0 10.443 172.5 43.443" enable-background="new 0 10.443 172.5 43.443"
	 xml:space="preserve">
<path fill="#FFFFFF" d="M122.023,24.444c0.547,1.064,0.731,2.274,0.794,3.639l0.077,1.813v12.696l0.078,1.819
	c0.163,2.966,2.109,5.167,4.779,5.348l1.609,0.094V29.896l0.079-1.813c0.07-1.349,0.246-2.583,0.808-3.654
	c1.792-3.466,5.742-4.642,8.835-2.631c0.978,0.639,1.792,1.553,2.354,2.654c0.549,1.064,0.724,2.297,0.789,3.631l0.078,1.81v12.7
	l0.083,1.819c0.163,2.982,2.102,5.182,4.773,5.348l1.616,0.094V28.083c0-8.016-5.791-14.517-12.939-14.517
	c-3.71-0.008-7.245,1.786-9.706,4.916c-2.453-3.13-5.988-4.92-9.698-4.92c-2.692,0-5.181,0.915-7.246,2.495
	c-1.258-1.577-4.084-2.495-5.7-2.495v36.292l1.616-0.095c2.713-0.198,4.667-2.333,4.772-5.348l0.084-1.819V29.896l0.083-1.813
	c0.063-1.372,0.231-2.574,0.788-3.647c1.16-2.239,3.289-3.615,5.602-3.615C118.734,20.82,120.87,22.199,122.023,24.444
	L122.023,24.444z M11.298,49.759l1.617,0.095h24.262l-0.081-1.815c-0.221-2.979-2.102-5.164-4.769-5.353l-1.619-0.094H16.155
	l19.401-21.777l-0.081-1.805c-0.127-3.018-2.087-5.193-4.77-5.359l-1.62-0.082L4.832,13.562l0.078,1.818
	c0.211,2.953,2.123,5.181,4.769,5.35l1.62,0.091h14.556L6.449,42.6l0.081,1.812C6.687,47.4,8.613,49.57,11.298,49.759L11.298,49.759
	z M97.136,18.873c6.317,7.085,6.317,18.575,0,25.661c0,0,0,0,0,0.005c-6.319,7.082-16.559,7.082-22.877,0
	c-6.319-7.088-6.319-18.576,0-25.665c3.029-3.399,7.141-5.312,11.427-5.312c4.294-0.003,8.415,1.908,11.451,5.315L97.136,18.873
	L97.136,18.873z M51.742,13.562c4.287,0,8.4,1.912,11.429,5.315c6.315,7.083,6.315,18.572,0,25.661
	c-6.318,7.082-16.559,7.082-22.877,0c-6.314-7.089-6.314-18.578,0-25.665c3.03-3.399,7.141-5.311,11.428-5.311H51.742L51.742,13.562
	z M58.595,24.009c3.789,4.251,3.789,11.146,0,15.396c-3.792,4.25-9.935,4.25-13.727,0c-3.788-4.25-3.788-11.142,0-15.396
	C48.661,19.758,54.804,19.758,58.595,24.009L58.595,24.009z"/>
</svg>
